<ttFont>
          <CharString index="0">
            34 1 25 rlinecurve
            -106 callgsubr
            return
          </CharString>
          <CharString index="1">
            5 39 -42 8 -11 6 -2 11 rlinecurve
            -111 638 rlineto
            -83 hlineto
            -339 -619 -15 -28 -2 -2 -54 -13 rlinecurve
            -40 196 vlineto
            5 39 -64 19 rlineto
            -4 1 -1 3 2 vvcurveto
            2 4 8 3 6 vhcurveto
            79 144 rlineto
            259 hlineto
            19 -130 rlineto
            1 -5 0 -5 -4 vvcurveto
            -22 -32 -8 -51 -10 vhcurveto
            -40 vlineto
            55 277 rmoveto
            -223 hlineto
            166 310 rlineto
            10 hlineto
            -8 0 -9 1 -12 vhcurveto
            endchar
          </CharString>
          <CharString index="2">
            rmoveto
            -86 -15 -49 -99 -122 hhcurveto
            -92 -41 53 79 22 3 21 4 25 hvcurveto
            62 352 2 12 2 -93 callgsubr
            -252 hlineto
            -46 callsubr
            53 -10 15 -6 -23 vvcurveto
            -6 -1 -8 -2 -9 vhcurveto
            -60 -343 rlineto
            -5 -28 -2 -26 -20 vvcurveto
            -116 66 -68 135 164 92 98 168 30 vhcurveto
            64 359 2 13 1 9 21 -81 callgsubr
            -242 hlineto
            -46 callsubr
            67 -8 18 -10 -33 vvcurveto
            -8 -6 callgsubr
            endchar
          </CharString>
          <CharString index="3">
            -221 -441 rlineto
            -10 hlineto
            4 -2 16 -1 14 vhcurveto
            -49 449 rlineto
            5 -1 6 3 vvcurveto
            3 2 50 callgsubr
            75 19 3 41 rlineto
            -219 hlineto
            -6 -40 37 -12 12 0 3 -31 rlinecurve
            13 -118 -182 -364 rlineto
            -10 hlineto
            4 -2 16 -1 14 vhcurveto
            -56 449 rlineto
            5 -1 6 3 vvcurveto
            3 2 50 callgsubr
            60 19 3 41 rlineto
            -227 hlineto
            -6 -40 44 -11 11 -2 4 -30 rlinecurve
            94 -619 rlineto
            81 hlineto
            179 364 6 10 4 11 1 5 rlinecurve
            8 hlineto
            -9 1 -27 1 -8 vhcurveto
            38 -346 rlineto
            endchar
          </CharString>
          <CharString index="4">
            hlineto
            -101 callgsubr
            return
          </CharString>
          <CharString index="5">
            119 20 142 54 111 vvcurveto
            64 -43 24 -53 -139 -117 -13 callsubr
            vhcurveto
            -228 167 rmoveto
            11 62 31 66 24 25 rrcurveto
            14 16 20 7 20 hhcurveto
            36 10 -26 -22 -55 -65 -45 -103 -26 hvcurveto
            endchar
          </CharString>
          <CharString index="6">
            109 616 2 12 2 -93 callgsubr
            -242 hlineto
            -46 callsubr
            67 -8 18 -11 -32 vvcurveto
            38 callgsubr
            -68 -383 rlineto
            -7 hlineto
            -215 504 rlineto
            -198 -103 callsubr
            -5 -68 callsubr
            253 vlineto
            5 39 -83 11 rlineto
            -19 2 -4 12 13 vvcurveto
            6 1 7 1 5 vhcurveto
            87 497 rlineto
            8 hlineto
            258 -592 rlineto
            return
          </CharString>
          <CharString index="7">
            rmoveto
            20 56 15 56 3 57 rrcurveto
            hintmask 11001010
            12 -27 -48 15 -63 hhcurveto
            -155 -106 -91 -128 -93 57 -39 67 -36 hvcurveto
            hintmask 10110100
            50 -27 77 -30 -83 vvcurveto
            -34 -13 -43 -37 -27 vhcurveto
            -13 -18 -25 -11 -35 hhcurveto
            -50 -46 22 13 -15 hvcurveto
            -6 5 -4 7 29 vvcurveto
            20 2 24 2 36 vhcurveto
            -58 -3 rlineto
            -22 -56 -16 -54 -56 vvcurveto
            -14 23 74 -29 87 hhcurveto
            162 95 102 123 95 -56 48 -72 35 hvcurveto
            hintmask 11001010
            -66 32 -66 31 73 vvcurveto
            52 33 29 15 11 vhcurveto
            13 18 24 11 39 hhcurveto
            33 31 -8 -13 13 hvcurveto
            6 -6 4 -9 -29 vvcurveto
            -20 -2 -25 -3 -37 vhcurveto
            endchar
          </CharString>
          <CharString index="8">
            rmoveto
            175 89 181 145 107 -55 64 -104 -176 -87 -183 -145 -106 55 -63 103 hvcurveto
            103 79 rmoveto
            -15 -19 -36 -11 -23 hhcurveto
            -62 -27 52 76 102 43 116 24 19 hvcurveto
            15 19 35 11 23 hhcurveto
            63 27 -52 -76 -102 -43 -116 -24 -19 hvcurveto
            endchar
          </CharString>
          <CharString index="9">
            -96 -63 -11 -7 -11 -12 -3 -4 rlinecurve
            -6 4 4 4 5 13 5 13 rlinecurve
            37 114 -7 12 -63 -22 -7 -105 rlineto
            -4 vlineto
            -11 2 -11 2 -4 vhcurveto
            -8 -4 -1 5 -8 9 -9 8 rlinecurve
            -78 71 -14 -2 -23 -62 90 -41 rlineto
            -4 10 14 -2 5 hhcurveto
            -2 -8 rlineto
            -5 -13 -3 -5 -13 hvcurveto
            -115 -43 -8 -13 41 -40 96 63 11 7 11 12 3 4 rlinecurve
            6 -4 -4 -4 -5 -13 -4 -13 rlinecurve
            -38 -114 7 -11 63 21 7 105 rlineto
            12 -3 8 -2 9 vhcurveto
            8 4 1 -5 8 -9 9 -8 rlinecurve
            78 -70 rlineto
            return
          </CharString>
          <CharString index="10">
            rmoveto
            13 45 8 52 2 26 rrcurveto
            hintmask 11001010
            9 -24 -45 11 -40 hhcurveto
            -113 -70 -61 -83 -76 49 -33 50 -25 hvcurveto
            hintmask 11010100
            49 -25 50 -19 -47 vvcurveto
            -19 -10 -31 -11 -10 vhcurveto
            -7 -9 -28 -8 -42 hhcurveto
            -59 -16 22 36 12 1 18 3 26 hvcurveto
            -50 hlineto
            -14 -45 -10 -61 -1 -31 rrcurveto
            -11 19 50 -19 54 hhcurveto
            125 77 71 90 62 -52 30 -52 28 hvcurveto
            hintmask 11001010
            -52 28 -51 21 45 vvcurveto
            19 9 29 11 8 vhcurveto
            6 9 27 10 40 hhcurveto
            53 2 -12 -41 -15 -1 -3 -1 -22 hvcurveto
            endchar
          </CharString>
          <CharString index="11">
            77 39 41 53 45 vvcurveto
            31 -19 21 -27 -26 -23 -20 -28 vhcurveto
            -21 13 -8 -19 vvcurveto
            -24 -22 -22 -35 -22 vhcurveto
            endchar
          </CharString>
          <CharString index="12">
            -76 callgsubr
            107 26 63 34 21 rlinecurve
            4 6 50 15 45 hhcurveto
            44 40 -2 -53 return
          </CharString>
          <CharString index="13">
            9 -18 -85 19 -75 hhcurveto
            -293 -89 -251 -178 -146 78 -136 183 88 89 26 20 38 hvcurveto
            27 189 2 12 3 10 19 4 rlinecurve
            53 12 rlineto
            39 -233 vlineto
            -11 -39 rlineto
            57 -10 12 -9 -22 vvcurveto
            -6 -1 -7 -1 -8 vhcurveto
            return
          </CharString>
          <CharString index="14">
            -21 359 rmoveto
            -133 -15 -108 -197 -82 hhcurveto
            -32 -14 31 68 78 41 125 46 41 hvcurveto
            9 9 32 7 26 hhcurveto
            38 39 -17 -12 20 hvcurveto
            -31 -264 rmoveto
            -218 -47 -20 -84 -128 hhcurveto
            -64 -20 38 29 85 86 0 57 43 hvcurveto
            30 19 58 37 50 99 8 -2 rcurveline
            endchar
          </CharString>
          <CharString index="15">
            -18 28 -5 18 171 350 453 204 -60 callgsubr
            -78 -68 -132 -79 -106 vhcurveto
            -4 1 -72 397 -9 10 rlineto
            -23 -32 -3 -11 -85 -37 callgsubr
            64 -7 7 -1 8 -37 rlinecurve
            endchar
          </CharString>
          <CharString index="16">
            20 72 16 68 5 68 -54 5 rcurveline
            -55 -132 -14 -19 -10 -3 rrcurveto
            -2 -7 3 -5 -127 hhcurveto
            -147 hlineto
            -1 6 9 4 9 10 7 9 rlinecurve
            467 586 4 26 rlineto
            -509 hlineto
            -19 -59 -10 -58 -5 -59 62 -7 rcurveline
            34 95 15 30 11 1 rrcurveto
            3 21 118 3 41 hhcurveto
            93 hlineto
            1 -7 -10 -4 -8 -10 -8 -9 rlinecurve
            -465 -586 -4 -26 rlineto
            endchar
          </CharString>
          <CharString index="17">
            rmoveto
            -35 -109 -8 -13 -9 -6 rrcurveto
            -7 -9 -44 -18 -51 hhcurveto
            -94 -89 70 172 188 75 172 168 47 49 -15 -8 8 hvcurveto
            9 -8 8 -37 4 -83 58 8 rcurveline
            hintmask 10110000
            13 66 7 49 53 vvcurveto
            hintmask 11010000
            9 -18 -85 19 -75 hhcurveto
            -292 -90 -251 -177 -156 89 -127 174 91 92 26 19 38 hvcurveto
            8 39 11 71 5 52 rrcurveto
            endchar
          </CharString>
          <CharString index="18">
            rmoveto
            8 1 10 4 7 4 rrcurveto
            37 19 35 40 47 vvcurveto
            68 -76 20 -55 vhcurveto
            hintmask 11010100
            -96 -57 -60 -68 -44 25 -27 22 -14 hvcurveto
            -2 4 2 -1 3 hhcurveto
            -4 vlineto
            hintmask 11101000
            -5 -11 -2 -5 -9 hvcurveto
            -33 -16 -53 -39 -57 vvcurveto
            -73 84 -18 57 92 83 50 74 41 -28 38 -40 19 vhcurveto
            hintmask 11100100
            1 -2 -2 0 -2 hhcurveto
            hintmask 11010100
            -38 19 rmoveto
            -42 19 -37 18 40 vvcurveto
            31 22 44 58 42 26 -23 -37 -49 -44 -28 -25 -15 vhcurveto
            hintmask 11101000
            -55 -47 rmoveto
            42 -18 50 -26 1 -45 rrcurveto
            -37 -32 -30 -59 -56 -29 26 38 58 68 29 15 5 vhcurveto
            endchar
          </CharString>
          <CharString index="19">
            15 71 17 66 11 37 -9 10 rcurveline
            -107 callgsubr
            -43 -44 callsubr
            16 -13 21 7 36 63 callsubr
            return
          </CharString>
          <CharString index="20">
            rmoveto
            8 11 10 22 2 13 -7 9 rcurveline
            -221 hlineto
            -50 -185 15 -19 rlineto
            4 25 34 4 20 hhcurveto
            57 25 -31 -44 -62 -47 -54 -68 -9 -21 1 6 -10 hvcurveto
            -6 4 0 11 12 15 2 16 7 vvcurveto
            -42 hlineto
            -11 -29 -7 -37 -3 -26 rrcurveto
            -6 11 38 -11 45 hhcurveto
            103 106 65 105 68 -48 34 -83 -15 -24 -1 -2 -25 hvcurveto
            return
          </CharString>
          <CharString index="21">
            rmoveto
            117 88 132 127 94 -54 77 -89 -120 -85 -137 -123 -94 52 -76 91 hvcurveto
            14 38 rmoveto
            -49 -29 42 87 94 29 131 83 49 29 -48 -91 -99 -29 -116 -83 hvcurveto
            endchar
          </CharString>
          <CharString index="22">
            rmoveto
            -15 -30 -21 -9 -12 hhcurveto
            -13 0 9 12 10 2 13 2 10 hvcurveto
            43 236 14 75 5 17 14 43 rlinecurve
            return
          </CharString>
          <CharString index="23">
            hlineto
            -47 -298 rlineto
            -61 callgsubr
            return
          </CharString>
          <CharString index="24">
            rmoveto
            -29 callgsubr
            8 10 35 13 29 hhcurveto
            51 2 -15 -28 -15 -1 -3 -1 -22 hvcurveto
            53 hlineto
            hintmask 10111000
            12 44 8 58 26 vvcurveto
            hintmask 11011000
            7 -27 -37 4 -35 hhcurveto
            -143 -118 -13 callsubr
            hvcurveto
            endchar
          </CharString>
          <CharString index="25">
            rmoveto
            -146 -31 -151 -118 -148 vvcurveto
            -88 56 -49 80 91 77 64 92 73 -50 43 -58 -36 -33 -14 -23 -25 vhcurveto
            -4 2 37 79 76 52 95 36 rlinecurve
            -160 -369 rmoveto
            -47 -26 34 64 -1 hvcurveto
            29 9 31 24 13 vhcurveto
            14 25 36 4 12 hhcurveto
            29 23 -25 -51 -49 -18 -64 -66 hvcurveto
            endchar
          </CharString>
          <CharString index="26">
            -9 rmoveto
            191 106 154 199 128 -73 80 -111 -191 -105 -155 -199 -127 73 -80 110 hvcurveto
            116 88 rmoveto
            -29 -28 -39 -6 -24 hhcurveto
            -73 -36 74 93 103 43 109 39 41 hvcurveto
            29 27 39 6 24 hhcurveto
            74 35 -74 -93 -103 -43 -109 -38 -41 hvcurveto
            return
          </CharString>
          <CharString index="27">
            47 12 48 38 54 vvcurveto
            59 -62 27 -63 -47 -37 -15 -15 -26 vhcurveto
            -9 -26 -1 -27 -27 vvcurveto
            43 -5 15 59 5 6 9 4 rlinecurve
            5 11 12 3 13 hhcurveto
            44 22 -26 -29 -35 -29 -49 -103 -14 hvcurveto
            -6 -36 rlineto
            return
          </CharString>
          <CharString index="28">
            151 -3 27 -1 15 -1 18 -2 rlinecurve
            11 -1 2 -10 2 -94 59 7 rcurveline
            return
          </CharString>
          <CharString index="29">
            -80 rmoveto
            13 73 rlineto
            138 14 80 93 109 vvcurveto
            90 -55 49 -72 32 vhcurveto
            -19 8 rlineto
            hintmask 01100101
            42 231 23 -3 20 -7 10 -9 rlinecurve
            46 callgsubr
            20 56 15 56 3 57 rlinecurve
            12 -27 -48 15 -63 hhcurveto
            -6 hlineto
            17 94 rlineto
            -52 hlineto
            -18 -99 rlineto
            -122 -19 -80 -81 -105 vvcurveto
            -86 54 -44 69 -33 vhcurveto
            3 -2 4 -1 4 -2 rrcurveto
            hintmask 10011010
            -46 -249 -37 6 -30 16 -12 10 rlinecurve
            -6 5 -4 7 29 vvcurveto
            20 2 24 2 36 vhcurveto
            -58 -3 rlineto
            -22 -56 -16 -54 -56 vvcurveto
            22 -14 67 -26 82 -3 -13 -71 rcurveline
            hintmask 01100110
            90 493 rmoveto
            -37 22 -27 29 45 vvcurveto
            50 33 27 15 11 vhcurveto
            13 9 17 9 23 4 rrcurveto
            -11 -346 rmoveto
            34 -23 33 -33 -48 vvcurveto
            -31 -13 -40 -37 -27 vhcurveto
            -15 -11 -18 -9 -25 -3 rrcurveto
            endchar
          </CharString>
          <CharString index="30">
            -15 -30 -18 -9 -12 hhcurveto
            -12 -4 9 15 11 return
          </CharString>
          <CharString index="31">
            277 115 228 196 138 -76 131 -201 hvcurveto
            -291 hlineto
            -46 callsubr
            56 -78 callgsubr
            -2 -12 -1 -5 vhcurveto
            -87 -491 -7 -38 -3 -11 -10 callsubr
            -39 vlineto
            373 640 rmoveto
            81 113 -54 -181 -198 -85 -154 -182 -41 -37 9 5 -24 hvcurveto
            -14 3 -3 8 9 vvcurveto
            7 2 8 1 7 vhcurveto
            94 531 rlineto
            endchar
          </CharString>
          <CharString index="32">
            74 rmoveto
            -15 -31 -20 -9 -10 hhcurveto
            -11 -7 7 17 -10 hvcurveto
            -149 254 rlineto
            55 46 53 30 43 14 40 -33 20 hhcurveto
            19 26 45 34 22 -43 7 -16 -89 -123 -77 -119 -55 hvcurveto
            -6 2 5 25 17 75 26 56 9 45 rlinecurve
            return
          </CharString>
          <CharString index="33">
            rmoveto
            -8 -19 -31 -8 -35 hhcurveto
            -99 -85 77 166 187 72 172 172 47 49 -15 -8 8 hvcurveto
            9 -8 7 -37 5 -83 58 8 rcurveline
            return
          </CharString>
          <CharString index="34">
            842 rmoveto
            12 21 -56 51 -198 -129 24 -36 rlineto
            return
          </CharString>
          <CharString index="35">
            -68 callgsubr
            hvcurveto
            return
          </CharString>
          <CharString index="36">
            rlineto
            -4 -22 -7 -42 -21 vvcurveto
            -35 11 -28 43 36 46 18 38 43 vhcurveto
            return
          </CharString>
          <CharString index="37">
            rmoveto
            -69 callsubr
            return
          </CharString>
          <CharString index="38">
            -15 -30 -21 -9 -12 hhcurveto
            -10 -3 9 12 10 2 13 2 10 hvcurveto
            return
          </CharString>
          <CharString index="39">
            -10 -10 callsubr
            -39 return
          </CharString>
          <CharString index="40">
            -10 -73 8 hvcurveto
            37 6 3 75 -2 11 20 112 rlinecurve
            return
          </CharString>
          <CharString index="41">
            -70 callsubr
            42 232 return
          </CharString>
          <CharString index="42">
            5 23 5 26 5 28 rrcurveto
            3 16 5 38 25 vvcurveto
            return
          </CharString>
          <CharString index="43">
            377 rmoveto
            hintmask 11001000
            68 18 77 60 87 vvcurveto
            93 -89 42 -92 -68 -53 -23 -23 -40 vhcurveto
            -13 -41 -2 -41 -42 vvcurveto
            52 -6 24 93 9 10 14 7 rlinecurve
            9 18 19 4 22 hhcurveto
            71 33 -44 -49 -57 -45 -81 -156 -24 hvcurveto
            -8 -48 rlineto
            3 20 15 1 13 hhcurveto
            hintmask 11110000
            87 33 -43 -72 -102 -65 -65 -98 -43 -28 11 6 -10 hvcurveto
            -6 3 -3 6 24 vvcurveto
            16 1 17 1 27 vhcurveto
            -50 hlineto
            -15 -35 -11 -59 -3 -41 rrcurveto
            -11 19 61 -16 66 hhcurveto
            173 118 111 125 84 -54 48 -63 10 hvcurveto
            endchar
          </CharString>
          <CharString index="44">
            rmoveto
            hintmask 11001000
            -80 callsubr
            hintmask 11110000
            3 17 11 1 9 hhcurveto
            54 22 -26 -43 -62 -35 -39 -54 -28 -18 7 3 -6 hvcurveto
            2 callgsubr
            5 callgsubr
            hvcurveto
            hintmask 11010000
            50 -36 30 -43 7 vhcurveto
            endchar
          </CharString>
          <CharString index="45">
            -14 -75 -5 -17 -14 -43 rlinecurve
            return
          </CharString>
          <CharString index="46">
            -41 -59 -36 -12 -35 hhcurveto
            -57 -24 31 86 10 0 12 2 12 hvcurveto
            return
          </CharString>
          <CharString index="47">
            -41 -101 -13 -14 -10 -3 -8 -2 -5 -10 -132 -2 return
          </CharString>
          <CharString index="48">
            rmoveto
            11 60 rlineto
            -249 hlineto
            -11 -60 rlineto
            return
          </CharString>
          <CharString index="49">
            rmoveto
            -77 callsubr
            return
          </CharString>
          <CharString index="50">
            -2 callsubr
            -22 callsubr
            return
          </CharString>
          <CharString index="51">
            -138 rmoveto
            237 22 182 88 148 vvcurveto
            78 -50 39 -57 15 vhcurveto
            8 vlineto
            hintmask 10100000
            65 30 64 55 74 vvcurveto
            81 -75 52 -106 -74 -51 -25 -21 -36 vhcurveto
            -13 -42 -2 -41 -41 vvcurveto
            52 -6 23 92 11 11 13 7 rlinecurve
            9 16 23 4 21 hhcurveto
            75 28 -50 -45 -61 -52 -74 -149 -25 hvcurveto
            -8 -48 rlineto
            3 20 15 1 14 hhcurveto
            hintmask 11000000
            87 37 -44 -57 -109 -133 -50 -171 -22 hvcurveto
            endchar
          </CharString>
          <CharString index="52">
            -10 -45 -7 -31 -22 vvcurveto
            return
          </CharString>
          <CharString index="53">
            586 rmoveto
            -74 179 -81 -30 -4 -23 124 -151 rlineto
            return
          </CharString>
          <CharString index="54">
            -40 -83 27 -42 hhcurveto
            -33 -32 -25 -71 -56 hvcurveto
            20 -16 rlineto
            24 28 25 10 25 hhcurveto
            return
          </CharString>
          <CharString index="55">
            121 6 73 55 57 vvcurveto
            33 -26 21 -48 -8 -10 0 -2 -10 vhcurveto
            return
          </CharString>
          <CharString index="56">
            12 3 39 rlineto
            return
          </CharString>
          <CharString index="57">
            rmoveto
            -48 callsubr
          </CharString>
          <CharString index="58">
            749 rmoveto
            26 36 -150 129 -64 -51 4 -21 rlineto
            return
          </CharString>
          <CharString index="59">
            -95 callgsubr
            endchar
          </CharString>
          <CharString index="60">
            -9 59 -59 70 413 10 -9 -20 33 -20 return
          </CharString>
          <CharString index="61">
            -6 -39 rlineto
            return
          </CharString>
          <CharString index="62">
            12 39 16 57 11 61 3 17 3 17 2 17 -54 5 rcurveline
            -59 -132 -14 -19 -11 -3 -7 -2 8 -3 -132 -2 -89 -1 rcurveline
            100 565 2 12 2 -30 callsubr
            -1 -8 -2 -9 vhcurveto
            -86 -491 -7 -39 -5 -68 callsubr
            vlineto
            endchar
          </CharString>
          <CharString index="63">
            -238 -62 callsubr
            return
          </CharString>
          <CharString index="64">
            841 rmoveto
            47 -37 31 -49 -59 -56 -41 -62 -48 37 -29 48 59 57 43 59 vhcurveto
            -51 -3 rmoveto
            -32 -26 -24 -33 -25 -17 14 25 30 20 25 40 25 16 -15 -23 vhcurveto
            return
          </CharString>
          <CharString index="65">
            -62 callsubr
            16 -13 21 7 36 63 callsubr
            78 21 95 32 69 vhcurveto
            107 -182 rlineto
            -66 39 18 -8 26 hhcurveto
            29 40 18 38 46 hvcurveto
            endchar
          </CharString>
          <CharString index="66">
            rmoveto
            -57 callsubr
            hintmask 10110000
            27 callsubr
            hintmask 11010000
            -56 -12 callsubr
            69 -30 callgsubr
          </CharString>
          <CharString index="67">
            32 callgsubr
            hintmask 01111000
            -72 callsubr
            hintmask 10111000
            -24 29 -3 18 119 78 147 216 35 vhcurveto
            return
          </CharString>
          <CharString index="68">
            248 0 40 184 53 310 115 return
          </CharString>
          <CharString index="69">
            -60 callsubr
            -89 -1 rcurveline
            47 269 rlineto
            -58 callgsubr
            return
          </CharString>
          <CharString index="70">
            rmoveto
            133 67 133 106 78 -42 47 -81 -134 -65 -134 -107 -77 42 -46 80 hvcurveto
            73 57 rmoveto
            -11 -14 -26 -8 -15 hhcurveto
            -42 -18 38 56 75 29 86 18 14 hvcurveto
            11 13 26 8 15 hhcurveto
            43 19 -38 -57 -75 -29 -85 -19 -14 hvcurveto
            84 -168 rmoveto
            10 53 rlineto
            -316 hlineto
            -10 -53 rlineto
            endchar
          </CharString>
          <CharString index="71">
            -16 13 -33 callgsubr
            rlinecurve
            -17 callsubr
            return
          </CharString>
          <CharString index="72">
            845 395 rmoveto
            214 -154 93 -196 -280 -141 -188 -211 -217 149 -95 197 287 138 202 202 vhcurveto
            -419 -351 rmoveto
            -177 -90 100 155 147 81 203 252 177 90 -98 -153 -143 -79 -211 -254 hvcurveto
            return
          </CharString>
          <CharString index="73">
            74 rmoveto
            -15 -30 -20 -9 -11 hhcurveto
            -13 -3 12 7 15 16 64 17 68 hvcurveto
            return
          </CharString>
          <CharString index="74">
            106 vstem
            239 -9 rmoveto
            163 126 212 202 150 -69 122 -123 -165 -124 -218 -198 -149 69 -121 123 hvcurveto
            22 53 rmoveto
            -70 -40 69 144 154 46 213 117 70 38 -78 -150 -162 -45 -190 -116 hvcurveto
            return
          </CharString>
          <CharString index="75">
            1 callgsubr
            59 -38 -21 return
          </CharString>
          <CharString index="76">
            hmoveto
            5 39 -60 12 rlineto
            -13 3 -3 5 8 vvcurveto
            6 4 19 1 6 vhcurveto
            96 518 2 12 3 -93 callgsubr
            return
          </CharString>
          <CharString index="77">
            -93 callgsubr
            -252 hlineto
            3 callgsubr
            return
          </CharString>
          <CharString index="78">
            171 0 51 269 53 267 52 hstem
            420 37 69 59 vstem
            return
          </CharString>
          <CharString index="79">
            -9 rmoveto
            173 134 212 202 150 -74 122 -131 -176 -131 -218 -198 -149 74 -121 131 hvcurveto
            22 53 rmoveto
            -78 -45 69 144 154 51 213 130 78 43 -78 -150 -162 -50 -190 -129 hvcurveto
            return
          </CharString>
          <CharString index="80">
            65 -219 99 -99 111 122 -21 491 -20 hstemhm
            401 82 hintmask 00000000
            hintmask 10111000
            return
          </CharString>
          <CharString index="81">
            298 -9 73 590 39 hstem
            127 100 379 161 vstem
            return
          </CharString>
          <CharString index="82">
            hlineto
            -10 -53 rlineto
            271 -314 33 callgsubr
            17 97 rlineto
            148 hlineto
            9 53 rlineto
            -376 hlineto
            -9 -53 rlineto
            131 hlineto
            -16 -91 -7 -39 -6 -9 -90 42 callsubr
          </CharString>
          <CharString index="83">
            715 rmoveto
            -28 -28 -19 -15 -24 -40 -81 42 -42 hhcurveto
            return
          </CharString>
          <CharString index="84">
            -43 -9 53 394 50 -20 20 hstemhm
            13 71 -23 70 128 79 -56 71 hintmask 00000000
            return
          </CharString>
          <CharString index="85">
            10 59 rlineto
            -106 hlineto
            24 129 -59 -6 rlineto
            return
          </CharString>
          <CharString index="86">
            -19 7 -64 25 -29 9 rrcurveto
            6 -19 -17 3 -12 hhcurveto
            -37 -27 -26 -74 -44 hvcurveto
            35 -24 rlineto
            36 32 20 13 24 hhcurveto
            11 16 -3 -5 15 hvcurveto
            hintmask 10101000
            19 -6 82 -31 21 -7 rrcurveto
            -5 16 12 -3 16 hhcurveto
            46 34 55 45 28 hvcurveto
            return
          </CharString>
          <CharString index="87">
            -57 callgsubr
            -55 5 rcurveline
            -60 callsubr
            return
          </CharString>
          <CharString index="88">
            -72 callgsubr
            9 41 16 67 24 51 8 42 23 callgsubr
            return
          </CharString>
          <CharString index="89">
            524 -9 137 524 41 hstemhm
            86 944 -537 80 hintmask 00000000
            hintmask 11100000
            return
          </CharString>
          <CharString index="90">
            12 -31 -33 9 -31 hhcurveto
            -151 -123 -147 -211 -75 30 -64 74 93 66 87 109 49 hvcurveto
            8 -2 return
          </CharString>
          <CharString index="91">
            rmoveto
            67 44 63 71 73 vvcurveto
            43 -22 19 -27 -27 -31 -19 -35 vhcurveto
            -30 21 3 -32 vvcurveto
            -36 -27 -42 -37 -33 vhcurveto
            return
          </CharString>
          <CharString index="92">
            65 callsubr
            5 5 18 5 28 hhcurveto
            43 2 -15 -25 -19 -1 2 -1 -21 50 callsubr
            42 8 56 25 vvcurveto
            7 -23 -33 4 -25 hhcurveto
            -132 -90 -109 -152 -29 hvcurveto
            -3 -16 return
          </CharString>
          <CharString index="93">
            -28 -9 73 368 56 -11 -20 hstemhm
            33 92 197 71 55 callgsubr
            return
          </CharString>
          <CharString index="94">
            -142 -185 -123 73 -47 63 0 callsubr
            return
          </CharString>
          <CharString index="95">
            -12 -4 -42 rlineto
            return
          </CharString>
          <CharString index="96">
            221 22 callsubr
            15 -286 rmoveto
            -15 callgsubr
            65 324 rmoveto
            return
          </CharString>
          <CharString index="97">
            -76 -13 rlinecurve
            return
          </CharString>
          <CharString index="98">
            167 -9 56 602 53 -28 -20 hstemhm
            59 114 48 callgsubr
            return
          </CharString>
          <CharString index="99">
            21 -21 408 139 -56 56 -56 178 -133 -20 31 -20 hstemhm
            return
          </CharString>
          <CharString index="100">
            46 86 -27 37 hhcurveto
            42 38 53 48 31 hvcurveto
            return
          </CharString>
          <CharString index="101">
            228 -9 56 217 39 346 53 -28 -20 hstemhm
            60 114 291 175 42 callgsubr
            return
          </CharString>
          <CharString index="102">
            -26 -9 73 368 56 hstem
            33 89 175 88 vstem
            return
          </CharString>
          <CharString index="103">
            -65 78 -33 55 150 101 112 151 28 vhcurveto
            return
          </CharString>
          <CharString index="104">
            20 80 23 78 33 vvcurveto
            return
          </CharString>
          <CharString index="105">
            -49 callgsubr
            55 298 rlineto
            108 hlineto
            return
          </CharString>
          <CharString index="106">
            -9 rmoveto
            17 6 36 11 22 4 rrcurveto
            -13 33 33 -8 29 hhcurveto
            151 123 147 211 return
          </CharString>
          <CharString index="107">
            70 74 53 47 44 return
          </CharString>
          <CharString index="108">
            rlinecurve
            -121 24 -21 -14 17 -90 116 20 19 3 23 8 7 3 rlinecurve
            7 -11 -7 -7 return
          </CharString>
          <CharString index="109">
            rmoveto
            -78 170 137 166 -18 16 -193 -170 rlineto
            -16 vlineto
            128 -182 rlineto
            return
          </CharString>
          <CharString index="110">
            -149 rmoveto
            -9 -27 -9 -1 -25 hhcurveto
            -28 -19 15 28 64 78 return
          </CharString>
          <CharString index="111">
            rmoveto
            23 61 -90 42 rlineto
            4 -8 -15 1 -5 hhcurveto
            2 8 rlineto
            return
          </CharString>
          <CharString index="112">
            11 -61 1 -1 rlineto
            300 hlineto
            -14 -74 65 callgsubr
            134 230 rmoveto
            -248 4 -3 7 6 5 9 8 7 9 rlinecurve
            return
          </CharString>
          <CharString index="113">
            -219 rmoveto
            20 7 45 6 24 1 rrcurveto
            58 2 43 19 117 vhcurveto
            -14 38 31 43 callgsubr
            return
          </CharString>
          <CharString index="114">
            rmoveto
            3 16 -133 170 -24 -16 77 -162 -136 -174 18 -16 rlineto
            return
          </CharString>
          <CharString index="115">
            65 3 -52 callgsubr
            -26 -38 4 -29 hhcurveto
            -158 -104 -89 -172 -27 hvcurveto
            -3 -16 return
          </CharString>
          <CharString index="116">
            5 13 3 5 13 hvcurveto
            114 44 8 13 -40 40 return
          </CharString>
          <CharString index="117">
            119 78 147 216 35 hvcurveto
            return
          </CharString>
          <CharString index="118">
            hstemhm
            52 90 -32 95 134 77 return
          </CharString>
          <CharString index="119">
            117 rmoveto
            -41 -59 -36 -12 -35 hhcurveto
            -66 -28 31 86 10 0 12 2 12 hvcurveto
            125 20 149 54 111 vvcurveto
            64 -45 24 -56 return
          </CharString>
          <CharString index="120">
            4 29 -49 7 rlineto
            -8 1 -1 5 6 vvcurveto
            4 2 11 1 6 vhcurveto
            return
          </CharString>
          <CharString index="121">
            -10 -29 -13 0 -19 hhcurveto
            -28 -18 17 29 return
          </CharString>
          <CharString index="122">
            -28 callgsubr
            rrcurveto
            return
          </CharString>
          <CharString index="123">
            -21 386 111 -98 98 -20 10 -10 20 hstemhm
            return
          </CharString>
          <CharString index="124">
            177 0 39 613 41 hstem
            242 94 vstem
            return
          </CharString>
          <CharString index="125">
            rmoveto
            -132 -24 -20 -114 -45 return
          </CharString>
          <CharString index="126">
            rmoveto
            90 60 42 73 56 vvcurveto
            38 -28 25 -26 -30 -23 -21 -33 vhcurveto
            -24 21 -9 -25 vvcurveto
            -25 -26 -48 -42 -41 vhcurveto
            return
          </CharString>
          <CharString index="127">
            188 0 52 465 -20 145 51 hstem
            11 642 vstem
            return
          </CharString>
          <CharString index="128">
            -5 -32 rlineto
            44 -5 34 -3 -38 vvcurveto
            return
          </CharString>
          <CharString index="129">
            286 rmoveto
            117 88 132 127 94 -54 77 -89 -120 -85 -137 -123 -94 52 -76 91 hvcurveto
            return
          </CharString>
          <CharString index="130">
            73 rmoveto
            -2 callsubr
            return
          </CharString>
          <CharString index="131">
            vhcurveto
            14 11 6 -5 18 -4 19 -4 rlinecurve
            126 -24 rlineto
            return
          </CharString>
          <CharString index="132">
            66 -11 70 117 74 -43 66 hintmask 00000000
            return
          </CharString>
          <CharString index="133">
            -84 0 63 callgsubr
            return
          </CharString>
          <CharString index="134">
            -45 -121 -1 -1 -26 -6 rrcurveto
            return
          </CharString>
          <CharString index="135">
            259 279 rmoveto
            13 callsubr
            return
          </CharString>
          <CharString index="136">
            rmoveto
            87 245 -10 19 -80 -25 -39 -236 rlineto
            return
          </CharString>
          <CharString index="137">
            85 -12 88 hintmask 00000000
            return
          </CharString>
          <CharString index="138">
            -38 -39 17 12 -20 hvcurveto
            endchar
          </CharString>
          <CharString index="139">
            108 85 108 return
          </CharString>
          <CharString index="140">
            rlinecurve
            -8 12 6 6 9 20 6 20 rlinecurve
            59 187 -11 18 -96 -34 rlineto
            return
          </CharString>
          <CharString index="141">
            hmoveto
            5 39 -47 9 rlineto
            -20 4 -7 9 15 vvcurveto
            7 1 8 2 11 vhcurveto
            return
          </CharString>
          <CharString index="142">
            39 265 51 285 53 hstem
            return
          </CharString>
          <CharString index="143">
            -3 4 8 -3 7 hhcurveto
            return
          </CharString>
          <CharString index="144">
            42 39 56 51 31 hvcurveto
            return
          </CharString>
          <CharString index="145">
            12 62 33 66 26 25 rrcurveto
            14 17 22 7 21 hhcurveto
            39 11 -26 -22 return
          </CharString>
          <CharString index="146">
            -217 31 96 45 return
          </CharString>
          <CharString index="147">
            191 0 35 callsubr
            479 109 vstem
            return
          </CharString>
          <CharString index="148">
            hintmask 00000000
            hintmask 11110000
            return
          </CharString>
          <CharString index="149">
            -14 rlinecurve
            -39 vlineto
            endchar
          </CharString>
          <CharString index="150">
            32 73 43 265 8 hstemhm
            return
          </CharString>
          <CharString index="151">
            59 -5 -20 hstemhm
            70 85 return
          </CharString>
          <CharString index="152">
            -189 -21 201 return
          </CharString>
          <CharString index="153">
            3 rlineto
            -63 -28 return
          </CharString>
          <CharString index="154">
            -187 -9 59 -38 -21 771 10 hstemhm
            41 86 -86 return
          </CharString>
          <CharString index="155">
            -12 rlinecurve
            -1 -39 rlineto
            return
          </CharString>
          <CharString index="156">
            38 354 38 hstem
            return
          </CharString>
          <CharString index="157">
            hvcurveto
            53 hlineto
            12 return
          </CharString>
          <CharString index="158">
            -18 30 -5 16 return
          </CharString>
          <CharString index="159">
            -8 hvcurveto
            hintmask 10111010
            -74 hlineto
            -10 -53 rlineto
            83 hlineto
            -1 return
          </CharString>
          <CharString index="160">
            56 374 67 274 10 hstem
            387 90 vstem
            return
          </CharString>
          <CharString index="161">
            -6 -31 -28 -14 -104 48 callsubr
            endchar
          </CharString>
          <CharString index="162">
            hstem
            589 114 vstem
            return
          </CharString>
          <CharString index="163">
            -43 -203 rlineto
            return
          </CharString>
          <CharString index="164">
            -166 -189 -21 hstem
            105 65 vstem
            170 return
          </CharString>
          <CharString index="165">
            vstem
            919 hmoveto
            838 -838 -838 vlineto
            return
          </CharString>
          <CharString index="166">
            -9 89 -46 82 186 53 268 53 hstemhm
            return
          </CharString>
          <CharString index="167">
            hlineto
            64 201 rlineto
            -58 hlineto
            -64 -201 rlineto
            return
          </CharString>
          <CharString index="168">
            37 191 44 97 55 hstem
            return
          </CharString>
          <CharString index="169">
            -15 90 -120 -20 -17 -3 return
          </CharString>
          <CharString index="170">
            6 25 1 rlinecurve
            return
          </CharString>
          <CharString index="171">
            -17 3 -18 2 -5 vhcurveto
            -12 -9 -5 5 return
          </CharString>
          <CharString index="172">
            56 callgsubr
            106 30 63 30 26 rlinecurve
            return
          </CharString>
          <CharString index="173">
            -9 53 226 130 224 53 hstem
            return
          </CharString>
          <CharString index="174">
            vlineto
            -39 -2 -10 -74 -13 vhcurveto
            6 -39 rlineto
            return
          </CharString>
        <CharString name=".notdef">
          99 0 46 587 46 hstem
          30 49 362 49 vstem
          490 hmoveto
          679 -460 -679 vlineto
          411 46 rmoveto
          -362 587 362 hlineto
          endchar
        </CharString>
        <CharString name=".null">
          -421 endchar
        </CharString>
        <CharString name="A">
          -39 callsubr
          hstem
          -18 659 vstem
          636 hmoveto
          -106 callsubr
        </CharString>
        <CharString name="AE">
          526 0 51 173 53 43 53 267 52 hstem
          775 37 69 59 vstem
          862 hmoveto
          11 34 13 41 10 53 3 17 3 17 2 17 -55 5 rcurveline
          -38 callsubr
          5 23 5 26 5 28 rrcurveto
          3 16 5 38 25 vvcurveto
          -543 hlineto
          -46 callsubr
          34 -7 31 -9 -22 vvcurveto
          -6 -3 -8 -7 -10 vhcurveto
          -406 -510 -20 -25 -3 -4 -54 -13 rlinecurve
          -40 196 vlineto
          5 39 -37 11 rlineto
          -11 3 -5 5 6 vvcurveto
          10 12 14 11 14 vhcurveto
          98 122 rlineto
          229 hlineto
          -21 -123 64 callgsubr
          119 277 rmoveto
          -198 hlineto
          243 310 rlineto
          9 hlineto
          endchar
        </CharString>
        <CharString name="Aacute">
          -39 callsubr
          hstem
          -18 659 vstem
          614 -73 callsubr
          240 -749 rmoveto
          -106 callsubr
        </CharString>
        <CharString name="Abreve">
          -39 callsubr
          58 68 hstem
          -18 659 vstem
          594 -31 callgsubr
          5 -900 rmoveto
          -106 callsubr
        </CharString>
        <CharString name="Acircumflex">
          -39 callsubr
          hstem
          -18 659 vstem
          624 -89 callgsubr
          42 -749 rmoveto
          -106 callsubr
        </CharString>
        <CharString name="Adieresis">
          -39 callsubr
          73 110 hstem
          300 32 callsubr
          vstem
          540 775 rmoveto
          34 27 -97 callgsubr
          28 hvcurveto
          -193 hmoveto
          34 27 -97 callgsubr
          28 hvcurveto
          289 -775 rmoveto
          -106 callsubr
        </CharString>
        <CharString name="Agrave">
          -39 callsubr
          hstem
          -18 659 vstem
          489 -49 callsubr
          331 -842 rmoveto
          -106 callsubr
        </CharString>
        <CharString name="Amacron">
          -39 callsubr
          102 60 hstem
          -18 659 vstem
          581 804 -59 callsubr
          304 -804 rmoveto
          -106 callsubr
        </CharString>
        <CharString name="Aogonek">
          248 -215 56 159 40 184 53 310 115 hstem
          349 85 vstem
          542 3 callsubr
          52 85 hvcurveto
          39 hlineto
          5 39 -42 8 -11 6 -2 11 rlinecurve
          -111 638 rlineto
          -83 hlineto
          -339 -619 -15 -28 -2 -2 -54 -13 rlinecurve
          -40 196 vlineto
          5 39 -64 19 rlineto
          -4 1 -1 3 2 vvcurveto
          2 4 8 3 6 vhcurveto
          79 144 rlineto
          259 hlineto
          19 -130 rlineto
          1 -5 0 -5 -4 vvcurveto
          -22 -32 -8 -51 -10 vhcurveto
          -40 72 14 callgsubr
          -100 446 rmoveto
          -223 hlineto
          166 310 rlineto
          10 hlineto
          -8 0 -9 1 -12 vhcurveto
          endchar
        </CharString>
        <CharString name="Aring">
          -39 callsubr
          37 43 94 43 hstem
          353 49 101 51 vstem
          554 -43 callsubr
          133 -838 rmoveto
          -106 callsubr
        </CharString>
        <CharString name="Atilde">
          -39 callsubr
          76 78 -51 78 hstemhm
          -18 664 hintmask 00000000
          hintmask 11110100
          623 10 callgsubr
          hintmask 11101100
          -53 callsubr
          hintmask 11110100
          -7 callsubr
          -10 -879 rmoveto
          -106 callsubr
        </CharString>
        <CharString name="B">
          201 0 50 283 56 251 53 hstemhm
          479 110 -95 110 41 callsubr
          310 hmoveto
          212 67 106 96 84 -51 50 -72 19 hvcurveto
          7 vlineto
          hintmask 11101000
          53 16 85 66 99 vvcurveto
          89 -70 61 -125 vhcurveto
          -275 hlineto
          -46 callsubr
          54 -10 14 -7 -22 vvcurveto
          -6 -1 -8 -2 -9 vhcurveto
          -84 -27 callgsubr
          0 -10 -79 -13 rlinecurve
          -39 vlineto
          230 389 rmoveto
          42 251 rlineto
          70 hlineto
          105 24 -53 -58 -95 -64 -45 -101 hvcurveto
          12 -56 rmoveto
          hintmask 11110000
          57 81 -21 -112 -100 -65 -50 -122 -45 -23 7 5 -10 hvcurveto
          -12 6 0 8 4 21 38 236 rcurveline
          endchar
        </CharString>
        <CharString name="C">
          -9 callsubr
          512 200 -90 callsubr
        </CharString>
        <CharString name="CR">
          -176 endchar
        </CharString>
        <CharString name="Cacute">
          -9 callsubr
          614 -73 callsubr
          116 -549 -90 callsubr
        </CharString>
        <CharString name="Ccaron">
          -9 callsubr
          625 -74 callgsubr
          44 -552 -90 callsubr
        </CharString>
        <CharString name="Ccedilla">
          167 39 callsubr
          37 55 602 53 -28 -20 hstemhm
          59 114 173 86 hintmask 00000000
          hintmask 11110110
          238 -217 rmoveto
          -52 callsubr
          18 39 82 4 78 23 35 17 rlinecurve
          8 39 11 71 5 52 -55 2 rcurveline
          -35 -109 -8 -13 -9 -6 rrcurveto
          -7 -9 -44 -18 -51 hhcurveto
          -94 -89 70 172 188 75 172 168 47 49 -15 -8 8 hvcurveto
          9 -8 8 -37 4 -83 58 8 rcurveline
          hintmask 11101110
          13 66 7 49 53 vvcurveto
          hintmask 11110110
          9 -18 -85 19 -75 hhcurveto
          -292 -90 -251 -177 -148 80 -122 156 -12 hvcurveto
          -38 -81 -44 callgsubr
          -33 -43 -23 -63 -8 hvcurveto
          endchar
        </CharString>
        <CharString name="Ccircumflex">
          -9 callsubr
          624 -89 callgsubr
          -82 -549 -90 callsubr
        </CharString>
        <CharString name="Cdotaccent">
          167 -9 56 602 53 -28 -20 129 111 hstemhm
          59 114 239 112 hintmask 00000000
          hintmask 11011100
          524 839 rmoveto
          -80 callgsubr
          -12 -639 rmoveto
          -35 -109 -8 -13 -9 -6 rrcurveto
          -7 -9 -44 -18 -51 hhcurveto
          -94 -89 70 172 188 75 172 168 47 49 -15 -8 8 hvcurveto
          9 -8 8 -37 4 -83 58 8 rcurveline
          hintmask 10111100
          13 66 7 49 53 vvcurveto
          hintmask 11011100
          9 -18 -85 19 -75 hhcurveto
          -292 -90 -251 -177 -156 89 -127 174 91 92 26 19 38 hvcurveto
          8 39 11 71 5 52 rrcurveto
          endchar
        </CharString>
        <CharString name="D">
          269 0 53 587 53 55 callsubr
          311 hmoveto
          -76 callsubr
        </CharString>
        <CharString name="Dcaron">
          269 0 53 587 53 55 callsubr
          620 -74 callgsubr
          -152 -752 rmoveto
          -76 callsubr
        </CharString>
        <CharString name="Dcroat">
          269 0 53 587 53 111 60 55 callsubr
          576 804 -59 callsubr
          -16 -804 rmoveto
          -76 callsubr
        </CharString>
        <CharString name="Delta">
          220 0 53 534 115 hstem
          16 552 vstem
          560 hmoveto
          8 42 -113 660 rlineto
          -69 hlineto
          -363 -662 -7 -40 rlineto
          444 53 rmoveto
          -362 hlineto
          283 534 rlineto
          7 hlineto
          -1 -2 0 -6 -6 vvcurveto
          -5 0 -5 1 -5 vhcurveto
          endchar
        </CharString>
        <CharString name="E">
          -29 callsubr
          507 hmoveto
          11 34 13 41 10 53 3 17 3 17 2 17 -55 5 rcurveline
          -41 -101 -13 -14 -10 -3 -8 -2 -5 -10 -132 -2 -89 -1 rcurveline
          47 269 rlineto
          -105 callgsubr
        </CharString>
        <CharString name="Eacute">
          -29 callsubr
          569 -73 callsubr
          156 -749 rmoveto
          11 34 13 41 10 53 3 17 3 17 2 17 -55 5 rcurveline
          -41 -101 -13 -14 -10 -3 -8 -2 -5 -10 -132 -2 -89 -1 rcurveline
          47 269 rlineto
          -105 callgsubr
        </CharString>
        <CharString name="Ecaron">
          -29 callsubr
          580 -74 callgsubr
          84 -752 rmoveto
          11 34 13 41 10 53 3 17 3 17 2 17 -55 5 rcurveline
          -41 -101 -13 -14 -10 -3 -8 -2 -5 -10 -132 -2 -89 -1 rcurveline
          47 269 rlineto
          -105 callgsubr
        </CharString>
        <CharString name="Ecircumflex">
          -29 callsubr
          579 -89 callgsubr
          -42 -749 rmoveto
          11 34 13 41 10 53 3 17 3 17 2 17 -55 5 rcurveline
          -41 -101 -13 -14 -10 -3 -8 -2 -5 -10 -132 -2 -89 -1 rcurveline
          47 269 rlineto
          -105 callgsubr
        </CharString>
        <CharString name="Edieresis">
          171 0 51 269 53 267 52 83 110 hstemhm
          265 108 47 37 1 108 -40 59 hintmask 00000000
          hintmask 11111010
          505 775 rmoveto
          34 27 -97 callgsubr
          28 hvcurveto
          -193 hmoveto
          34 27 -97 callgsubr
          28 hvcurveto
          195 -775 rmoveto
          7 callgsubr
          hintmask 11101101
          -105 callgsubr
        </CharString>
        <CharString name="Edotaccent">
          171 0 51 269 53 267 52 91 111 hstemhm
          353 112 -45 37 69 59 hintmask 00000000
          hintmask 11111010
          465 839 rmoveto
          -80 callgsubr
          42 -839 rmoveto
          7 callgsubr
          hintmask 11110110
          -105 callgsubr
        </CharString>
        <CharString name="Egrave">
          -29 callsubr
          444 -49 callsubr
          247 -842 rmoveto
          11 34 13 41 10 53 3 17 3 17 2 17 -55 5 rcurveline
          -41 -101 -13 -14 -10 -3 -8 -2 -5 -10 -132 -2 -89 -1 rcurveline
          47 269 rlineto
          -105 callgsubr
        </CharString>
        <CharString name="Emacron">
          171 0 51 269 53 267 52 112 60 hstem
          420 37 69 59 vstem
          536 804 -59 callsubr
          220 -804 rmoveto
          11 34 13 41 10 53 3 17 3 17 2 17 -55 5 rcurveline
          -41 -101 -13 -14 -10 -3 -8 -2 -5 -10 -132 -2 -89 -1 rcurveline
          47 269 rlineto
          -105 callgsubr
        </CharString>
        <CharString name="Eng">
          316 -129 107 22 44 610 39 hstemhm
          21 151 -151 768 -162 160 42 callgsubr
          518 21 rmoveto
          -35 -12 -14 -21 -19 -32 callgsubr
          51 callsubr
          132 54 144 134 24 hvcurveto
          hintmask 01110100
          83 467 2 12 2 -93 callgsubr
          -242 hlineto
          -46 callsubr
          44 -5 42 -5 -38 vvcurveto
          -8 -2 -13 -1 -5 vhcurveto
          -69 -391 rlineto
          -7 hlineto
          -215 504 rlineto
          -198 -103 callsubr
          -4 -68 callsubr
          252 vlineto
          5 39 -83 11 rlineto
          -19 2 -4 12 13 vvcurveto
          6 1 7 1 5 vhcurveto
          87 497 rlineto
          8 hlineto
          endchar
        </CharString>
        <CharString name="Eogonek">
          171 -215 56 159 52 268 53 267 52 hstem
          259 85 76 37 69 59 vstem
          452 3 callsubr
          49 85 3 hvcurveto
          -20 callsubr
          rrcurveto
          -89 hlineto
          47 268 rlineto
          -34 callgsubr
          -473 -103 callsubr
          -4 -68 callsubr
          357 14 callgsubr
          endchar
        </CharString>
        <CharString name="Eth">
          269 0 53 285 60 242 53 55 callsubr
          311 hmoveto
          277 115 228 196 138 -76 131 -201 hvcurveto
          -291 hlineto
          -46 callsubr
          56 -78 callgsubr
          -2 -12 -1 -5 vhcurveto
          -35 -194 rlineto
          -95 hlineto
          -16 -60 rlineto
          101 hlineto
          -42 -237 -7 -38 -3 -11 -10 callsubr
          -39 vlineto
          384 338 rmoveto
          16 60 rlineto
          -165 hlineto
          43 242 rlineto
          95 hlineto
          81 113 -54 -181 -198 -85 -154 -182 -41 -37 9 5 -24 hvcurveto
          -14 3 -3 8 9 vvcurveto
          7 2 8 1 7 vhcurveto
          40 229 rlineto
          endchar
        </CharString>
        <CharString name="Euro">
          173 60 callgsubr
          101 114 vstem
          602 480 rmoveto
          13 66 7 49 53 vvcurveto
          9 -17 -80 19 -70 hhcurveto
          -201 -98 -126 -131 -38 hvcurveto
          -60 hlineto
          -10 -51 rlineto
          395 hlineto
          10 51 rlineto
          -226 hlineto
          115 26 64 89 113 hhcurveto
          42 44 -15 -8 7 hvcurveto
          8 -9 9 -36 4 -83 rrcurveto
          -26 54 callgsubr
          -8 -38 -19 -44 hhcurveto
          -76 -73 58 141 -12 hvcurveto
          206 hlineto
          9 51 rlineto
          -385 hlineto
          -9 -51 rlineto
          65 hlineto
          -143 9 81 -112 151 hhcurveto
          85 86 26 19 36 hvcurveto
          8 39 11 71 5 52 rrcurveto
          endchar
        </CharString>
        <CharString name="Euro.tab">
          60 callgsubr
          76 115 vstem
          511 480 rmoveto
          13 66 7 49 53 vvcurveto
          9 -14 -68 19 -61 hhcurveto
          -175 -85 -126 -131 -34 hvcurveto
          -43 hlineto
          -10 -51 rlineto
          347 hlineto
          10 51 rlineto
          -196 hlineto
          115 19 52 89 90 hhcurveto
          31 32 -15 -8 6 hvcurveto
          8 -9 9 -36 4 -83 rrcurveto
          -29 54 callgsubr
          -5 -27 -19 -32 hhcurveto
          -55 -52 58 141 -10 hvcurveto
          175 hlineto
          9 51 rlineto
          -337 hlineto
          -9 -51 rlineto
          47 hlineto
          -143 8 68 -112 126 hhcurveto
          73 74 26 19 30 hvcurveto
          8 39 11 71 5 52 rrcurveto
          endchar
        </CharString>
        <CharString name="F">
          125 0 44 267 53 276 52 hstem
          434 37 55 59 vstem
          310 hmoveto
          5 39 -90 11 rlineto
          -19 2 -4 12 13 vvcurveto
          6 1 7 1 5 vhcurveto
          38 216 rlineto
          161 hlineto
          10 13 -67 callsubr
          -30 46 callsubr
          -21 -8 -8 hhcurveto
          -154 hlineto
          49 278 -79 callsubr
          -65 callsubr
          -473 -103 callsubr
          -5 -68 callsubr
          vlineto
          endchar
        </CharString>
        <CharString name="G">
          -6 callsubr
          443 63 -74 callsubr
          hintmask 11011000
          37 callgsubr
          hintmask 11101100
          -94 callsubr
          endchar
        </CharString>
        <CharString name="Gbreve">
          228 -9 56 217 39 346 53 -28 -20 106 68 hstemhm
          60 114 291 175 hintmask 00000000
          hintmask 11101100
          602 -31 callgsubr
          -196 -837 -74 callsubr
          hintmask 11011100
          37 callgsubr
          hintmask 11101110
          -94 callsubr
          endchar
        </CharString>
        <CharString name="Gcaron">
          -6 callsubr
          633 -74 callgsubr
          -33 -689 -74 callsubr
          hintmask 11011000
          37 callgsubr
          hintmask 11101100
          -94 callsubr
          endchar
        </CharString>
        <CharString name="Gcircumflex">
          -6 callsubr
          624 -89 callgsubr
          -151 -686 -74 callsubr
          hintmask 11011000
          37 callgsubr
          hintmask 11101100
          -94 callsubr
          endchar
        </CharString>
        <CharString name="Gcommaaccent">
          228 45 callsubr
          56 217 39 346 53 -28 -20 hstemhm
          60 114 100 95 96 175 hintmask 00000000
          hintmask 11110100
          443 63 -74 callsubr
          hintmask 11101100
          37 callgsubr
          hintmask 11110111
          -94 callsubr
          -212 -412 rmoveto
          -96 callsubr
        </CharString>
        <CharString name="Gdotaccent">
          228 -9 56 217 39 346 53 -28 -20 129 111 hstemhm
          60 114 243 112 -64 175 hintmask 00000000
          hintmask 11101110
          529 839 rmoveto
          -80 callgsubr
          -86 -776 -74 callsubr
          hintmask 11011110
          37 callgsubr
          hintmask 11101101
          -94 callsubr
          endchar
        </CharString>
        <CharString name="H">
          62 callgsubr
          267 39 hstem
          22 774 vstem
          680 hmoveto
          5 39 -54 11 rlineto
          -16 4 -4 12 12 vvcurveto
          8 2 9 1 6 vhcurveto
          91 515 2 12 2 -30 callsubr
          -1 -8 -2 -9 vhcurveto
          -36 -205 rlineto
          -312 hlineto
          41 229 2 12 2 -30 callsubr
          -1 -8 -2 -9 vhcurveto
          -86 -47 callgsubr
          249 vlineto
          5 39 -51 10 rlineto
          -18 4 -5 10 13 vvcurveto
          5 2 18 1 4 vhcurveto
          40 224 rlineto
          312 hlineto
          -40 -226 -7 -39 -3 -68 callsubr
          vlineto
          endchar
        </CharString>
        <CharString name="H22073">
          579 0 60 718 60 hstem
          81 60 718 60 58 callsubr
          778 60 rmoveto
          -718 718 718 hlineto
          endchar
        </CharString>
        <CharString name="Hbar">
          62 callgsubr
          86 60 121 39 hstem
          22 774 vstem
          680 hmoveto
          5 39 -54 11 rlineto
          -16 4 -4 12 12 vvcurveto
          8 2 9 1 6 vhcurveto
          66 372 rlineto
          95 hlineto
          16 60 rlineto
          -101 hlineto
          15 83 2 12 2 -30 callsubr
          -1 -8 -2 -9 vhcurveto
          -10 -59 rlineto
          -312 hlineto
          15 83 2 12 2 -30 callsubr
          -1 -8 -2 -9 vhcurveto
          -10 -59 rlineto
          -90 hlineto
          -16 -60 rlineto
          95 hlineto
          -65 -372 -7 -39 -3 -68 callsubr
          249 vlineto
          5 39 -51 10 rlineto
          -18 4 -5 10 13 vvcurveto
          5 2 18 1 4 vhcurveto
          40 224 rlineto
          312 hlineto
          -40 -226 -7 -39 -3 -68 callsubr
          vlineto
          136 387 rmoveto
          -312 hlineto
          15 86 rlineto
          312 hlineto
          endchar
        </CharString>
        <CharString name="Hcircumflex">
          62 callgsubr
          267 39 hstem
          22 774 vstem
          643 -89 callgsubr
          67 -749 rmoveto
          5 39 -54 11 rlineto
          -16 4 -4 12 12 vvcurveto
          8 2 9 1 6 vhcurveto
          91 515 2 12 2 -30 callsubr
          -1 -8 -2 -9 vhcurveto
          -36 -205 rlineto
          -312 hlineto
          41 229 2 12 2 -30 callsubr
          -1 -8 -2 -9 vhcurveto
          -86 -47 callgsubr
          249 vlineto
          5 39 -51 10 rlineto
          -18 4 -5 10 13 vvcurveto
          5 2 18 1 4 vhcurveto
          40 224 rlineto
          312 hlineto
          -40 -226 -7 -39 -3 -68 callsubr
          vlineto
          endchar
        </CharString>
        <CharString name="I">
          26 callsubr
          hstem
          22 366 vstem
          271 34 callsubr
          91 514 2 12 3 -30 callsubr
          -2 -9 -1 -8 vhcurveto
          -87 -47 callgsubr
          vlineto
          endchar
        </CharString>
        <CharString name="IJ">
          253 -129 94 35 63 callgsubr
          hstem
          22 715 vstem
          467 210 rmoveto
          -131 -23 -20 -114 -43 -32 callgsubr
          51 callsubr
          132 84 146 217 39 hvcurveto
          69 388 1 8 7 9 15 3 rlinecurve
          74 -51 callsubr
          -272 hlineto
          -46 callsubr
          60 -11 17 -9 -25 vvcurveto
          -5 -1 -6 -1 -6 vhcurveto
          -263 -592 rmoveto
          5 39 -47 9 rlineto
          -20 4 -7 9 15 vvcurveto
          7 1 8 2 11 vhcurveto
          91 514 2 12 3 -30 callsubr
          -2 -9 -1 -8 vhcurveto
          -87 -47 callgsubr
          vlineto
          endchar
        </CharString>
        <CharString name="Iacute">
          26 callsubr
          hstem
          22 425 vstem
          435 -73 callsubr
          54 -749 rmoveto
          5 39 -47 9 rlineto
          -20 4 -7 9 15 vvcurveto
          7 1 8 2 11 vhcurveto
          91 514 2 12 3 -30 callsubr
          -2 -9 -1 -8 vhcurveto
          -87 -47 callgsubr
          vlineto
          endchar
        </CharString>
        <CharString name="Icircumflex">
          26 callsubr
          hstem
          22 423 vstem
          445 -89 callgsubr
          -144 -749 rmoveto
          5 39 -47 9 rlineto
          -20 4 -7 9 15 vvcurveto
          7 1 8 2 11 vhcurveto
          91 514 2 12 3 -30 callsubr
          -2 -9 -1 -8 vhcurveto
          -87 -47 callgsubr
          vlineto
          endchar
        </CharString>
        <CharString name="Idieresis">
          26 callsubr
          82 110 hstem
          131 32 callsubr
          vstem
          371 775 rmoveto
          34 27 -97 callgsubr
          28 hvcurveto
          -193 hmoveto
          34 27 -97 callgsubr
          28 hvcurveto
          93 -775 rmoveto
          5 39 -47 9 rlineto
          -20 4 -7 9 15 vvcurveto
          7 1 8 2 11 vhcurveto
          91 514 2 12 3 -30 callsubr
          -2 -9 -1 -8 vhcurveto
          -87 -47 callgsubr
          vlineto
          endchar
        </CharString>
        <CharString name="Idotaccent">
          26 callsubr
          90 111 hstem
          233 112 vstem
          345 839 rmoveto
          -80 callgsubr
          -74 -839 rmoveto
          5 39 -47 9 rlineto
          -20 4 -7 9 15 vvcurveto
          7 1 8 2 11 vhcurveto
          91 514 2 12 3 -30 callsubr
          -2 -9 -1 -8 vhcurveto
          -87 -47 callgsubr
          vlineto
          endchar
        </CharString>
        <CharString name="Igrave">
          26 callsubr
          hstem
          22 366 vstem
          310 -49 callsubr
          145 -842 rmoveto
          5 39 -47 9 rlineto
          -20 4 -7 9 15 vvcurveto
          7 1 8 2 11 vhcurveto
          91 514 2 12 3 -30 callsubr
          -2 -9 -1 -8 vhcurveto
          -87 -47 callgsubr
          vlineto
          endchar
        </CharString>
        <CharString name="Imacron">
          26 callsubr
          111 60 hstem
          22 391 vstem
          402 804 -59 callsubr
          118 -804 rmoveto
          5 39 -47 9 rlineto
          -20 4 -7 9 15 vvcurveto
          7 1 8 2 11 vhcurveto
          91 514 2 12 3 -30 callsubr
          -2 -9 -1 -8 vhcurveto
          -87 -47 callgsubr
          vlineto
          endchar
        </CharString>
        <CharString name="Iogonek">
          -85 -215 56 159 63 callgsubr
          hstem
          22 85 vstem
          215 3 callsubr
          49 85 3 hvcurveto
          5 39 -47 9 rlineto
          -20 4 -7 9 15 vvcurveto
          7 1 8 2 11 vhcurveto
          91 514 2 12 3 -30 callsubr
          -2 -9 -1 -8 vhcurveto
          -87 -47 callgsubr
          120 14 callgsubr
          endchar
        </CharString>
        <CharString name="Itilde">
          26 callsubr
          85 78 -51 78 hstemhm
          22 455 42 callgsubr
          454 10 callgsubr
          hintmask 11011000
          -53 callsubr
          hintmask 11101000
          -7 callsubr
          -206 -879 rmoveto
          5 39 -47 9 rlineto
          -20 4 -7 9 15 vvcurveto
          7 1 8 2 11 vhcurveto
          91 514 2 12 3 -30 callsubr
          -2 -9 -1 -8 vhcurveto
          -87 -47 callgsubr
          vlineto
          endchar
        </CharString>
        <CharString name="J">
          -87 -129 94 689 39 hstem
          -73 470 vstem
          127 210 rmoveto
          -131 -23 -20 -114 -43 -32 callgsubr
          51 callsubr
          132 84 146 217 39 hvcurveto
          69 388 1 8 7 9 15 3 rlinecurve
          74 -51 callsubr
          -272 hlineto
          -46 callsubr
          60 -11 17 -9 -25 vvcurveto
          -5 -1 -6 -1 -6 vhcurveto
          endchar
        </CharString>
        <CharString name="Jcircumflex">
          -87 -129 94 689 39 hstem
          -73 519 vstem
          446 -89 callgsubr
          -289 -539 rmoveto
          -131 -23 -20 -114 -43 -32 callgsubr
          51 callsubr
          132 84 146 217 39 hvcurveto
          69 388 1 8 7 9 15 3 rlinecurve
          74 -51 callsubr
          -272 hlineto
          -46 callsubr
          60 -11 17 -9 -25 vvcurveto
          -5 -1 -6 -1 -6 vhcurveto
          endchar
        </CharString>
        <CharString name="K">
          247 0 63 callgsubr
          hstem
          20 717 vstem
          644 hmoveto
          5 39 -52 4 -17 13 -16 24 rlinecurve
          -198 287 282 241 18 15 22 26 46 2 rlinecurve
          3 42 rlineto
          -219 hlineto
          -6 -40 rlineto
          51 -2 13 -6 -11 vvcurveto
          -8 -8 -8 -12 -10 vhcurveto
          -307 -256 47 264 2 12 2 -30 callsubr
          -1 -8 -2 -9 vhcurveto
          -86 -491 -7 -39 -5 -68 callsubr
          244 vlineto
          5 39 -40 9 rlineto
          -20 4 -7 9 15 vvcurveto
          7 1 8 2 11 vhcurveto
          27 151 57 49 205 -302 rlineto
          endchar
        </CharString>
        <CharString name="Kcommaaccent">
          247 -189 -21 210 63 callgsubr
          hstem
          283 95 vstem
          644 hmoveto
          5 39 -52 4 -17 13 -16 24 rlinecurve
          -198 287 282 241 18 15 22 26 46 2 rlinecurve
          3 42 rlineto
          -219 hlineto
          -6 -40 rlineto
          51 -2 13 -6 -11 vvcurveto
          -8 -8 -8 -12 -10 vhcurveto
          -307 -256 47 264 2 12 2 -30 callsubr
          -1 -8 -2 -9 vhcurveto
          -86 -491 -7 -39 -5 -68 callsubr
          244 vlineto
          5 39 -40 9 rlineto
          -20 4 -7 9 15 vvcurveto
          7 1 8 2 11 vhcurveto
          27 151 57 49 205 -302 rlineto
          -234 -210 rmoveto
          -96 callsubr
        </CharString>
        <CharString name="L">
          137 0 51 603 39 hstem
          20 534 vstem
          507 hmoveto
          -45 callsubr
        </CharString>
        <CharString name="Lacute">
          137 0 51 603 39 hstem
          20 534 vstem
          440 -73 callsubr
          285 -749 rmoveto
          -45 callsubr
        </CharString>
        <CharString name="Lcaron">
          137 0 51 603 39 hstem
          20 562 vstem
          484 -42 callgsubr
          62 -591 rmoveto
          -45 callsubr
        </CharString>
        <CharString name="Lcommaaccent">
          137 -189 -21 210 51 603 39 hstem
          228 95 vstem
          507 hmoveto
          12 39 16 57 11 61 3 17 3 17 2 17 -54 5 rcurveline
          -59 -132 -14 -19 -11 -3 -7 -2 8 -3 -132 -2 -89 -1 rcurveline
          100 565 2 12 2 -30 callsubr
          -1 -8 -2 -9 vhcurveto
          -86 -491 -7 -39 -5 -68 callsubr
          vlineto
          185 -210 rmoveto
          -96 callsubr
        </CharString>
        <CharString name="Ldotaccent">
          137 0 51 283 115 205 39 hstem
          374 118 vstem
          507 hmoveto
          12 39 16 57 11 61 3 17 3 17 2 17 -54 5 rcurveline
          -59 -132 -14 -19 -11 -3 -7 -2 8 -3 -132 -2 -89 -1 rcurveline
          100 565 2 12 2 -30 callsubr
          -1 -8 -2 -9 vhcurveto
          -86 -491 -7 -39 -5 -68 callsubr
          vlineto
          405 334 6 callgsubr
        </CharString>
        <CharString name="Lslash">
          137 0 51 436 -20 187 39 hstem
          20 534 vstem
          507 hmoveto
          12 39 16 57 11 61 3 17 3 17 2 17 -54 5 rcurveline
          -59 -132 -14 -19 -11 -3 -7 -2 8 -3 -132 -2 -89 -1 rcurveline
          48 274 203 119 -20 43 -172 -101 41 230 2 12 2 -30 callsubr
          -1 -8 -2 -9 vhcurveto
          -48 -269 -110 -65 20 -43 80 47 -28 -161 -7 -39 -5 -68 callsubr
          vlineto
          endchar
        </CharString>
        <CharString name="M">
          451 0 43 -23 122 512 39 hstemhm
          109 64 470 96 hintmask 00000000
          hintmask 10101000
          808 34 callsubr
          77 517 1 10 3 8 18 5 rlinecurve
          44 12 2 39 rlineto
          -197 hlineto
          hintmask 01110000
          -247 -531 -2 -5 -4 -7 -2 -8 rlinecurve
          -10 hlineto
          11 -2 8 -1 6 vhcurveto
          -84 526 rlineto
          -210 hlineto
          -5 -39 rlineto
          56 -10 12 -9 -21 vvcurveto
          -6 -1 -7 -1 -9 vhcurveto
          -80 -491 rlineto
          hintmask 10110000
          -6 -39 -10 -10 -76 -13 rrcurveto
          -39 238 vlineto
          5 39 -60 9 rlineto
          -20 3 -7 10 15 vvcurveto
          7 1 8 2 11 vhcurveto
          80 488 rlineto
          7 hlineto
          hintmask 01101000
          95 -570 rlineto
          85 hlineto
          269 568 rlineto
          8 hlineto
          -4 -10 -2 -9 -3 -19 rrcurveto
          hintmask 10101000
          -68 -457 -5 -31 -11 -11 -70 -12 rlinecurve
          -39 vlineto
          endchar
        </CharString>
        <CharString name="N">
          -2 callgsubr
          589 hmoveto
          hintmask 11101000
          -101 callsubr
          endchar
        </CharString>
        <CharString name="Nacute">
          -2 callgsubr
          628 -73 callsubr
          179 -749 rmoveto
          hintmask 11101000
          -101 callsubr
          endchar
        </CharString>
        <CharString name="Ncaron">
          -2 callgsubr
          633 -74 callgsubr
          113 -752 rmoveto
          hintmask 11101000
          -101 callsubr
          endchar
        </CharString>
        <CharString name="Ncommaaccent">
          316 -189 -21 210 44 610 39 hstem
          20 152 146 95 213 161 vstem
          589 hmoveto
          -101 callsubr
          -232 -210 rmoveto
          -96 callsubr
        </CharString>
        <CharString name="Ntilde">
          316 0 44 610 39 85 78 -51 78 hstemhm
          20 152 -152 769 -163 161 hintmask 00000000
          hintmask 11100100
          657 10 callgsubr
          hintmask 11010100
          -53 callsubr
          hintmask 11100100
          -7 callsubr
          -91 -879 rmoveto
          hintmask 11101010
          -101 callsubr
          endchar
        </CharString>
        <CharString name="O">
          -25 callgsubr
          308 -9 -102 callgsubr
        </CharString>
        <CharString name="OE">
          545 -9 53 -53 60 269 53 267 52 -43 53 hstemhm
          60 112 622 37 69 59 hintmask 00000000
          hintmask 10101111
          868 184 rmoveto
          hintmask 01101111
          -38 callsubr
          hintmask 10110111
          -65 callsubr
          hintmask 10101111
          -260 -274 9 -25 hhcurveto
          -232 -131 -182 -246 -161 84 -122 164 hvcurveto
          28 296 9 249 hhcurveto
          -57 callgsubr
          rrcurveto
          -425 13 rmoveto
          -136 -24 -28 -12 -115 hhcurveto
          -108 -51 108 132 157 55 208 172 128 34 -10 -64 -22 -5 -27 -6 -36 hvcurveto
          endchar
        </CharString>
        <CharString name="Oacute">
          -25 callgsubr
          578 -73 callsubr
          -52 -758 -102 callgsubr
        </CharString>
        <CharString name="Ocircumflex">
          -25 callgsubr
          588 -89 callgsubr
          -250 -758 -102 callgsubr
        </CharString>
        <CharString name="Odieresis">
          249 -9 53 605 53 73 110 hstemhm
          60 112 102 32 callsubr
          -16 113 hintmask 00000000
          hintmask 11010010
          514 775 rmoveto
          34 27 -97 callgsubr
          28 hvcurveto
          -193 hmoveto
          34 27 -97 callgsubr
          28 hvcurveto
          hintmask 11111100
          -13 -784 -102 callgsubr
        </CharString>
        <CharString name="Ograve">
          -25 callgsubr
          453 -49 callsubr
          39 -851 -102 callgsubr
        </CharString>
        <CharString name="Ohungarumlaut">
          -25 callgsubr
          705 -20 callgsubr
          -1 -760 -102 callgsubr
        </CharString>
        <CharString name="Omacron">
          249 -9 53 605 53 102 60 hstem
          60 112 387 113 vstem
          545 804 -59 callsubr
          12 -813 -102 callgsubr
        </CharString>
        <CharString name="Omega">
          297 0 77 572 53 hstem
          97 109 388 116 vstem
          608 hmoveto
          31 48 27 61 17 57 -50 5 rcurveline
          -52 -81 -8 -8 -13 -1 rrcurveto
          -1 -7 -29 -3 -29 hhcurveto
          -31 hlineto
          -1 7 7 3 13 6 15 13 rlinecurve
          159 144 53 111 119 vvcurveto
          131 -94 91 -163 -222 -134 -146 -200 -81 28 -86 70 -86 vhcurveto
          8 -10 10 -6 8 -3 -5 -7 rcurveline
          -26 hlineto
          -28 -28 3 1 -7 hvcurveto
          -13 1 -4 8 -23 81 -52 -5 rcurveline
          -1 -13 0 -13 -13 vvcurveto
          -43 4 -45 10 -39 vhcurveto
          237 hlineto
          16 32 rlineto
          -43 94 -52 94 121 vvcurveto
          130 58 178 168 108 54 -88 -109 -171 -105 -122 -121 -127 vhcurveto
          4 -32 rlineto
          endchar
        </CharString>
        <CharString name="Oslash">
          250 -9 53 605 53 -26 -20 hstemhm
          61 112 387 113 55 callgsubr
          121 -80 rmoveto
          64 100 rlineto
          -19 34 42 -10 48 hhcurveto
          233 131 187 247 hvcurveto
          hintmask 10111000
          91 -29 80 -58 50 vhcurveto
          68 106 -52 20 -61 -96 rlineto
          hintmask 11011000
          17 -33 -39 9 -45 hhcurveto
          -232 -131 -182 -246 -92 27 -79 54 -51 hvcurveto
          -72 -112 rlineto
          128 200 rmoveto
          -17 40 -8 50 54 vvcurveto
          157 55 208 172 40 33 -15 -25 25 vhcurveto
          33 -49 rmoveto
          20 -40 9 -51 -55 vvcurveto
          -154 -53 -216 -175 -43 -34 17 29 -25 vhcurveto
          endchar
        </CharString>
        <CharString name="Otilde">
          249 -9 53 605 53 76 78 -51 78 hstemhm
          60 112 387 113 hintmask 00000000
          hintmask 11101100
          607 10 callgsubr
          hintmask 11011100
          -53 callsubr
          hintmask 11101100
          -7 callsubr
          -322 -888 -102 callgsubr
        </CharString>
        <CharString name="P">
          145 0 44 224 53 319 53 hstem
          484 110 vstem
          310 hmoveto
          5 39 -90 11 rlineto
          -19 2 -4 12 13 vvcurveto
          6 1 7 1 5 vhcurveto
          30 173 rlineto
          50 hlineto
          205 105 134 137 90 -60 64 -124 hvcurveto
          -275 -103 callsubr
          -4 -68 callsubr
          vlineto
          223 321 rmoveto
          52 295 rlineto
          12 2 3 12 19 hhcurveto
          54 hlineto
          43 67 -19 -95 -169 -112 -36 -86 hvcurveto
          endchar
        </CharString>
        <CharString name="Q">
          250 -152 78 84 34 605 53 hstem
          62 113 385 113 vstem
          606 -59 rmoveto
          -8 -22 -19 -7 -19 hhcurveto
          -44 -36 63 17 -43 hvcurveto
          1 4 rlineto
          155 46 94 163 206 vvcurveto
          166 -95 111 -154 -231 -131 -182 -247 -159 77 -105 136 -16 vhcurveto
          -17 142 -7 -128 90 hhcurveto
          46 41 30 27 37 hvcurveto
          -289 139 rmoveto
          -110 -50 103 137 157 55 208 171 104 55 -101 -134 -156 -56 -214 -169 hvcurveto
          endchar
        </CharString>
        <CharString name="R">
          40 callsubr
          577 hmoveto
          -98 callgsubr
          endchar
        </CharString>
        <CharString name="Racute">
          40 callsubr
          565 -73 callsubr
          230 -749 rmoveto
          -98 callgsubr
          endchar
        </CharString>
        <CharString name="Rcaron">
          40 callsubr
          576 -74 callgsubr
          158 -752 rmoveto
          -98 callgsubr
          endchar
        </CharString>
        <CharString name="Rcommaaccent">
          191 -189 -21 210 35 callsubr
          285 95 99 109 vstem
          577 hmoveto
          -98 callgsubr
          -33 -565 rmoveto
          -96 callsubr
        </CharString>
        <CharString name="S">
          -22 callgsubr
          hintmask 10101010
          466 506 -100 callsubr
        </CharString>
        <CharString name="Sacute">
          -22 callgsubr
          hintmask 10101100
          520 -73 callsubr
          hintmask 10101010
          164 -243 -100 callsubr
        </CharString>
        <CharString name="Scaron">
          -22 callgsubr
          hintmask 10101100
          531 -74 callgsubr
          hintmask 10101010
          92 -246 -100 callsubr
        </CharString>
        <CharString name="Scedilla">
          78 39 callsubr
          36 56 599 56 -27 -20 hstemhm
          15 92 -2 91 35 86 39 100 -44 92 hintmask 0000000000000000
          hintmask 1110101110000000
          123 -217 rmoveto
          -52 callsubr
          19 40 rlineto
          140 13 82 96 114 vvcurveto
          95 -56 48 -72 35 vhcurveto
          -66 32 -66 31 73 vvcurveto
          hintmask 1111001101000000
          52 33 29 15 11 vhcurveto
          13 18 24 11 39 hhcurveto
          33 31 -8 -13 13 hvcurveto
          46 callgsubr
          rlineto
          hintmask 1110101101000000
          20 56 15 56 3 57 rrcurveto
          hintmask 1111001101000000
          12 -27 -48 15 -63 hhcurveto
          -155 -106 -91 -128 -93 57 -39 67 -36 hvcurveto
          hintmask 1110110110000000
          50 -27 77 -30 -83 vvcurveto
          -34 -13 -43 -37 -27 vhcurveto
          -13 -18 -25 -11 -35 hhcurveto
          -50 -46 22 13 -15 hvcurveto
          -6 5 -4 7 29 vvcurveto
          20 2 24 2 36 vhcurveto
          -58 -3 rlineto
          -22 -56 -16 -54 -56 vvcurveto
          21 -13 65 -26 79 -4 -38 -80 rcurveline
          -44 callgsubr
          -33 -43 -23 -63 -8 hvcurveto
          endchar
        </CharString>
        <CharString name="Scircumflex">
          -22 callgsubr
          hintmask 10101100
          530 -89 callgsubr
          hintmask 10101010
          -34 -243 -100 callsubr
        </CharString>
        <CharString name="Scommaaccent">
          77 45 callsubr
          56 599 56 -27 -20 hstemhm
          15 92 -2 91 -27 95 92 100 -44 92 hintmask 0000000000000000
          hintmask 1101010010000000
          466 506 rmoveto
          20 56 15 56 3 57 rrcurveto
          hintmask 1110010010000000
          12 -27 -48 15 -63 hhcurveto
          -155 -106 -91 -128 -93 57 -39 67 -36 hvcurveto
          hintmask 1101100100000000
          50 -27 77 -30 -83 vvcurveto
          -34 -13 -43 -37 -27 vhcurveto
          -13 -18 -25 -11 -35 hhcurveto
          -50 -46 22 13 -15 hvcurveto
          -6 5 -4 7 29 vvcurveto
          20 2 24 2 36 vhcurveto
          -58 -3 rlineto
          -22 -56 -16 -54 -56 vvcurveto
          -14 23 74 -29 87 hhcurveto
          162 95 102 123 95 -56 48 -72 35 hvcurveto
          hintmask 1110010010000000
          -66 32 -66 31 73 vvcurveto
          52 33 29 15 11 vhcurveto
          13 18 24 11 39 hhcurveto
          33 31 -8 -13 13 hvcurveto
          6 -6 4 -9 -29 vvcurveto
          -20 -2 -25 -3 -37 vhcurveto
          -261 -709 rmoveto
          hintmask 1101001100000000
          -96 callsubr
        </CharString>
        <CharString name="T">
          156 0 28 callgsubr
          hstem
          228 94 256 52 vstem
          406 hmoveto
          -48 callsubr
        </CharString>
        <CharString name="Tbar">
          156 0 28 callgsubr
          111 60 hstem
          228 94 256 52 vstem
          524 804 -59 callsubr
          131 -804 -50 callsubr
        </CharString>
        <CharString name="Tcaron">
          156 0 28 callgsubr
          hstem
          228 94 256 52 vstem
          568 -74 callgsubr
          -5 -752 -50 callsubr
        </CharString>
        <CharString name="Tcedilla">
          156 39 callsubr
          45 28 callgsubr
          hstemhm
          228 94 -49 86 219 52 hintmask 00000000
          hintmask 11111101
          406 hmoveto
          -95 callgsubr
          hintmask 11111011
          101 hlineto
          -42 -89 -44 callgsubr
          -33 -43 -23 -63 -8 hvcurveto
          -2 -31 rlineto
          121 6 73 55 57 vvcurveto
          33 -26 21 -48 vhcurveto
          hintmask 11111101
          -8 -10 0 -2 -10 hvcurveto
          22 47 rlineto
          endchar
        </CharString>
        <CharString name="Tcommaaccent">
          156 -189 -21 210 28 callgsubr
          hstemhm
          201 95 -68 94 256 52 hintmask 00000000
          hintmask 11110110
          406 hmoveto
          -95 callgsubr
          53 -210 rmoveto
          hintmask 11111010
          -96 callsubr
        </CharString>
        <CharString name="Thorn">
          118 0 39 123 53 289 53 97 39 hstem
          439 110 vstem
          271 34 callsubr
          10 60 rlineto
          45 hlineto
          191 98 125 127 84 -56 59 -117 hvcurveto
          -91 hlineto
          11 59 2 12 3 -30 callsubr
          -2 -9 -1 -8 vhcurveto
          -87 -47 callgsubr
          vlineto
          203 215 rmoveto
          39 221 8 44 rlineto
          12 2 3 12 19 hhcurveto
          46 hlineto
          38 59 -17 -86 -153 -100 -33 -77 hvcurveto
          endchar
        </CharString>
        <CharString name="U">
          -26 callsubr
          546 249 -105 callsubr
        </CharString>
        <CharString name="Uacute">
          -26 callsubr
          638 -73 callsubr
          126 -500 -105 callsubr
        </CharString>
        <CharString name="Ucircumflex">
          -26 callsubr
          648 -89 callgsubr
          -72 -500 -105 callsubr
        </CharString>
        <CharString name="Udieresis">
          298 -9 73 590 39 82 110 hstemhm
          127 100 107 32 callsubr
          -29 161 hintmask 00000000
          hintmask 11111100
          574 775 rmoveto
          34 27 -97 callgsubr
          28 hvcurveto
          -193 hmoveto
          34 27 -97 callgsubr
          28 hvcurveto
          165 -526 rmoveto
          -86 -15 -49 -99 -122 hhcurveto
          -92 -41 53 79 22 3 21 4 25 hvcurveto
          62 352 2 12 2 -93 callgsubr
          -252 hlineto
          -46 callsubr
          53 -10 15 -6 -23 vvcurveto
          -6 -1 -8 -2 -9 vhcurveto
          -60 -343 rlineto
          -5 -28 -2 -26 -20 vvcurveto
          -116 66 -68 135 164 92 98 168 30 vhcurveto
          hintmask 11111010
          64 359 2 13 1 9 21 -81 callgsubr
          -242 hlineto
          -46 callsubr
          67 -8 18 -10 -33 vvcurveto
          -8 -6 callgsubr
          endchar
        </CharString>
        <CharString name="Ugrave">
          -26 callsubr
          513 -49 callsubr
          217 -593 -105 callsubr
        </CharString>
        <CharString name="Uhungarumlaut">
          -26 callsubr
          765 -20 callgsubr
          177 -502 -105 callsubr
        </CharString>
        <CharString name="Umacron">
          298 -9 73 590 39 111 60 hstem
          127 100 379 161 vstem
          605 804 -59 callsubr
          190 -555 -105 callsubr
        </CharString>
        <CharString name="Uogonek">
          298 -215 56 174 -21 660 39 hstemhm
          127 100 -50 85 344 161 41 callsubr
          370 -149 rmoveto
          hintmask 11101100
          -9 -27 -9 -1 -25 hhcurveto
          -28 -19 15 28 54 58 46 68 12 hvcurveto
          128 22 71 92 27 147 64 359 rcurveline
          2 13 1 9 21 4 64 12 rcurveline
          3 39 rlineto
          -242 hlineto
          -46 callsubr
          67 -8 18 -10 -33 vvcurveto
          -8 -6 callgsubr
          -57 -324 rlineto
          -86 -15 -49 -99 -122 hhcurveto
          hintmask 11110000
          -92 -41 53 79 22 3 21 4 25 hvcurveto
          62 352 2 12 2 -93 callgsubr
          -252 hlineto
          -46 callsubr
          53 -10 15 -6 -23 vvcurveto
          -6 -1 -8 -2 -9 vhcurveto
          -60 -343 rlineto
          -5 -28 -2 -26 -20 vvcurveto
          -102 51 -65 104 -14 vhcurveto
          hintmask 11101000
          -67 -33 -38 -53 -46 vvcurveto
          -46 38 -31 45 24 47 9 37 48 vhcurveto
          endchar
        </CharString>
        <CharString name="Uring">
          298 -9 73 590 39 46 43 94 43 hstemhm
          127 100 148 49 101 51 30 161 hintmask 00000000
          hintmask 11111110
          576 -43 callsubr
          21 -589 rmoveto
          -86 -15 -49 -99 -122 hhcurveto
          -92 -41 53 79 22 3 21 4 25 hvcurveto
          62 352 2 12 2 -93 callgsubr
          -252 hlineto
          -46 callsubr
          53 -10 15 -6 -23 vvcurveto
          -6 -1 -8 -2 -9 vhcurveto
          -60 -343 rlineto
          -5 -28 -2 -26 -20 vvcurveto
          -116 66 -68 135 164 92 98 168 30 vhcurveto
          hintmask 11111111
          64 359 2 13 1 9 21 -81 callgsubr
          -242 hlineto
          -46 callsubr
          67 -8 18 -10 -33 vvcurveto
          -8 -6 callgsubr
          endchar
        </CharString>
        <CharString name="Utilde">
          298 -9 73 590 39 85 78 -51 78 hstemhm
          127 100 379 161 42 callgsubr
          642 10 callgsubr
          hintmask 11011000
          -53 callsubr
          hintmask 11101100
          -7 callsubr
          -119 -630 -105 callsubr
        </CharString>
        <CharString name="V">
          217 -9 133 529 40 hstem
          83 634 vstem
          342 -9 rmoveto
          291 604 17 34 4 10 60 12 rlinecurve
          3 42 rlineto
          -211 hlineto
          -5 -40 rlineto
          42 -9 26 -7 -15 vvcurveto
          -9 -7 -12 -15 -32 vhcurveto
          -209 -445 rlineto
          -10 hlineto
          4 -1 16 -3 14 vhcurveto
          -80 453 rlineto
          -1 5 0 7 2 vvcurveto
          3 2 50 callgsubr
          73 19 3 41 rlineto
          -238 hlineto
          -6 -40 44 -11 10 -2 6 -30 rlinecurve
          121 -619 rlineto
          endchar
        </CharString>
        <CharString name="W">
          -18 callsubr
          636 -9 -65 callgsubr
          hintmask 11010000
          -104 callsubr
        </CharString>
        <CharString name="Wacute">
          -18 callsubr
          716 -73 callsubr
          138 -758 -65 callgsubr
          hintmask 11010000
          -104 callsubr
        </CharString>
        <CharString name="Wcircumflex">
          -18 callsubr
          726 -89 callgsubr
          -60 -758 -65 callgsubr
          hintmask 11010000
          -104 callsubr
        </CharString>
        <CharString name="Wdieresis">
          524 -9 137 524 41 82 110 hstemhm
          412 108 -27 80 32 108 hintmask 00000000
          hintmask 11110100
          652 775 rmoveto
          34 27 -97 callgsubr
          28 hvcurveto
          -193 hmoveto
          34 27 -97 callgsubr
          28 hvcurveto
          177 -784 -65 callgsubr
          hintmask 11101100
          -104 callsubr
        </CharString>
        <CharString name="Wgrave">
          -18 callsubr
          591 -49 callsubr
          229 -851 -65 callgsubr
          hintmask 11010000
          -104 callsubr
        </CharString>
        <CharString name="X">
          179 0 40 612 41 hstem
          -38 717 vstem
          582 hmoveto
          5 42 -41 8 -15 5 -7 13 rlinecurve
          -144 290 208 241 26 30 2 10 60 12 rlinecurve
          3 42 rlineto
          -206 hlineto
          -6 -40 rlineto
          40 -9 16 -6 -13 vvcurveto
          -11 -13 -15 -20 -23 vhcurveto
          -140 -162 rlineto
          -10 hlineto
          4 -1 14 -4 9 vhcurveto
          -84 170 rlineto
          -2 4 -3 6 4 vvcurveto
          4 3 50 callgsubr
          70 18 3 41 rlineto
          -241 hlineto
          -7 -40 44 -11 4 -5 13 -27 rlinecurve
          131 -269 -223 -260 -21 -25 -13 -3 -53 -13 rlinecurve
          -40 204 vlineto
          5 41 -44 14 rlineto
          -6 2 -3 3 4 vvcurveto
          5 3 6 9 9 vhcurveto
          173 202 rlineto
          10 hlineto
          -4 0 -15 5 -11 vhcurveto
          83 -166 rlineto
          3 -6 1 -6 -5 vvcurveto
          -23 -36 -5 -30 -5 vhcurveto
          -40 vlineto
          endchar
        </CharString>
        <CharString name="Y">
          17 callsubr
          420 hmoveto
          -103 callgsubr
        </CharString>
        <CharString name="Yacute">
          17 callsubr
          574 -73 callsubr
          64 -749 rmoveto
          -103 callgsubr
        </CharString>
        <CharString name="Ycircumflex">
          17 callsubr
          584 -89 callgsubr
          -134 -749 rmoveto
          -103 callgsubr
        </CharString>
        <CharString name="Ydieresis">
          177 0 39 613 41 82 110 hstemhm
          242 94 -66 32 callsubr
          hintmask 00000000
          hintmask 11110100
          510 775 rmoveto
          34 27 -97 callgsubr
          28 hvcurveto
          hintmask 11101100
          -193 hmoveto
          34 27 -97 callgsubr
          28 hvcurveto
          hintmask 11110100
          103 -775 rmoveto
          -103 callgsubr
        </CharString>
        <CharString name="Ygrave">
          17 callsubr
          449 -49 callsubr
          155 -842 rmoveto
          -103 callgsubr
        </CharString>
        <CharString name="Z">
          20 callsubr
          528 hmoveto
          -91 callsubr
        </CharString>
        <CharString name="Zacute">
          20 callsubr
          576 -73 callsubr
          170 -749 rmoveto
          -91 callsubr
        </CharString>
        <CharString name="Zcaron">
          20 callsubr
          587 -74 callgsubr
          98 -752 rmoveto
          -91 callsubr
        </CharString>
        <CharString name="Zdotaccent">
          188 0 52 465 -20 145 51 90 111 hstem
          377 112 vstem
          489 839 rmoveto
          -80 callgsubr
          39 -839 rmoveto
          -91 callsubr
        </CharString>
        <CharString name="_TT">
          613 0 28 callgsubr
          hstem
          228 94 363 94 256 52 vstem
          863 hmoveto
          5 39 -66 11 rlineto
          -19 2 -4 12 13 vvcurveto
          6 1 7 1 5 vhcurveto
          96 546 131 -2 2 -2 7 -3 rlinecurve
          9 -4 9 -6 -111 vvcurveto
          52 4 15 59 5 59 3 58 rlinecurve
          -1002 hlineto
          -18 -59 -13 -58 -8 -59 50 -4 rcurveline
          40 111 11 6 11 4 7 3 4 2 131 2 -95 -540 rcurveline
          -7 -39 -5 -9 -91 -14 rrcurveto
          -39 281 vlineto
          5 39 -66 11 rlineto
          -19 2 -4 12 13 vvcurveto
          6 1 7 1 5 vhcurveto
          96 546 rlineto
          360 hlineto
          -95 -540 -7 -39 -5 -9 -91 42 callsubr
        </CharString>
        <CharString name="_em">
          579 -224 1000 hstem
          -69 1176 vstem
          930 -224 rmoveto
          177 1000 rlineto
          -1000 hlineto
          -176 -1000 rlineto
          endchar
        </CharString>
        <CharString name="_f_iacute">
          151 -32 callsubr
          428 60 5 -20 252 56 hstemhm
          -111 788 -296 86 -67 71 hintmask 0000000000000000
          hintmask 1010011010000000
          543 -35 callgsubr
          hintmask 1001101010000000
          -106 65 callsubr
          hintmask 1001101001000000
          5 5 18 5 28 hhcurveto
          43 2 -15 -25 -19 -1 2 -1 -21 50 callsubr
          42 8 56 25 vvcurveto
          7 -23 -33 4 -25 hhcurveto
          -132 -90 -109 -152 -29 hvcurveto
          -71 callgsubr
          -15 -39 13 -12 hhcurveto
          hintmask 0101101100000000
          12 callgsubr
          hvcurveto
          hintmask 1001101010000000
          -24 callgsubr
          106 hlineto
          99 19 -7 -23 -8 -3 -14 -2 -11 hvcurveto
          -39 -217 -71 callsubr
          113 665 rmoveto
          4 23 -78 30 -140 -179 34 -25 rlineto
          endchar
        </CharString>
        <CharString name="_fb">
          408 1 callgsubr
          56 372 60 -58 67 233 51 hstemhm
          489 98 138 90 hintmask 00000000
          hintmask 10110101
          371 -1 callsubr
          hvcurveto
          hintmask 10101111
          -9 callgsubr
          hintmask 10110101
          -71 callgsubr
          hhcurveto
          hintmask 01110101
          -72 callsubr
          hintmask 10110111
          -95 callsubr
          -7 -1 -8 -1 -8 hvcurveto
          -103 -536 59 callgsubr
          hintmask 10101111
          -56 callgsubr
          hintmask 10110111
          31 callsubr
        </CharString>
        <CharString name="_ffb">
          724 1 callgsubr
          56 372 60 -58 67 198 56 -21 51 hstemhm
          375 71 359 98 138 90 hintmask 0000000000000000
          hintmask 1011001001000000
          687 -1 callsubr
          hvcurveto
          hintmask 1010101011000000
          -9 callgsubr
          hintmask 1011010101000000
          -3 -16 rlineto
          -8 -2 -4 -8 -14 hhcurveto
          -210 hlineto
          5 32 26 callgsubr
          rlinecurve
          5 4 15 4 23 hhcurveto
          40 3 -14 -24 -17 -1 2 -1 -20 50 callsubr
          40 8 54 24 vvcurveto
          7 -22 -33 4 -25 hhcurveto
          -87 -112 -59 -172 -28 hvcurveto
          -71 callgsubr
          hhcurveto
          hintmask 0111001001000000
          -72 callsubr
          hintmask 1011001001000000
          -88 callgsubr
          228 -84 callsubr
          hhcurveto
          hintmask 0111001001000000
          -72 callsubr
          hintmask 1011001011000000
          -95 callsubr
          -7 -1 -8 -1 -8 hvcurveto
          -103 -536 59 callgsubr
          hintmask 1010101011000000
          -56 callgsubr
          hintmask 1011001011000000
          31 callsubr
        </CharString>
        <CharString name="_ffh">
          756 -32 callsubr
          428 60 -58 67 198 56 -21 51 hstemhm
          375 71 529 85 -12 88 hintmask 0000000000000000
          hintmask 1010100111000000
          1137 -34 callsubr
          hintmask 1001010110100000
          -19 callsubr
          hintmask 1001101010100000
          -3 -16 rlineto
          -8 -2 -4 -8 -14 hhcurveto
          -210 hlineto
          5 32 26 callgsubr
          rlinecurve
          5 4 15 4 23 hhcurveto
          40 3 -14 -24 -17 -1 2 -1 -20 50 callsubr
          40 8 54 24 vvcurveto
          7 -22 -33 4 -25 hhcurveto
          -87 -112 -59 -172 -28 hvcurveto
          -71 callgsubr
          hhcurveto
          hintmask 0101100110100000
          -72 callsubr
          hintmask 1001100110100000
          -88 callgsubr
          228 -84 callsubr
          hhcurveto
          hintmask 0101100110100000
          -72 callsubr
          hintmask 1001100110100000
          -95 callsubr
          -9 -2 -10 -2 -12 hvcurveto
          -95 -496 -62 callsubr
          16 -13 21 7 36 63 callsubr
          hintmask 1001010110100000
          -67 callgsubr
          hintmask 1001100111000000
          -70 callgsubr
          endchar
        </CharString>
        <CharString name="_ffj">
          467 -38 callgsubr
          531 60 5 -20 222 56 -26 56 hstemhm
          -111 960 -474 71 320 71 hintmask 0000000000000000
          hintmask 1010011000000000
          704 121 18 callsubr
          -25 -27 13 -21 hhcurveto
          hintmask 0110011000000000
          -17 -24 -49 -35 51 callsubr
          hvcurveto
          hintmask 1001011000000000
          127 81 146 217 40 hvcurveto
          40 221 rlineto
          5 28 9 56 25 vvcurveto
          -9 10 rlineto
          -58 -58 -5 -80 hhcurveto
          -106 hlineto
          hintmask 1010011000000000
          20 callgsubr
          65 3 -18 -30 hvcurveto
          hintmask 1010010010000000
          -22 -1 2 -1 -25 vhcurveto
          53 hlineto
          12 47 8 63 28 vvcurveto
          7 -26 -38 4 -29 hhcurveto
          -158 -104 -89 -172 -27 hvcurveto
          -3 -16 rlineto
          -8 -2 -4 -8 -14 hhcurveto
          -210 hlineto
          5 32 26 callgsubr
          rlinecurve
          5 4 15 4 23 hhcurveto
          hintmask 1010100100000000
          40 3 -14 -24 -17 -1 2 -1 -20 50 callsubr
          40 8 54 24 vvcurveto
          7 -22 -33 4 -25 hhcurveto
          -87 -112 -59 -172 -28 hvcurveto
          -71 callgsubr
          -68 callgsubr
          -24 29 -3 18 hvcurveto
          hintmask 0110011000000000
          -24 callgsubr
          hintmask 1010011000000000
          228 -84 callsubr
          -68 callgsubr
          -24 29 -3 18 10 callsubr
          hintmask 0110011000000000
          44 275 rlineto
          106 hlineto
          hintmask 1010011000000000
          99 19 -7 -23 -8 -3 -14 -2 -11 hvcurveto
          endchar
        </CharString>
        <CharString name="_ffk">
          725 -32 callsubr
          422 75 -69 60 207 56 -21 51 hstemhm
          -111 1246 -760 71 hintmask 0000000000000000
          hintmask 1010100110000000
          1112 -75 callsubr
          31 158 5 28 6 35 1 20 rlinecurve
          17 -31 -48 19 -89 hhcurveto
          -130 -119 -68 -193 -31 hvcurveto
          hintmask 1001010110000000
          -3 -16 rlineto
          -8 -2 -4 -8 -14 hhcurveto
          -210 hlineto
          5 32 rlineto
          hintmask 1001011001000000
          26 callgsubr
          rrcurveto
          5 4 15 4 23 hhcurveto
          40 3 -14 -24 -17 -1 2 -1 -20 50 callsubr
          40 8 54 24 vvcurveto
          7 -22 -33 4 -25 hhcurveto
          -87 -112 -59 -172 -28 hvcurveto
          -71 callgsubr
          hhcurveto
          hintmask 0101010110000000
          -72 callsubr
          hintmask 1001010110000000
          -88 callgsubr
          228 -84 callsubr
          hhcurveto
          hintmask 0101010110000000
          -72 callsubr
          hintmask 1001010110000000
          -95 callsubr
          -7 -1 -8 -1 -8 hvcurveto
          -97 -504 -42 callsubr
        </CharString>
        <CharString name="_fft">
          529 1 callgsubr
          59 369 59 -59 60 207 56 -26 56 hstemhm
          375 71 253 85 -68 71 hintmask 0000000000000000
          hintmask 1010101110000000
          912 23 callsubr
          hintmask 1011001110000000
          -22 callsubr
          hintmask 1010101101000000
          -90 -33 -12 -32 -14 hhcurveto
          -224 -15 callsubr
          rlineto
          -8 -2 -4 -8 -14 hhcurveto
          -210 hlineto
          5 32 rlineto
          hintmask 1010110110000000
          26 callgsubr
          rrcurveto
          5 4 15 4 23 hhcurveto
          40 3 -14 -24 -17 -1 2 -1 -20 50 callsubr
          40 8 54 24 vvcurveto
          7 -22 -33 4 -25 hhcurveto
          -87 -112 -59 -172 -28 hvcurveto
          -71 callgsubr
          hhcurveto
          hintmask 0110101110000000
          -72 callsubr
          hintmask 1010101110000000
          -88 callgsubr
          228 -84 callsubr
          hhcurveto
          hintmask 0110101110000000
          -72 callsubr
          hintmask 1010101110000000
          -88 callgsubr
          230 -30 callgsubr
        </CharString>
        <CharString name="_fh">
          440 -32 callsubr
          428 60 -58 67 233 51 hstemhm
          659 85 -12 88 hintmask 0000000000000000
          hintmask 1010101100000000
          821 -34 callsubr
          hintmask 1001011010000000
          -19 callsubr
          hintmask 1001101010000000
          -71 callgsubr
          hhcurveto
          hintmask 0101101010000000
          -72 callsubr
          hintmask 1001101010000000
          -95 callsubr
          -7 -1 -9 -2 -10 hvcurveto
          -96 -501 -62 callsubr
          16 -13 21 7 36 63 callsubr
          hintmask 1001011010000000
          -67 callgsubr
          hintmask 1001101100000000
          -70 callgsubr
          endchar
        </CharString>
        <CharString name="_fj">
          151 -38 callgsubr
          531 60 5 -20 252 56 hstemhm
          -111 644 -83 71 hintmask 00000000
          hintmask 10101100
          388 121 18 callsubr
          hhcurveto
          hintmask 01101100
          -32 callgsubr
          hvcurveto
          hintmask 10011100
          -4 callgsubr
          40 221 rlineto
          5 28 9 56 25 vvcurveto
          -9 10 rlineto
          -58 -58 -5 -80 hhcurveto
          hintmask 10101100
          -106 hlineto
          20 callgsubr
          hintmask 10101010
          8 callsubr
          -4 -16 -5 -3 -12 -3 rlinecurve
          -56 -12 callsubr
          69 hlineto
          -47 -298 rlineto
          -132 -21 -11 -114 -46 -15 -39 13 -12 hhcurveto
          hintmask 01101100
          12 callgsubr
          hvcurveto
          hintmask 10101100
          -24 callgsubr
          106 hlineto
          99 19 -7 -23 -8 -3 -14 -2 -11 hvcurveto
          endchar
        </CharString>
        <CharString name="_fk">
          409 -32 callsubr
          422 75 -69 60 242 51 hstemhm
          -111 930 hintmask 00000000
          hintmask 10101011
          796 -75 callsubr
          31 158 5 28 6 35 1 20 rlinecurve
          17 -31 -48 19 -89 hhcurveto
          -130 -119 -68 -193 -31 hvcurveto
          hintmask 10010111
          -71 callgsubr
          hhcurveto
          hintmask 01010111
          -72 callsubr
          hintmask 10010111
          -95 callsubr
          -7 -1 -8 -1 -8 hvcurveto
          -97 -504 -42 callsubr
        </CharString>
        <CharString name="_ft">
          214 1 callgsubr
          59 369 59 -59 60 237 56 hstemhm
          384 85 -69 71 hintmask 00000000
          hintmask 10101110
          597 23 callsubr
          hintmask 10110110
          -22 callsubr
          hintmask 10101101
          -90 -33 -12 -32 -14 hhcurveto
          -225 -15 callsubr
          -4 -16 -5 -3 -12 -3 rlinecurve
          -56 -12 callsubr
          69 hlineto
          -47 -298 rlineto
          -132 -21 -11 -114 -46 hhcurveto
          hintmask 01101110
          -72 callsubr
          hintmask 10101110
          -88 callgsubr
          231 -30 callgsubr
        </CharString>
        <CharString name="a">
          -14 callgsubr
          479 74 -66 callsubr
          rlineto
          hintmask 10111000
          15 callsubr
          hintmask 11011000
          -36 callsubr
          -10 -46 rlineto
          -10 -45 -7 -31 -22 vvcurveto
          -28 10 -22 34 27 46 18 38 53 vhcurveto
          -122 356 rmoveto
          -139 -15 -108 -206 -82 hhcurveto
          -32 -14 32 71 82 41 130 46 43 hvcurveto
          9 9 32 7 26 hhcurveto
          38 39 -17 -12 20 hvcurveto
          endchar
        </CharString>
        <CharString name="aacute">
          -14 callgsubr
          487 -69 callgsubr
          172 -487 -66 callsubr
          rlineto
          hintmask 10111000
          15 callsubr
          hintmask 11011000
          -36 callsubr
          -10 -46 rlineto
          -10 -45 -7 -31 -22 vvcurveto
          -28 10 -22 34 27 46 18 38 53 vhcurveto
          -122 356 rmoveto
          -139 -15 -108 -206 -82 hhcurveto
          -32 -14 32 71 82 41 130 46 43 hvcurveto
          9 9 32 7 26 hhcurveto
          38 39 -17 -12 20 hvcurveto
          endchar
        </CharString>
        <CharString name="abreve">
          -12 callgsubr
          112 68 -21 callgsubr
          hintmask 11011100
          450 720 rmoveto
          -56 -21 -41 -29 -65 hhcurveto
          -5 callgsubr
          -8 -646 -66 callsubr
          rlineto
          hintmask 10111100
          15 callsubr
          hintmask 11011100
          -36 callsubr
          -10 -46 rlineto
          -10 -45 -7 -31 -22 vvcurveto
          -28 10 -22 34 27 46 18 38 53 vhcurveto
          -122 356 rmoveto
          -139 -15 -108 -206 -82 hhcurveto
          -32 -14 32 71 82 41 130 46 43 hvcurveto
          9 9 32 7 26 hhcurveto
          38 39 -17 -12 20 hvcurveto
          endchar
        </CharString>
        <CharString name="acircumflex">
          -14 callgsubr
          460 -82 callgsubr
          59 -487 -66 callsubr
          rlineto
          hintmask 10111000
          15 callsubr
          hintmask 11011000
          -36 callsubr
          -10 -46 rlineto
          -10 -45 -7 -31 -22 vvcurveto
          -28 10 -22 34 27 46 18 38 53 vhcurveto
          -122 356 rmoveto
          -139 -15 -108 -206 -82 hhcurveto
          -32 -14 32 71 82 41 130 46 43 hvcurveto
          9 9 32 7 26 hhcurveto
          38 39 -17 -12 20 hvcurveto
          endchar
        </CharString>
        <CharString name="acute">
          -230 561 204 hstem
          64 218 vstem
          278 -69 callgsubr
          endchar
        </CharString>
        <CharString name="acute.cap">
          -181 749 165 hstem
          101 254 vstem
          343 -73 callsubr
          endchar
        </CharString>
        <CharString name="adieresis">
          -12 callgsubr
          145 110 hstemhm
          33 90 62 108 33 77 -25 108 hintmask 00000000
          hintmask 11011010
          424 600 rmoveto
          34 28 -97 callgsubr
          27 hvcurveto
          hintmask 10111010
          -193 hmoveto
          hintmask 11011010
          34 28 -97 callgsubr
          27 hvcurveto
          248 -526 19 callgsubr
          -36 callsubr
          rlineto
          hintmask 11011101
          -10 -46 rlineto
          -55 callsubr
          -28 10 -22 34 27 46 18 38 53 vhcurveto
          -122 356 rmoveto
          -139 -15 -108 -206 -82 hhcurveto
          -32 -14 32 71 82 41 130 46 43 hvcurveto
          9 9 32 7 26 hhcurveto
          38 39 -17 -12 20 hvcurveto
          endchar
        </CharString>
        <CharString name="ae">
          280 -9 67 -67 73 368 56 -13 -20 hstemhm
          33 90 216 76 188 88 hintmask 00000000
          hintmask 01101110
          639 12 callsubr
          -58 -54 -25 -43 -44 vhcurveto
          -4 2 rlineto
          hintmask 10011110
          23 53 rlineto
          hintmask 10101110
          -16 13 -28 -11 -8 -4 -12 -6 rlinecurve
          12 -30 -32 9 -30 hhcurveto
          -145 -119 -147 -211 -75 29 -64 71 89 63 87 109 47 hvcurveto
          7 -2 rlineto
          -24 vlineto
          -123 72 -47 64 0 callsubr
          vhcurveto
          -241 167 rmoveto
          38 callsubr
          -55 -70 -45 -111 -26 hvcurveto
          -61 145 rmoveto
          -139 -14 -103 -206 -77 hhcurveto
          -31 -13 32 71 82 39 130 43 43 hvcurveto
          9 9 30 7 25 hhcurveto
          36 37 -17 -12 19 hvcurveto
          endchar
        </CharString>
        <CharString name="afii61352">
          523 0 44 131 53 58 38 288 38 4 39 hstemhm
          20 151 395 161 -57 80 163 79 hintmask 0000000000000000
          hintmask 1110100110000000
          529 hmoveto
          109 616 rlineto
          hintmask 1111000110000000
          2 12 2 10 20 4 64 12 rcurveline
          hintmask 1110100110000000
          3 39 rlineto
          -242 hlineto
          -46 callsubr
          67 -8 18 -11 -32 vvcurveto
          hintmask 1111000110000000
          38 callgsubr
          -63 -351 rlineto
          -7 hlineto
          hintmask 1110100110000000
          -160 472 rlineto
          -198 hlineto
          hintmask 1110111010000000
          -101 callgsubr
          -4 -10 -10 callsubr
          -1 -39 rlineto
          253 hlineto
          5 39 -83 11 rlineto
          -19 2 -4 12 13 vvcurveto
          6 1 7 1 5 vhcurveto
          85 485 rlineto
          8 hlineto
          200 -580 rlineto
          325 286 -37 callsubr
        </CharString>
        <CharString name="agrave">
          -14 callgsubr
          363 -54 callsubr
          151 -487 -66 callsubr
          rlineto
          hintmask 10111000
          15 callsubr
          hintmask 11011000
          -36 callsubr
          -10 -46 rlineto
          -10 -45 -7 -31 -22 vvcurveto
          -28 10 -22 34 27 46 18 38 53 vhcurveto
          -122 356 rmoveto
          -139 -15 -108 -206 -82 hhcurveto
          -32 -14 32 71 82 41 130 46 43 hvcurveto
          9 9 32 7 26 hhcurveto
          38 39 -17 -12 20 hvcurveto
          endchar
        </CharString>
        <CharString name="amacron">
          -12 callgsubr
          187 60 -21 callgsubr
          hintmask 11011100
          454 642 -59 callsubr
          274 -568 -66 callsubr
          rlineto
          hintmask 10111100
          15 callsubr
          hintmask 11011100
          -36 callsubr
          -10 -46 rlineto
          -10 -45 -7 -31 -22 vvcurveto
          -28 10 -22 34 27 46 18 38 53 vhcurveto
          -122 356 rmoveto
          -139 -15 -108 -206 -82 hhcurveto
          -32 -14 32 71 82 41 130 46 43 hvcurveto
          9 9 32 7 26 hhcurveto
          38 39 -17 -12 20 hvcurveto
          endchar
        </CharString>
        <CharString name="ampersand">
          264 -9 63 -54 39 395 39 176 53 -25 -20 hstemhm
          37 109 16 85 182 77 hintmask 00000000
          hintmask 01110111
          618 hmoveto
          13 39 -43 3 -19 9 -13 17 rlinecurve
          -52 69 57 74 40 98 19 87 rlinecurve
          3 12 2 10 20 4 64 12 rcurveline
          4 39 rlineto
          -228 hlineto
          -14 -39 rlineto
          66 -7 19 -14 -34 vvcurveto
          -46 -31 -83 -52 -71 vhcurveto
          -167 225 rlineto
          -48 65 -11 46 33 vvcurveto
          39 15 24 18 15 vhcurveto
          13 15 22 10 36 hhcurveto
          12 41 -1 -12 15 hvcurveto
          5 -4 3 -5 -20 vvcurveto
          -13 -1 -18 -3 -27 vhcurveto
          47 5 rlineto
          hintmask 10101101
          18 40 16 43 40 vvcurveto
          hintmask 10110111
          10 -24 -55 15 -54 hhcurveto
          -128 -83 -73 -109 -40 10 -52 34 -48 hvcurveto
          hintmask 10110100
          -103 -42 -66 -72 -106 vvcurveto
          -91 73 -78 116 85 63 30 47 59 vhcurveto
          hintmask 01110100
          51 -68 rlineto
          hintmask 10110100
          -80 108 rmoveto
          -33 -42 -38 -21 -53 hhcurveto
          -79 -46 70 63 72 32 50 57 30 hvcurveto
          endchar
        </CharString>
        <CharString name="anoteleia">
          -60 334 115 hstem
          224 118 vstem
          275 334 6 callgsubr
        </CharString>
        <CharString name="aogonek">
          87 -215 56 150 67 -43 -21 438 56 -13 -20 hstemhm
          33 90 147 84 -28 77 hintmask 00000000
          hintmask 11010110
          461 -149 rmoveto
          14 callsubr
          81 89 40 53 39 hvcurveto
          hintmask 11001101
          -17 27 rlineto
          -69 callsubr
          42 232 -28 callgsubr
          rlinecurve
          hintmask 11010101
          -36 callsubr
          -10 -46 rlineto
          hintmask 10110101
          -55 callsubr
          -22 6 -18 19 -7 vhcurveto
          hintmask 11010110
          -55 -41 -26 -40 -45 8 callgsubr
          -96 572 rmoveto
          -139 -15 -108 -206 -82 hhcurveto
          -32 -14 32 71 82 41 130 46 43 hvcurveto
          9 9 32 7 26 hhcurveto
          38 39 -17 -12 20 hvcurveto
          endchar
        </CharString>
        <CharString name="apostrophe">
          -312 557 209 hstem
          109 90 vstem
          96 18 callgsubr
          endchar
        </CharString>
        <CharString name="approxequal">
          45 150 75 -15 75 15 75 -15 75 hstemhm
          47 427 hintmask 00000000
          hintmask 10101000
          439 424 47 callgsubr
          hintmask 10011000
          -21 callsubr
          -35 -126 47 callgsubr
          hintmask 01101000
          -21 callsubr
          endchar
        </CharString>
        <CharString name="aring">
          -12 callgsubr
          109 43 105 43 hstemhm
          33 90 106 50 47 77 -22 51 hintmask 0000000000000000
          hintmask 1101111010000000
          432 -43 callgsubr
          hintmask 1011111100000000
          154 -533 19 callgsubr
          hintmask 1101111100000000
          -36 callsubr
          -10 -46 rlineto
          -10 -45 -7 -31 -22 vvcurveto
          -28 10 -22 34 27 46 18 38 53 vhcurveto
          -122 356 rmoveto
          -139 -15 -108 -206 -82 hhcurveto
          -32 -14 32 71 82 41 130 46 43 hvcurveto
          9 9 32 7 26 hhcurveto
          38 39 -17 -12 20 hvcurveto
          endchar
        </CharString>
        <CharString name="arrowdown">
          199 21 -21 hstem
          298 61 vstem
          594 255 rmoveto
          -41 38 -162 -161 -8 -8 -15 -17 -5 -10 rlinecurve
          -4 1 rlineto
          595 -61 -595 vlineto
          -4 -1 -7 12 -13 15 -8 8 rlinecurve
          -162 161 -41 -38 256 -255 rlineto
          19 hlineto
          endchar
        </CharString>
        <CharString name="arrowleft">
          66 callgsubr
          758 326 rmoveto
          53 -585 vlineto
          -1 4 12 7 11 12 14 14 rlinecurve
          161 161 -40 40 -256 -257 rlineto
          -15 vlineto
          256 -257 40 40 -161 161 -14 14 -14 13 -9 6 rlinecurve
          1 4 rlineto
          endchar
        </CharString>
        <CharString name="arrowright">
          66 callgsubr
          502 88 rmoveto
          256 257 rlineto
          15 vlineto
          -256 257 -40 -40 161 -161 14 -14 11 -12 12 -7 rlinecurve
          -1 -4 rlineto
          -585 -53 585 hlineto
          1 -4 -9 -6 -14 -13 -14 -14 rlinecurve
          -161 -161 rlineto
          endchar
        </CharString>
        <CharString name="arrowup">
          199 21 -21 hstem
          301 61 vstem
          362 hmoveto
          595 vlineto
          4 1 5 -10 15 -17 8 -8 rlinecurve
          162 -161 41 38 -256 255 rlineto
          -19 hlineto
          -256 -255 41 -38 162 161 8 8 13 15 7 12 rlinecurve
          4 -1 rlineto
          -595 vlineto
          endchar
        </CharString>
        <CharString name="asciicircum">
          80 637 56 hstem
          55 453 vstem
          508 324 rmoveto
          -195 369 rlineto
          -77 hlineto
          -181 -369 rlineto
          68 hlineto
          151 313 166 -313 rlineto
          endchar
        </CharString>
        <CharString name="asciitilde">
          64 200 75 -15 75 hstemhm
          43 439 hintmask 00000000
          hintmask 10100000
          451 324 rmoveto
          -28 -31 -23 -21 -31 hhcurveto
          -15 -18 5 5 -13 hvcurveto
          hintmask 01100000
          -18 7 -59 25 -28 9 rrcurveto
          6 -17 -17 3 -12 hhcurveto
          -37 -32 -26 -74 -57 hvcurveto
          30 -24 rlineto
          36 39 22 13 24 hhcurveto
          11 16 -3 -5 14 hvcurveto
          hintmask 10100000
          18 -6 76 -31 20 -7 rrcurveto
          -5 15 11 -3 16 hhcurveto
          46 44 55 45 37 hvcurveto
          endchar
        </CharString>
        <CharString name="asterisk">
          -30 552 -20 138 -20 26 -20 hstemhm
          85 367 hintmask 00000000
          hintmask 10110000
          392 449 4 callsubr
          hintmask 11010000
          9 callsubr
          rlineto
          hintmask 10110000
          -98 callsubr
          endchar
        </CharString>
        <CharString name="at">
          367 -121 53 70 61 -50 37 -30 -21 405 51 85 50 hstemhm
          37 82 96 85 179 72 151 76 hintmask 0000000000000000
          hintmask 1001111111000000
          497 -88 rmoveto
          -9 40 rlineto
          -19 -81 -22 -1 -18 hhcurveto
          -181 -67 99 142 179 95 188 231 165 92 -101 -119 hvcurveto
          hintmask 1010111111000000
          -69 -45 -201 -77 -23 -6 20 31 94 42 164 15 75 vhcurveto
          -19 12 -40 -10 rlineto
          11 -33 -34 8 -32 hhcurveto
          -129 -106 -134 -175 hvcurveto
          hintmask 1100111111000000
          -88 31 -56 69 80 54 71 88 39 vhcurveto
          7 -2 -8 -42 rlineto
          hintmask 1001111111000000
          -3 -14 -5 -24 -21 vvcurveto
          -35 13 -19 28 -5 vhcurveto
          hintmask 1010111111000000
          32 6 50 4 38 4 rrcurveto
          93 89 45 131 91 vvcurveto
          181 -143 85 -172 -246 -180 -177 -249 -168 90 -117 206 19 34 1 20 102 vhcurveto
          25 478 rmoveto
          hintmask 1100111111000000
          -126 -12 -86 -189 -72 hhcurveto
          -29 -14 35 55 80 30 117 33 39 hvcurveto
          8 8 29 7 23 hhcurveto
          hintmask 1010111111000000
          35 35 -16 -10 20 hvcurveto
          endchar
        </CharString>
        <CharString name="atilde">
          -12 callgsubr
          140 77 -35 77 -21 callgsubr
          hintmask 11010100
          508 -24 callsubr
          hintmask 11001100
          11 callgsubr
          hintmask 11010100
          36 callgsubr
          hintmask 11001100
          49 callgsubr
          hintmask 10110110
          37 callsubr
          -51 -628 19 callgsubr
          -16 13 rlineto
          hintmask 11010110
          -33 callgsubr
          rrcurveto
          -17 callsubr
          -10 -46 rlineto
          -10 -45 -7 -31 -22 vvcurveto
          -28 10 -22 34 27 46 18 38 53 vhcurveto
          -122 356 rmoveto
          -139 -15 -108 -206 -82 hhcurveto
          -32 -14 32 71 82 41 130 46 43 hvcurveto
          9 9 32 7 26 hhcurveto
          38 39 -17 -12 20 hvcurveto
          endchar
        </CharString>
        <CharString name="b">
          70 -9 53 callsubr
          33 -1 callsubr
          75 -30 64 -74 -93 -66 -87 -109 -49 hvcurveto
          -8 2 5 20 15 56 14 56 5 25 rlinecurve
          44 220 6 32 4 -107 callsubr
          -108 -564 59 callgsubr
          -56 callgsubr
          31 callsubr
        </CharString>
        <CharString name="backslash">
          77 -60 832 hstem
          10 515 vstem
          525 -60 rmoveto
          -446 832 rlineto
          -69 hlineto
          445 -832 rlineto
          endchar
        </CharString>
        <CharString name="bar">
          57 callsubr
          -210 rmoveto
          982 -65 -982 vlineto
          endchar
        </CharString>
        <CharString name="baraccent">
          11 585 53 hstem
          35 372 vstem
          397 585 rmoveto
          10 53 rlineto
          -362 hlineto
          -10 -53 rlineto
          endchar
        </CharString>
        <CharString name="baraccent.case">
          11 338 60 hstem
          49 373 vstem
          406 338 rmoveto
          16 60 rlineto
          -357 hlineto
          -16 -60 rlineto
          endchar
        </CharString>
        <CharString name="barincline">
          -166 -189 -21 hstem
          3 248 vstem
          68 -210 rmoveto
          183 982 rlineto
          -65 hlineto
          -183 -982 rlineto
          endchar
        </CharString>
        <CharString name="barlessO">
          249 -80 852 hstem
          69 584 vstem
          120 -80 rmoveto
          533 832 -52 20 -532 -832 rlineto
          endchar
        </CharString>
        <CharString name="barlesso">
          54 552 -20 hstem
          19 443 vstem
          69 -66 rmoveto
          393 618 -51 20 -392 -618 rlineto
          endchar
        </CharString>
        <CharString name="braceleft">
          -98 -164 47 -47 930 hstemhm
          52 79 -74 82 -26 75 hintmask 00000000
          hintmask 10010000
          218 -117 rmoveto
          -45 5 -34 7 44 vvcurveto
          6 1 7 1 7 vhcurveto
          hintmask 01001000
          44 253 rlineto
          2 10 1 9 8 vvcurveto
          32 -22 21 -25 5 vhcurveto
          -10 2 rlineto
          4 vlineto
          12 2 26 4 23 18 10 19 rlinecurve
          9 15 3 12 3 17 44 253 rcurveline
          11 62 41 8 53 6 7 43 rcurveline
          2 -24 -21 2 -18 hhcurveto
          -61 -54 -43 -71 -12 hvcurveto
          -14 -79 -4 -78 -13 -78 rrcurveto
          hintmask 01100000
          -3 -14 -6 -17 -6 -12 -16 -29 -28 -11 -38 -14 -6 -38 rcurveline
          hintmask 01001000
          32 -14 24 -11 6 -29 rrcurveto
          1 -6 1 -10 -8 vvcurveto
          hintmask 10010000
          -60 -56 -153 -62 vvcurveto
          -58 36 -35 53 18 21 2 2 26 vhcurveto
          endchar
        </CharString>
        <CharString name="braceright">
          -98 -164 930 -47 47 hstemhm
          180 76 -27 82 -74 79 hintmask 00000000
          hintmask 10010000
          -5 -160 rmoveto
          -2 24 21 -2 18 hhcurveto
          61 54 43 71 12 hvcurveto
          14 78 4 78 14 79 rrcurveto
          hintmask 10001000
          2 14 6 17 6 12 16 29 28 11 38 14 6 38 rcurveline
          hintmask 10100000
          -32 14 -24 11 -6 29 rrcurveto
          -1 6 0 10 8 vvcurveto
          hintmask 01010000
          60 55 153 62 vvcurveto
          58 -36 35 -53 -18 -21 -2 -2 -26 vhcurveto
          -7 -43 rlineto
          45 -5 34 -7 -44 vvcurveto
          -6 -1 -7 -1 -7 vhcurveto
          hintmask 10100000
          -44 -253 rlineto
          -2 -10 -1 -8 -8 vvcurveto
          -31 19 -22 28 -6 vhcurveto
          10 -2 rlineto
          -4 vlineto
          -12 -2 -25 -4 -24 -18 -10 -19 rlinecurve
          -10 -15 -2 -12 -3 -17 -44 -253 rcurveline
          -11 -62 -41 -8 -53 -6 rrcurveto
          endchar
        </CharString>
        <CharString name="bracketleft">
          -137 -164 53 824 53 hstem
          14 323 vstem
          174 -164 rmoveto
          9 53 rlineto
          -91 hlineto
          145 824 rlineto
          91 hlineto
          9 53 rlineto
          -161 hlineto
          -162 -930 rlineto
          endchar
        </CharString>
        <CharString name="bracketright">
          -137 -164 53 824 53 hstem
          -5 323 vstem
          155 -164 rmoveto
          163 930 rlineto
          -161 hlineto
          -9 -53 rlineto
          91 hlineto
          -145 -824 rlineto
          -90 hlineto
          -9 -53 rlineto
          endchar
        </CharString>
        <CharString name="breve">
          -123 567 68 hstem
          87 300 vstem
          350 720 rmoveto
          -56 -21 -41 -29 -65 hhcurveto
          -5 callgsubr
          endchar
        </CharString>
        <CharString name="breve.cap">
          -123 760 68 hstem
          121 299 vstem
          383 -31 callgsubr
          endchar
        </CharString>
        <CharString name="brokenbar">
          57 callsubr
          355 rmoveto
          417 -65 -417 vlineto
          65 -565 rmoveto
          418 -65 -418 vlineto
          endchar
        </CharString>
        <CharString name="bullet">
          -78 127 256 hstem
          53 270 vstem
          174 127 rmoveto
          91 58 65 84 73 -60 34 -60 -96 -54 -66 -80 -70 57 -40 64 hvcurveto
          endchar
        </CharString>
        <CharString name="c">
          -14 callsubr
          333 117 -83 callsubr
        </CharString>
        <CharString name="cacute">
          -14 callsubr
          462 -69 callgsubr
          51 -444 -83 callsubr
        </CharString>
        <CharString name="caron">
          -122 566 194 hstem
          91 299 vstem
          251 -64 callgsubr
          endchar
        </CharString>
        <CharString name="caron.alt">
          -314 577 197 hstem
          15 137 vstem
          54 -42 callgsubr
          endchar
        </CharString>
        <CharString name="caron.cap">
          -93 752 165 hstem
          120 328 vstem
          448 -74 callgsubr
          endchar
        </CharString>
        <CharString name="ccaron">
          -14 callsubr
          318 -64 callgsubr
          78 -449 -83 callsubr
        </CharString>
        <CharString name="ccedilla">
          -28 39 callsubr
          60 -21 438 56 -11 -20 hstemhm
          33 92 71 86 40 71 hintmask 00000000
          hintmask 11110111
          88 -217 rmoveto
          -52 callsubr
          19 42 61 11 59 45 38 40 rlinecurve
          -24 26 rlineto
          -29 callgsubr
          8 10 35 13 29 hhcurveto
          51 2 -15 -28 -15 -1 -3 -1 -22 hvcurveto
          53 hlineto
          hintmask 11101111
          12 44 8 58 26 vvcurveto
          hintmask 11110111
          7 -27 -37 4 -35 hhcurveto
          -143 -118 -142 -185 -108 56 -49 57 -10 hvcurveto
          -39 -83 -44 callgsubr
          -34 -42 -21 -64 -9 hvcurveto
          endchar
        </CharString>
        <CharString name="ccircumflex">
          -14 callsubr
          435 -82 callgsubr
          -62 -444 -83 callsubr
        </CharString>
        <CharString name="cdotaccent">
          -28 -9 73 368 56 -11 -20 157 111 hstemhm
          33 92 128 112 -43 71 hintmask 00000000
          hintmask 11011100
          365 670 rmoveto
          -80 callgsubr
          -32 -553 rmoveto
          -29 callgsubr
          hintmask 11011010
          8 10 35 13 29 hhcurveto
          51 2 -15 -28 -15 -1 -3 -1 -22 hvcurveto
          53 hlineto
          hintmask 10111010
          12 44 8 58 26 vvcurveto
          hintmask 11011010
          7 -27 -37 4 -35 hhcurveto
          -143 -118 -13 callsubr
          hvcurveto
          endchar
        </CharString>
        <CharString name="cedilla">
          -177 39 callsubr
          hstem
          133 86 vstem
          25 -217 rmoveto
          -52 callsubr
          35 74 -47 13 -61 -129 -44 callgsubr
          -34 -42 -21 -64 -9 hvcurveto
          endchar
        </CharString>
        <CharString name="cedilla.cap">
          -177 39 callsubr
          hstem
          133 86 vstem
          25 -217 rmoveto
          -52 callsubr
          35 74 -47 13 -61 -129 -44 callgsubr
          -33 -43 -23 -63 -8 hvcurveto
          endchar
        </CharString>
        <CharString name="cent">
          3 -8 callsubr
          58 35 callgsubr
          221 -96 callgsubr
        </CharString>
        <CharString name="cent.fitted">
          9 -8 callsubr
          65 35 callgsubr
          228 -96 callgsubr
        </CharString>
        <CharString name="cent.tab">
          -8 callsubr
          105 35 callgsubr
          268 -96 callgsubr
        </CharString>
        <CharString name="cent.tabonum">
          -8 callsubr
          97 35 callgsubr
          260 -96 callgsubr
        </CharString>
        <CharString name="circumflex">
          -122 561 194 hstem
          64 299 vstem
          363 -82 callgsubr
          endchar
        </CharString>
        <CharString name="circumflex.cap">
          -93 749 165 hstem
          99 328 vstem
          427 -89 callgsubr
          endchar
        </CharString>
        <CharString name="colon">
          -169 -9 122 253 122 hstemhm
          61 125 -59 125 48 callgsubr
          182 366 -13 callgsubr
          hintmask 11100000
          -66 -375 -13 callgsubr
          endchar
        </CharString>
        <CharString name="comma">
          -169 -137 250 hstem
          135 94 vstem
          99 -137 rmoveto
          67 47 63 62 71 vvcurveto
          44 -29 26 -29 -30 -29 41 callgsubr
        </CharString>
        <CharString name="commaaccent">
          -301 -189 -21 hstem
          -35 95 vstem
          -58 -210 rmoveto
          -96 callsubr
        </CharString>
        <CharString name="copyright">
          420 -9 53 70 53 358 53 71 53 hstem
          74 85 84 99 417 86 vstem
          -35 callsubr
          123 221 rmoveto
          -21 -70 -8 -9 -4 -4 rrcurveto
          -8 -5 -28 -7 -24 hhcurveto
          -57 -60 32 109 110 44 107 123 25 24 -11 -9 8 hvcurveto
          2 -2 1 -3 -10 vvcurveto
          -13 -2 -24 -3 -49 vhcurveto
          69 6 14 41 8 47 5 37 rlinecurve
          14 -16 -49 29 -69 hhcurveto
          -194 -89 -136 -145 -100 72 -83 137 36 83 19 20 25 hvcurveto
          5 15 7 25 38 vvcurveto
          8 0 17 -1 5 vhcurveto
          endchar
        </CharString>
        <CharString name="currency">
          182 138 53 301 53 4 -20 hstemhm
          140 100 248 100 55 callgsubr
          591 108 rmoveto
          -78 96 rlineto
          48 49 27 64 68 vvcurveto
          hintmask 10111000
          30 -7 31 -14 20 vhcurveto
          99 83 rlineto
          hintmask 11011000
          -38 46 -101 -85 rlineto
          23 -28 -40 12 -51 hhcurveto
          -57 -49 -12 -21 -42 hvcurveto
          -71 89 -55 -45 71 -88 rlineto
          -43 -50 -22 -59 -64 vvcurveto
          -34 9 -33 17 -22 vhcurveto
          -108 -91 37 -46 115 97 rlineto
          -18 28 37 -10 46 hhcurveto
          50 44 8 17 39 hvcurveto
          82 -100 rlineto
          -105 155 rmoveto
          -20 -23 -36 -7 -27 hhcurveto
          -72 -33 53 68 64 30 65 27 24 hvcurveto
          20 24 35 7 27 hhcurveto
          73 32 -53 -68 -64 -30 -64 -27 -25 hvcurveto
          endchar
        </CharString>
        <CharString name="d">
          90 -9 67 374 56 -16 -20 310 10 -21 callgsubr
          hintmask 11011100
          479 74 -70 callsubr
          109 567 6 32 4 -107 callsubr
          hintmask 10111100
          -38 -199 rlineto
          hintmask 11011100
          9 -28 -29 7 -28 hhcurveto
          -151 -123 -147 -211 -75 30 -64 74 93 66 87 109 49 hvcurveto
          8 -46 callgsubr
          -28 10 -22 34 27 46 18 38 53 vhcurveto
          -122 356 rmoveto
          -139 -15 -108 -206 -82 hhcurveto
          -32 -14 32 71 82 41 130 46 43 hvcurveto
          9 9 32 7 26 hhcurveto
          38 39 -17 -12 20 hvcurveto
          endchar
        </CharString>
        <CharString name="dagger">
          87 -198 -21 699 -20 23 -20 211 -20 hstemhm
          71 423 hintmask 00000000
          hintmask 10111000
          177 -219 rmoveto
          109 401 12 175 rlineto
          4 vlineto
          16 -5 19 -1 6 24 callsubr
          hintmask 11011000
          19 14 62 callsubr
          -24 -9 -7 -3 33 callsubr
          hintmask 10111000
          -12 -173 rlineto
          -6 vlineto
          64 callsubr
          -21 4 -18 4 1 callsubr
          -9 -19 -6 -20 rlinecurve
          -59 -189 -42 -386 rlineto
          endchar
        </CharString>
        <CharString name="daggerdbl">
          87 -198 -21 239 -21 481 -20 23 -20 211 -20 hstemhm
          194 107 hintmask 00000000
          hintmask 11011100
          424 13 rmoveto
          62 callsubr
          -23 -9 -7 -3 rlinecurve
          -9 12 6 6 9 20 6 20 rlinecurve
          47 127 rlineto
          104 vlineto
          17 -8 21 -1 7 24 callsubr
          hintmask 11101100
          19 14 62 callsubr
          -23 -8 -8 -4 33 callsubr
          hintmask 11011100
          -12 -179 rlineto
          64 callsubr
          -34 7 -5 1 1 callsubr
          -7 -19 -8 -20 rlinecurve
          -44 -119 rlineto
          -113 vlineto
          -18 3 -22 2 -6 vhcurveto
          -12 -9 -5 5 -30 6 -9 2 1 callsubr
          -8 -19 -7 -20 rlinecurve
          -57 -181 10 -17 96 32 11 167 rlineto
          4 vlineto
          16 -5 19 -1 6 24 callsubr
          endchar
        </CharString>
        <CharString name="dcaron">
          90 -9 67 374 56 -16 -20 310 10 -21 callgsubr
          hintmask 11011100
          588 -42 callgsubr
          -70 -517 -70 callsubr
          109 567 6 32 4 -107 callsubr
          hintmask 10111100
          -38 -199 rlineto
          hintmask 11011100
          9 -28 -29 7 -28 hhcurveto
          -151 -123 -147 -211 -75 30 -64 74 93 66 87 109 49 hvcurveto
          8 -46 callgsubr
          -28 10 -22 34 27 46 18 38 53 vhcurveto
          -122 356 rmoveto
          -139 -15 -108 -206 -82 hhcurveto
          -32 -14 32 71 82 41 130 46 43 hvcurveto
          9 9 32 7 26 hhcurveto
          38 39 -17 -12 20 hvcurveto
          endchar
        </CharString>
        <CharString name="dcroat">
          90 -9 67 374 56 -16 -20 154 53 103 10 -21 callgsubr
          hintmask 11011110
          479 74 -70 callsubr
          97 502 rlineto
          69 hlineto
          10 53 rlineto
          -69 hlineto
          2 12 6 32 4 -107 callsubr
          -2 -12 rlineto
          -127 hlineto
          -10 -53 rlineto
          127 hlineto
          hintmask 10111110
          -26 -134 rlineto
          hintmask 11011110
          9 -28 -29 7 -28 hhcurveto
          -151 -123 -147 -211 -75 30 -64 74 93 66 87 109 49 hvcurveto
          8 -46 callgsubr
          -28 10 -22 34 27 46 18 38 53 vhcurveto
          -122 356 rmoveto
          -139 -15 -108 -206 -82 hhcurveto
          -32 -14 32 71 82 41 130 46 43 hvcurveto
          9 9 32 7 26 hhcurveto
          38 39 -17 -12 20 hvcurveto
          endchar
        </CharString>
        <CharString name="degree">
          -52 435 51 165 51 hstem
          85 57 160 57 vstem
          359 572 rmoveto
          80 -48 50 -86 -90 -50 -55 -82 -81 48 -49 85 90 51 55 82 vhcurveto
          -141 -86 rmoveto
          -49 -27 30 49 51 30 35 53 49 28 -30 -49 -51 -30 -35 -54 hvcurveto
          endchar
        </CharString>
        <CharString name="dieresis">
          -121 600 110 hstem
          76 32 callsubr
          vstem
          315 600 rmoveto
          34 28 -97 callgsubr
          27 hvcurveto
          -193 hmoveto
          34 28 -97 callgsubr
          27 hvcurveto
          endchar
        </CharString>
        <CharString name="dieresis.cap">
          -122 775 110 hstem
          108 32 callsubr
          vstem
          348 775 rmoveto
          34 27 -97 callgsubr
          28 hvcurveto
          -193 hmoveto
          34 27 -97 callgsubr
          28 hvcurveto
          endchar
        </CharString>
        <CharString name="divide">
          5 64 116 64 53 79 116 hstem
          161 116 vstem
          218 376 34 callgsubr
          195 -132 45 callgsubr
          181 -180 34 callgsubr
          endchar
        </CharString>
        <CharString name="dollar">
          29 12 -21 560 -20 hstemhm
          43 80 -26 77 148 87 -63 80 55 callgsubr
          200 -73 callgsubr
        </CharString>
        <CharString name="dollar.fitted">
          126 -9 59 -38 -21 628 58 0 -20 hstemhm
          30 52 callgsubr
          240 -78 callsubr
        </CharString>
        <CharString name="dollar.tab">
          -9 59 -38 -21 628 58 0 -20 hstemhm
          22 52 callgsubr
          232 -78 callsubr
        </CharString>
        <CharString name="dollar.tabonum">
          12 -21 560 -20 hstemhm
          72 80 -26 77 148 87 -63 80 55 callgsubr
          229 -73 callgsubr
        </CharString>
        <CharString name="dotaccent">
          -307 614 111 hstem
          80 112 vstem
          192 670 rmoveto
          -80 callgsubr
          endchar
        </CharString>
        <CharString name="dotaccentcmb">
          -304 597 115 hstem
          76 118 vstem
          128 597 rmoveto
          39 27 32 36 34 -21 13 -30 -40 -27 -30 -35 -34 22 -16 30 hvcurveto
          endchar
        </CharString>
        <CharString name="dotaccentcmb.cap">
          -249 331 121 hstem
          25 122 vstem
          77 331 rmoveto
          40 30 34 37 36 -23 14 -30 -39 -30 -33 -36 -35 23 -17 29 hvcurveto
          endchar
        </CharString>
        <CharString name="dotlessi">
          -168 -9 59 424 10 hstemhm
          62 86 hintmask 00000000
          hintmask 11100000
          224 74 rmoveto
          -104 callgsubr
        </CharString>
        <CharString name="dotlessj">
          -167 -38 callgsubr
          586 10 hstemhm
          -133 348 hintmask 00000000
          hintmask 10110000
          70 121 18 callsubr
          hhcurveto
          hintmask 01110000
          -32 callgsubr
          hvcurveto
          hintmask 10110000
          -4 callgsubr
          43 239 6 32 4 -107 callsubr
          endchar
        </CharString>
        <CharString name="e">
          -5 callsubr
          333 117 39 callgsubr
          -102 callsubr
        </CharString>
        <CharString name="eacute">
          -5 callsubr
          455 -69 callgsubr
          58 -444 39 callgsubr
          -102 callsubr
        </CharString>
        <CharString name="ecaron">
          -5 callsubr
          311 -64 callgsubr
          85 -449 39 callgsubr
          -102 callsubr
        </CharString>
        <CharString name="ecircumflex">
          -5 callsubr
          428 -82 callgsubr
          -55 -444 39 callgsubr
          -102 callsubr
        </CharString>
        <CharString name="edieresis">
          -26 -9 73 368 56 112 110 hstemhm
          33 89 31 108 36 88 -39 108 hintmask 00000000
          hintmask 11111100
          392 600 rmoveto
          34 28 -97 callgsubr
          27 hvcurveto
          -193 hmoveto
          34 28 -97 callgsubr
          27 hvcurveto
          134 -483 39 callgsubr
          hintmask 11111010
          -102 callsubr
        </CharString>
        <CharString name="edotaccent">
          -26 -9 73 368 56 126 111 hstemhm
          33 89 124 112 -61 88 hintmask 00000000
          hintmask 11111000
          358 670 rmoveto
          -80 callgsubr
          -25 -553 39 callgsubr
          hintmask 11110100
          -102 callsubr
        </CharString>
        <CharString name="egrave">
          -5 callsubr
          331 -54 callsubr
          37 -444 39 callgsubr
          -102 callsubr
        </CharString>
        <CharString name="eight">
          -9 55 581 50 hstemhm
          29 16 callgsubr
          382 -100 callgsubr
        </CharString>
        <CharString name="eight.dnom">
          -77 -9 39 355 36 hstemhm
          3 25 callsubr
          hintmask 11100100
          245 218 -89 callsubr
        </CharString>
        <CharString name="eight.fitted">
          -9 55 581 50 hstemhm
          23 16 callgsubr
          376 -100 callgsubr
        </CharString>
        <CharString name="eight.inf">
          -77 -172 39 355 36 hstemhm
          -27 25 callsubr
          hintmask 11100100
          215 55 -89 callsubr
        </CharString>
        <CharString name="eight.numr">
          -77 270 39 171 -20 204 36 hstemhm
          55 25 callsubr
          hintmask 11110010
          297 497 rmoveto
          8 1 10 4 7 4 rrcurveto
          37 19 35 40 47 vvcurveto
          68 -76 20 -55 vhcurveto
          hintmask 11101010
          -96 -57 -60 -68 -44 25 -27 22 -14 hvcurveto
          -2 4 2 -1 3 hhcurveto
          -4 vlineto
          hintmask 11110100
          -5 -11 -2 -5 -9 hvcurveto
          -33 -16 -53 -39 -57 vvcurveto
          -73 84 -18 57 92 83 50 74 41 -28 38 -40 19 vhcurveto
          hintmask 11110010
          1 -2 -2 0 -2 hhcurveto
          hintmask 11101010
          -38 19 rmoveto
          -42 19 -37 18 40 vvcurveto
          31 22 44 58 42 26 -23 -37 -49 -44 -28 -25 -15 vhcurveto
          hintmask 11110100
          -55 -47 rmoveto
          42 -18 50 -26 1 -45 rrcurveto
          -37 -32 -30 -59 -56 -29 26 38 58 68 29 15 5 vhcurveto
          endchar
        </CharString>
        <CharString name="eight.sup">
          -77 426 39 355 36 hstemhm
          84 25 callsubr
          hintmask 11100100
          326 653 -89 callsubr
        </CharString>
        <CharString name="eight.tab">
          -9 55 581 50 hstemhm
          29 16 callgsubr
          382 -100 callgsubr
        </CharString>
        <CharString name="eight.tabonum">
          -9 55 581 50 hstemhm
          31 16 callgsubr
          384 -100 callgsubr
        </CharString>
        <CharString name="ellipsis">
          439 -9 122 hstem
          72 125 149 125 149 125 cntrmask 01110000
          673 -9 rmoveto
          13 callgsubr
          -274 hmoveto
          13 callgsubr
          -274 hmoveto
          13 callgsubr
          endchar
        </CharString>
        <CharString name="emacron">
          -26 -9 73 368 56 154 60 hstem
          33 89 175 88 vstem
          422 642 -59 callsubr
          160 -525 39 callgsubr
          -102 callsubr
        </CharString>
        <CharString name="emdash">
          579 218 53 hstem
          9 1004 vstem
          1001 218 rmoveto
          12 53 rlineto
          -992 hlineto
          -12 -53 rlineto
          endchar
        </CharString>
        <CharString name="endash">
          79 218 53 hstem
          9 504 vstem
          501 218 rmoveto
          12 53 rlineto
          -492 hlineto
          -12 -53 rlineto
          endchar
        </CharString>
        <CharString name="eng">
          119 -38 callgsubr
          124 -21 430 67 -20 10 hstemhm
          417 86 hintmask 00000000
          hintmask 10110100
          354 121 rmoveto
          -130 -34 -18 -116 -37 hhcurveto
          hintmask 01110100
          -32 callgsubr
          hvcurveto
          hintmask 10110100
          51 callsubr
          127 62 149 214 59 vhcurveto
          43 155 rlineto
          8 29 7 35 32 vvcurveto
          50 -18 43 -66 -90 -94 -75 -121 -59 vhcurveto
          -6 2 rlineto
          hintmask 10101100
          -88 callsubr
          hintmask 10110100
          231 147 185 98 26 8 -19 -22 -26 -11 -32 -3 -15 vhcurveto
          endchar
        </CharString>
        <CharString name="eogonek">
          -26 -215 56 150 73 368 56 hstemhm
          33 89 -29 84 120 88 hintmask 00000000
          hintmask 11110100
          284 -149 rmoveto
          hintmask 11101100
          14 callsubr
          49 32 36 38 32 hvcurveto
          38 31 45 27 27 29 -24 26 rcurveline
          hintmask 11110100
          -61 callsubr
          119 20 142 54 111 vvcurveto
          64 -43 24 -53 -139 -117 -142 -185 -120 69 -47 62 -3 vhcurveto
          hintmask 11101100
          -49 -40 -22 -39 -44 8 callgsubr
          -98 580 rmoveto
          14 16 20 7 20 hhcurveto
          36 10 -26 -22 -55 -65 -45 -103 -26 hvcurveto
          11 62 31 66 24 25 rrcurveto
          endchar
        </CharString>
        <CharString name="equal">
          60 173 53 84 53 hstem
          64 376 vstem
          440 310 45 callgsubr
          376 -137 45 callgsubr
          endchar
        </CharString>
        <CharString name="estimated">
          410 -9 19 326 19 325 22 hstem
          20 145 500 146 vstem
          670 128 rmoveto
          -71 -61 -91 -47 -103 hhcurveto
          -94 -85 42 63 -63 hvcurveto
          -5 7 -3 7 9 vvcurveto
          193 vlineto
          4 2 1 3 vhcurveto
          641 9 hlineto
          197 -177 160 -220 -218 -176 -160 -197 -195 176 -159 218 128 116 54 83 70 vhcurveto
          -63 234 rmoveto
          -3 -1 -4 -3 vhcurveto
          -491 hlineto
          -3 -2 4 3 hvcurveto
          190 vlineto
          10 3 8 7 7 vhcurveto
          62 62 84 41 94 hhcurveto
          94 85 -40 -61 62 hvcurveto
          6 -6 3 -8 -9 vvcurveto
          endchar
        </CharString>
        <CharString name="eth">
          87 -9 53 391 53 -16 -20 hstemhm
          38 97 263 102 55 callgsubr
          540 734 rmoveto
          -25 40 -136 -53 -19 22 -20 19 -18 15 rlinecurve
          -57 -28 18 -16 17 -18 14 -19 rlinecurve
          -128 -49 23 -39 131 50 rlineto
          hintmask 10111000
          33 -51 21 -62 8 -73 rrcurveto
          hintmask 11011000
          10 -24 -28 6 -32 hhcurveto
          -173 -107 -124 -175 -116 60 -82 115 175 112 123 244 102 -33 135 -60 89 hvcurveto
          -71 -610 rmoveto
          -24 -24 -47 -6 -27 hhcurveto
          -71 -32 65 84 87 27 91 34 34 hvcurveto
          24 24 47 6 27 hhcurveto
          70 34 -63 -86 -87 -27 -91 -35 -34 hvcurveto
          endchar
        </CharString>
        <CharString name="exclam">
          -195 -9 108 hstem
          18 115 vstem
          128 179 rmoveto
          140 505 -9 19 -108 -30 -74 -494 rlineto
          56 -124 rmoveto
          30 -24 14 -26 -42 -23 -27 -35 -29 20 -17 30 41 24 26 38 vhcurveto
          endchar
        </CharString>
        <CharString name="exclamdown">
          -195 -198 -21 604 108 hstem
          153 115 vstem
          268 447 rmoveto
          29 -20 17 -30 -41 -24 -26 -38 -30 24 -14 26 42 23 27 35 vhcurveto
          -133 -636 rmoveto
          74 494 rlineto
          -51 hlineto
          -140 -505 9 -19 rlineto
          endchar
        </CharString>
        <CharString name="f">
          -79 -38 callgsubr
          531 60 237 56 hstemhm
          -111 602 -71 71 hintmask 00000000
          hintmask 10111000
          77 -40 callsubr
          44 275 rlineto
          106 hlineto
          10 60 rlineto
          -106 hlineto
          5 32 17 106 30 59 30 26 rlinecurve
          hintmask 10110100
          5 6 22 9 34 hhcurveto
          52 2 -52 callgsubr
          -24 -35 4 -27 hhcurveto
          -140 -97 -108 -153 -29 hvcurveto
          -3 -16 -4 -16 -5 -3 -12 -3 rlinecurve
          -56 -12 callsubr
          69 hlineto
          endchar
        </CharString>
        <CharString name="ff">
          238 -38 callgsubr
          531 60 207 56 -26 56 hstemhm
          -111 919 -433 71 291 71 hintmask 00000000
          hintmask 10101100
          394 32 callgsubr
          hintmask 01101100
          -72 callsubr
          hintmask 10101100
          -76 callgsubr
          106 30 59 30 26 rlinecurve
          hintmask 10101001
          5 6 22 9 34 hhcurveto
          52 2 -52 callgsubr
          -24 -35 4 -27 hhcurveto
          -140 -97 -108 -153 -29 hvcurveto
          -3 -16 rlineto
          -8 -2 -4 -8 -14 hhcurveto
          -211 hlineto
          5 32 rlineto
          hintmask 10110010
          26 callgsubr
          rrcurveto
          5 4 15 4 23 hhcurveto
          40 3 -14 -24 -17 -1 2 -1 -20 50 callsubr
          40 8 54 24 vvcurveto
          7 -22 -33 4 -25 hhcurveto
          -87 -112 -59 -172 -28 hvcurveto
          -71 callgsubr
          hhcurveto
          hintmask 01101100
          -72 callsubr
          hintmask 10101100
          -88 callgsubr
          229 hlineto
          endchar
        </CharString>
        <CharString name="ffi">
          467 -32 callsubr
          428 60 5 -20 222 56 -26 56 hstemhm
          -111 987 -501 71 251 86 -17 71 hintmask 0000000000000000
          hintmask 1010010100100000
          859 -35 callgsubr
          hintmask 1001100100100000
          -106 hlineto
          20 callgsubr
          hintmask 1001100100010000
          8 callsubr
          rlineto
          -8 -2 -4 -8 -14 hhcurveto
          -210 hlineto
          5 32 26 callgsubr
          rlinecurve
          hintmask 1001101001000000
          5 4 15 4 23 hhcurveto
          40 3 -14 -24 -17 -1 2 -1 -20 50 callsubr
          40 8 54 24 vvcurveto
          7 -22 -33 4 -25 hhcurveto
          -87 -112 -59 -172 -28 hvcurveto
          -71 callgsubr
          -15 -39 13 -12 hhcurveto
          hintmask 0101100110000000
          12 callgsubr
          hvcurveto
          hintmask 1001100110000000
          -24 callgsubr
          228 -84 callsubr
          -15 -39 13 -12 hhcurveto
          hintmask 0101100110000000
          12 callgsubr
          hvcurveto
          hintmask 1001100100100000
          -24 callgsubr
          106 hlineto
          99 19 -7 -23 -8 -3 -14 -2 -11 hvcurveto
          -39 -217 -71 callsubr
          endchar
        </CharString>
        <CharString name="ffl">
          467 -32 callsubr
          428 60 207 56 -21 51 hstemhm
          -111 1014 -528 71 249 86 hintmask 0000000000000000
          hintmask 1010101001000000
          857 74 -58 callsubr
          4 26 2 9 hvcurveto
          104 533 5 28 6 -63 callgsubr
          -3 -16 rlineto
          -8 -2 -4 -8 -14 hhcurveto
          -210 hlineto
          5 32 rlineto
          hintmask 1001110010000000
          26 callgsubr
          rrcurveto
          5 4 15 4 23 hhcurveto
          40 3 -14 -24 -17 -1 2 -1 -20 50 callsubr
          40 8 54 24 vvcurveto
          7 -22 -33 4 -25 hhcurveto
          -87 -112 -59 -172 -28 hvcurveto
          -71 callgsubr
          hhcurveto
          hintmask 0101101100000000
          -72 callsubr
          hintmask 1001101100000000
          -88 callgsubr
          228 -84 callsubr
          hhcurveto
          hintmask 0101101100000000
          -72 callsubr
          hintmask 1001101001000000
          -95 callsubr
          -7 -1 -9 -2 -10 hvcurveto
          -96 -501 -71 callsubr
          endchar
        </CharString>
        <CharString name="fi">
          151 -32 callsubr
          428 60 5 -20 252 56 hstemhm
          -111 671 -179 86 -17 71 hintmask 0000000000000000
          hintmask 1010011010000000
          543 -35 callgsubr
          hintmask 1001101010000000
          -106 hlineto
          20 callgsubr
          hintmask 1001101001000000
          8 callsubr
          -4 -16 -5 -3 -12 -3 rlinecurve
          -56 -12 callsubr
          69 hlineto
          -47 -298 rlineto
          -132 -21 -11 -114 -46 -15 -39 13 -12 hhcurveto
          hintmask 0101101100000000
          12 callgsubr
          hvcurveto
          hintmask 1001101010000000
          -24 callgsubr
          106 hlineto
          99 19 -7 -23 -8 -3 -14 -2 -11 hvcurveto
          -39 -217 -71 callsubr
          endchar
        </CharString>
        <CharString name="filledbox">
          579 21 -21 hstem
          81 838 58 callsubr
          endchar
        </CharString>
        <CharString name="five">
          61 231 63 162 81 hstem
          342 109 vstem
          -2 -40 callgsubr
        </CharString>
        <CharString name="five.dnom">
          -96 -9 61 callsubr
          14 40 161 81 vstem
          297 360 -87 callsubr
          26 100 rlineto
          endchar
        </CharString>
        <CharString name="five.fitted">
          78 -9 52 320 63 162 81 hstem
          4 79 283 109 vstem
          483 -54 callgsubr
        </CharString>
        <CharString name="five.inf">
          -96 -172 61 callsubr
          -16 40 161 81 vstem
          267 197 -87 callsubr
          26 100 rlineto
          endchar
        </CharString>
        <CharString name="five.numr">
          -96 270 37 191 44 -3 -20 120 55 hstemhm
          66 40 161 81 hintmask 00000000
          hintmask 11011100
          349 639 -87 callsubr
          hintmask 10111100
          26 100 rlineto
          endchar
        </CharString>
        <CharString name="five.sup">
          -96 426 61 callsubr
          95 40 161 81 vstem
          378 795 -87 callsubr
          26 100 rlineto
          endchar
        </CharString>
        <CharString name="five.tab">
          -9 52 320 63 162 81 hstem
          18 79 283 109 vstem
          497 -54 callgsubr
        </CharString>
        <CharString name="five.tabonum">
          231 63 162 81 hstem
          355 109 vstem
          11 -40 callgsubr
        </CharString>
        <CharString name="fl">
          151 -32 callsubr
          428 60 242 51 hstemhm
          -111 698 -208 86 hintmask 00000000
          hintmask 10101101
          541 74 -58 callsubr
          4 26 2 9 hvcurveto
          104 533 5 28 6 -63 callgsubr
          -71 callgsubr
          hhcurveto
          hintmask 01011110
          -72 callsubr
          hintmask 10011101
          -95 callsubr
          -7 -1 -8 -1 -8 hvcurveto
          -97 -504 -71 callsubr
          endchar
        </CharString>
        <CharString name="florin">
          -79 -38 callgsubr
          489 60 279 56 hstemhm
          -80 602 -71 71 hintmask 00000000
          hintmask 10111000
          108 -40 callsubr
          37 233 rlineto
          106 hlineto
          10 60 rlineto
          -106 hlineto
          12 74 17 106 30 59 30 26 rlinecurve
          hintmask 10110100
          5 6 22 9 34 hhcurveto
          52 2 -52 callgsubr
          -24 -35 4 -27 hhcurveto
          -140 -102 -108 -153 -24 hvcurveto
          -9 -56 -5 -18 -4 -3 -13 -3 rlinecurve
          -56 -12 callsubr
          69 hlineto
          endchar
        </CharString>
        <CharString name="four">
          110 53 callgsubr
          -3 512 42 callgsubr
          489 -45 callgsubr
        </CharString>
        <CharString name="four.dnom">
          -59 0 43 callsubr
          201 69 41 callsubr
          306 hmoveto
          -94 callgsubr
        </CharString>
        <CharString name="four.fitted">
          113 0 39 131 62 435 10 hstemhm
          318 87 41 callsubr
          469 hmoveto
          6 39 -51 11 rlineto
          -15 3 -4 9 11 vvcurveto
          6 1 5 1 6 vhcurveto
          15 80 rlineto
          93 hlineto
          20 57 -102 2 82 438 -10 10 rlineto
          -20 -41 -7 -6 -27 hvcurveto
          -397 -432 5 callsubr
          290 317 25 callgsubr
        </CharString>
        <CharString name="four.inf">
          -59 -163 43 callsubr
          171 69 41 callsubr
          276 -163 rmoveto
          -94 callgsubr
        </CharString>
        <CharString name="four.numr">
          -59 279 43 callsubr
          253 69 41 callsubr
          358 279 rmoveto
          -94 callgsubr
        </CharString>
        <CharString name="four.sup">
          -59 435 43 callsubr
          282 69 41 callsubr
          387 435 rmoveto
          -94 callgsubr
        </CharString>
        <CharString name="four.tab">
          0 39 131 62 431 10 hstemhm
          326 87 41 callsubr
          477 hmoveto
          6 39 -51 11 rlineto
          -15 3 -4 9 11 vvcurveto
          6 1 5 1 6 vhcurveto
          15 80 rlineto
          73 hlineto
          18 57 -80 2 81 434 -10 10 rlineto
          -20 -41 -7 -6 -27 hvcurveto
          -396 -428 5 callsubr
          289 313 25 callgsubr
        </CharString>
        <CharString name="four.tabonum">
          53 callgsubr
          -6 512 42 callgsubr
          486 -45 callgsubr
        </CharString>
        <CharString name="fraction">
          -253 21 -21 hstem
          -150 518 vstem
          -84 hmoveto
          -15 callgsubr
          endchar
        </CharString>
        <CharString name="g">
          77 -7 callgsubr
          hstemhm
          -17 81 -31 90 42 callgsubr
          449 336 rmoveto
          hintmask 11011000
          15 callsubr
          hintmask 11100100
          -16 13 -33 callgsubr
          rlinecurve
          22 callgsubr
          1 -8 rlineto
          hintmask 11101000
          -14 -1 -30 -9 -16 -10 rrcurveto
          -39 -26 -24 -35 -45 vvcurveto
          -4 callsubr
          -21 359 rmoveto
          hintmask 11100100
          -133 -15 -108 -197 -82 hhcurveto
          -32 -14 31 68 78 41 125 46 41 hvcurveto
          9 9 32 7 26 hhcurveto
          hintmask 11101000
          38 39 -17 -12 20 hvcurveto
          -31 -264 rmoveto
          -218 -47 -20 -84 -128 hhcurveto
          -64 -20 38 29 85 86 0 57 43 hvcurveto
          30 19 58 37 50 99 8 -2 rcurveline
          endchar
        </CharString>
        <CharString name="gbreve">
          87 -7 callgsubr
          112 68 hstemhm
          -17 81 -31 90 hintmask 00000000
          hintmask 11101100
          465 720 rmoveto
          hintmask 11011100
          -56 -21 -41 -29 -65 hhcurveto
          hintmask 11101010
          -5 callgsubr
          -53 -384 rmoveto
          15 callsubr
          hintmask 11101100
          -16 13 -33 callgsubr
          rlinecurve
          31 callgsubr
          hintmask 11101010
          36 callsubr
          4 callgsubr
          hintmask 11101100
          -4 callsubr
          -93 callsubr
        </CharString>
        <CharString name="gcaron">
          87 -7 callgsubr
          hstemhm
          -17 81 -31 90 42 callgsubr
          358 566 rmoveto
          hintmask 11011000
          139 169 rlineto
          hintmask 11100100
          -30 25 -136 -118 -93 118 -40 -25 97 -169 rlineto
          154 -230 rmoveto
          15 callsubr
          hintmask 11101000
          -16 13 -33 callgsubr
          rlinecurve
          31 callgsubr
          hintmask 11100100
          36 callsubr
          4 callgsubr
          hintmask 11101000
          -4 callsubr
          -93 callsubr
        </CharString>
        <CharString name="gcircumflex">
          87 -7 callgsubr
          hstemhm
          -17 81 -31 90 42 callgsubr
          475 586 rmoveto
          hintmask 11011000
          -92 169 rlineto
          hintmask 11100100
          -63 hlineto
          -144 -169 30 -25 136 118 93 -118 rlineto
          14 -225 rmoveto
          15 callsubr
          hintmask 11101000
          -16 13 -33 callgsubr
          rlinecurve
          31 callgsubr
          hintmask 11100100
          36 callsubr
          4 callgsubr
          hintmask 11101000
          -4 callsubr
          -93 callsubr
        </CharString>
        <CharString name="gcommaaccent">
          87 -7 callgsubr
          hstemhm
          -17 81 -31 90 150 95 hintmask 00000000
          hintmask 11101010
          391 755 rmoveto
          hintmask 11011010
          -77 -39 -41 -53 -45 vvcurveto
          hintmask 11100110
          -31 19 -21 27 26 23 20 28 vhcurveto
          21 -13 8 19 vvcurveto
          24 22 22 35 22 vhcurveto
          37 -394 67 callgsubr
          hintmask 11101010
          -33 callgsubr
          rrcurveto
          22 callgsubr
          hintmask 11100110
          4 callgsubr
          -65 78 -33 55 vhcurveto
          hintmask 11101010
          150 101 112 151 28 hvcurveto
          -93 callsubr
        </CharString>
        <CharString name="gdotaccent">
          87 -7 callgsubr
          159 111 hstemhm
          -17 81 -31 90 170 112 hintmask 00000000
          hintmask 11101101
          405 670 rmoveto
          hintmask 11011101
          40 -27 15 -30 vhcurveto
          hintmask 11101011
          -36 -19 -26 -29 -39 23 -17 31 35 23 26 30 hvcurveto
          44 -334 67 callgsubr
          -33 callgsubr
          rrcurveto
          hintmask 11101101
          22 callgsubr
          1 -8 rlineto
          hintmask 11101011
          -14 -1 -30 -9 -16 -10 rrcurveto
          -39 -26 -24 -35 -45 vvcurveto
          -4 callsubr
          hintmask 11101101
          -93 callsubr
        </CharString>
        <CharString name="germandbls">
          168 1 callgsubr
          53 375 42 255 56 hstemhm
          224 71 -13 70 73 94 -49 79 hintmask 0000000000000000
          hintmask 0110110010000000
          249 158 rmoveto
          -14 -45 -10 -61 -1 -31 rrcurveto
          -10 18 46 -20 63 hhcurveto
          119 79 73 85 67 -50 31 -49 25 hvcurveto
          hintmask 1011101100000000
          -49 25 -49 18 38 83 167 67 136 vvcurveto
          77 -46 56 -92 -141 -100 -132 -129 -16 vhcurveto
          -3 -16 -4 -16 -5 -3 -12 -3 rlinecurve
          -67 -12 callsubr
          80 -84 callsubr
          hhcurveto
          hintmask 0110101100000000
          -68 callgsubr
          -24 29 -3 17 120 78 147 216 35 hvcurveto
          59 367 12 103 29 59 33 25 rlinecurve
          16 21 22 2 14 hhcurveto
          62 20 -40 -50 hvcurveto
          -134 -143 -40 -117 vvcurveto
          -73 56 -30 51 -28 vhcurveto
          hintmask 0110110010000000
          42 -23 39 -21 -43 vvcurveto
          -14 -4 -26 -18 -16 vhcurveto
          -13 -15 -25 -4 -31 hhcurveto
          -65 -17 18 41 10 1 19 3 26 hvcurveto
          endchar
        </CharString>
        <CharString name="grave">
          -239 561 204 hstem
          87 159 vstem
          246 -54 callsubr
          endchar
        </CharString>
        <CharString name="grave.cap">
          -193 749 165 hstem
          115 214 vstem
          303 -49 callsubr
          endchar
        </CharString>
        <CharString name="greater">
          96 17 -21 hstem
          61 464 vstem
          525 225 rmoveto
          50 vlineto
          -464 230 rlineto
          -69 vlineto
          386 -186 -386 -185 rlineto
          -69 vlineto
          endchar
        </CharString>
        <CharString name="greaterequal">
          45 0 51 hstem
          376 56 vstem
          432 313 rmoveto
          75 vlineto
          -375 213 rlineto
          -69 vlineto
          319 -182 -319 -180 rlineto
          -69 vlineto
          375 -101 rmoveto
          51 -376 -51 vlineto
          endchar
        </CharString>
        <CharString name="guillemotleft">
          39 62 368 hstem
          93 387 vstem
          421 78 2 callsubr
          -152 16 2 callsubr
          endchar
        </CharString>
        <CharString name="guillemotright">
          39 62 368 hstem
          41 392 vstem
          430 244 7 callsubr
          19 182 7 callsubr
          endchar
        </CharString>
        <CharString name="guilsinglleft">
          -137 62 368 hstem
          74 211 vstem
          226 78 2 callsubr
          endchar
        </CharString>
        <CharString name="guilsinglright">
          -137 62 368 hstem
          24 216 vstem
          237 244 7 callsubr
          endchar
        </CharString>
        <CharString name="h">
          102 -9 59 -38 -21 430 67 274 10 hstemhm
          321 30 callsubr
          hintmask 10111000
          483 -34 callsubr
          hintmask 01110100
          -72 callgsubr
          9 41 16 67 24 51 8 42 rlinecurve
          34 176 6 32 4 -107 callsubr
          -102 -532 -62 callsubr
          16 -13 21 7 36 63 callsubr
          -67 callgsubr
          hintmask 01111000
          -70 callgsubr
          endchar
        </CharString>
        <CharString name="hbar">
          102 -9 59 -38 -21 430 67 97 53 124 10 hstemhm
          150 86 85 30 callsubr
          hintmask 10111110
          483 -34 callsubr
          hintmask 01111101
          -72 callgsubr
          9 41 16 67 24 51 8 42 rlinecurve
          17 90 rlineto
          174 hlineto
          10 53 rlineto
          -174 hlineto
          7 33 6 32 4 -107 callsubr
          -7 -33 rlineto
          -102 hlineto
          -10 -53 rlineto
          102 hlineto
          -85 -446 -62 callsubr
          16 -13 21 7 36 63 callsubr
          -67 callgsubr
          hintmask 01111110
          -70 callgsubr
          endchar
        </CharString>
        <CharString name="hcircumflex">
          102 -9 59 -38 -21 430 67 274 10 hstemhm
          321 30 callsubr
          hintmask 01110100
          360 805 rmoveto
          -116 139 rlineto
          -56 hlineto
          -156 -139 20 -26 156 91 122 -91 rlineto
          hintmask 10111000
          153 -705 rmoveto
          -15 -30 -20 -9 -11 hhcurveto
          -13 -3 12 7 15 16 64 17 68 hvcurveto
          hintmask 01110100
          -72 callgsubr
          9 41 16 67 24 51 8 42 rlinecurve
          34 176 6 32 4 -107 callsubr
          -102 -532 -62 callsubr
          16 -13 21 7 36 63 callsubr
          -67 callgsubr
          hintmask 01111000
          -70 callgsubr
          endchar
        </CharString>
        <CharString name="hungarumlaut">
          -21 561 204 hstem
          64 427 vstem
          487 -23 callgsubr
          endchar
        </CharString>
        <CharString name="hungarumlaut.cap">
          -11 751 164 hstem
          99 430 vstem
          525 -20 callgsubr
          endchar
        </CharString>
        <CharString name="hyphen">
          24 callgsubr
        </CharString>
        <CharString name="i">
          0 callgsubr
          130 111 hstemhm
          62 86 -11 112 hintmask 00000000
          hintmask 01110100
          249 670 rmoveto
          -80 callgsubr
          hintmask 10111000
          -25 -596 rmoveto
          -104 callgsubr
        </CharString>
        <CharString name="iacute">
          0 callgsubr
          hstemhm
          42 324 -304 86 hintmask 00000000
          hintmask 01110000
          362 -69 callgsubr
          hintmask 10101000
          42 -487 rmoveto
          -104 callgsubr
        </CharString>
        <CharString name="icircumflex">
          0 callgsubr
          hstemhm
          36 299 -273 86 hintmask 00000000
          hintmask 01110000
          335 -82 callgsubr
          hintmask 10101000
          -71 -487 rmoveto
          -104 callgsubr
        </CharString>
        <CharString name="idieresis">
          0 callgsubr
          116 110 hstemhm
          22 108 -68 86 67 108 hintmask 00000000
          hintmask 01111010
          261 600 rmoveto
          34 28 -97 callgsubr
          27 hvcurveto
          -193 hmoveto
          34 28 -97 callgsubr
          27 hvcurveto
          hintmask 10110110
          156 -526 rmoveto
          -104 callgsubr
        </CharString>
        <CharString name="igrave">
          0 callgsubr
          hstemhm
          42 199 -179 86 hintmask 00000000
          hintmask 01110000
          238 -54 callsubr
          hintmask 10101000
          21 -487 rmoveto
          -104 callgsubr
        </CharString>
        <CharString name="ij">
          85 -32 callsubr
          483 10 130 111 hstemhm
          62 86 -11 112 141 112 hintmask 0000000000000000
          hintmask 1001110110000000
          502 670 rmoveto
          -80 callgsubr
          -253 hmoveto
          -80 callgsubr
          73 -549 18 callsubr
          hhcurveto
          hintmask 0101110110000000
          -32 callgsubr
          hvcurveto
          hintmask 1010111010000000
          -4 callgsubr
          43 239 6 32 4 -107 callsubr
          -146 -309 rmoveto
          -104 callgsubr
        </CharString>
        <CharString name="imacron">
          0 callgsubr
          158 60 hstemhm
          42 276 -256 86 hintmask 00000000
          hintmask 01111000
          307 642 -59 callsubr
          hintmask 10110100
          166 -568 rmoveto
          -104 callgsubr
        </CharString>
        <CharString name="infinity">
          338 128 52 -52 58 207 58 -52 52 hstemhm
          63 59 537 59 hintmask 00000000
          hintmask 10011100
          379 224 rmoveto
          hintmask 01011100
          -66 41 61 -30 65 hhcurveto
          98 74 65 108 101 -77 49 -78 -76 -53 -49 -47 -32 hvcurveto
          hintmask 10101100
          66 -41 -61 30 -65 hhcurveto
          -98 -74 -66 -107 -101 77 -49 78 hvcurveto
          hintmask 10011100
          76 53 49 47 32 hvcurveto
          hintmask 01011100
          51 86 rmoveto
          48 26 49 41 57 hhcurveto
          65 32 -50 -57 -62 -44 -44 -51 -61 -37 59 65 -36 hvcurveto
          hintmask 10101100
          -79 -41 rmoveto
          -41 -21 -41 -48 -62 hhcurveto
          -64 -41 49 60 59 44 45 52 60 37 -60 -64 36 hvcurveto
          endchar
        </CharString>
        <CharString name="integral">
          -39 -137 79 833 79 hstem
          145 100 vstem
          15 -130 rmoveto
          -4 23 18 -3 35 hhcurveto
          60 94 121 130 hvcurveto
          160 -10 157 157 vvcurveto
          83 10 79 15 18 vhcurveto
          5 9 13 2 17 hhcurveto
          15 20 -3 -7 27 hvcurveto
          12 18 5 20 20 vvcurveto
          8 -1 8 -2 8 vhcurveto
          4 -23 -18 3 -35 hhcurveto
          -60 -94 -121 -130 hvcurveto
          -160 10 -158 -158 vvcurveto
          -83 -9 -78 -16 -17 vhcurveto
          -5 -11 -9 -2 -19 hhcurveto
          -16 -19 3 7 -27 hvcurveto
          -12 -18 -5 -20 -20 vvcurveto
          -8 1 -8 2 -8 vhcurveto
          endchar
        </CharString>
        <CharString name="iogonek">
          -168 -215 56 172 -21 482 10 130 111 hstemhm
          29 84 -51 86 -21 112 hintmask 00000000
          hintmask 11110010
          239 670 rmoveto
          -80 callgsubr
          -19 -819 rmoveto
          hintmask 11111010
          14 callsubr
          77 75 44 53 39 hvcurveto
          hintmask 11110100
          -17 27 rlineto
          -77 callsubr
          5 28 1 7 hvcurveto
          49 263 6 32 4 -107 callsubr
          -44 -244 rlineto
          -4 -22 -7 -42 -21 vvcurveto
          -31 8 -25 31 -6 vhcurveto
          hintmask 11111010
          -50 -40 -22 -40 -44 8 callgsubr
          endchar
        </CharString>
        <CharString name="itilde">
          0 callgsubr
          111 77 -35 77 hstemhm
          -6 378 -310 86 hintmask 00000000
          hintmask 01110100
          350 -24 callsubr
          hintmask 01101100
          11 callgsubr
          hintmask 01110100
          36 callgsubr
          hintmask 01101100
          49 callgsubr
          hintmask 01110100
          37 callsubr
          -148 -628 rmoveto
          hintmask 10110010
          -104 callgsubr
        </CharString>
        <CharString name="j">
          -167 -38 callgsubr
          586 10 130 111 hstemhm
          138 112 hintmask 00000000
          hintmask 10111000
          250 670 rmoveto
          -80 callgsubr
          -180 -549 18 callsubr
          hhcurveto
          hintmask 01111000
          -32 callgsubr
          hvcurveto
          hintmask 10111000
          -4 callgsubr
          43 239 6 32 4 -107 callsubr
          endchar
        </CharString>
        <CharString name="jcircumflex">
          -167 -38 callgsubr
          586 10 hstemhm
          -133 460 hintmask 00000000
          hintmask 10110000
          327 -82 callgsubr
          -217 -440 18 callsubr
          hhcurveto
          hintmask 01110000
          -32 callgsubr
          hvcurveto
          hintmask 10110000
          -4 callgsubr
          43 239 6 32 4 -107 callsubr
          endchar
        </CharString>
        <CharString name="k">
          71 -9 59 363 75 274 10 hstemhm
          19 462 41 callsubr
          458 -75 callsubr
          34 176 6 32 4 -107 callsubr
          -102 -532 -42 callsubr
        </CharString>
        <CharString name="kcommaaccent">
          71 45 callsubr
          59 363 75 274 10 hstemhm
          141 95 hintmask 00000000
          hintmask 11111000
          458 -75 callsubr
          34 176 6 32 4 -107 callsubr
          -102 -532 -62 callsubr
          16 -13 21 7 36 63 callsubr
          78 21 95 32 69 vhcurveto
          107 -182 rlineto
          -66 39 18 -8 26 hhcurveto
          29 40 18 38 46 hvcurveto
          -357 -257 rmoveto
          -96 callsubr
        </CharString>
        <CharString name="kgreenlandic">
          92 -9 59 -38 -21 422 75 -20 10 -10 20 hstemhm
          40 462 hintmask 00000000
          hintmask 10100100
          479 74 rmoveto
          -15 -31 -20 -9 -10 hhcurveto
          -11 -7 7 17 -10 hvcurveto
          -149 254 rlineto
          55 46 53 30 43 14 40 -33 20 hhcurveto
          hintmask 01001100
          19 26 45 34 22 -43 7 -16 -89 -123 -77 -119 -55 hvcurveto
          -6 2 rlineto
          hintmask 01010100
          45 174 -106 callgsubr
          -45 -238 -42 callsubr
        </CharString>
        <CharString name="l">
          -187 -9 59 712 10 hstemhm
          41 86 hintmask 00000000
          hintmask 11100000
          203 74 -58 callsubr
          4 26 2 9 hvcurveto
          107 551 6 32 4 -107 callsubr
          -102 -532 -71 callsubr
          endchar
        </CharString>
        <CharString name="lacute">
          47 callsubr
          334 hintmask 00000000
          hintmask 01101000
          363 892 rmoveto
          12 21 -56 51 -198 -129 24 -36 rlineto
          hintmask 10110000
          58 -725 -58 callsubr
          4 26 2 9 hvcurveto
          107 551 6 32 4 -107 callsubr
          -102 -532 -71 callsubr
          endchar
        </CharString>
        <CharString name="lcaron">
          47 callsubr
          374 hintmask 00000000
          hintmask 01101000
          317 -42 callgsubr
          hintmask 10110000
          -75 -517 -58 callsubr
          4 26 2 9 hvcurveto
          107 551 6 32 4 -107 callsubr
          -102 -532 -71 callsubr
          endchar
        </CharString>
        <CharString name="lcommaaccent">
          -187 45 callsubr
          59 -38 -21 771 10 hstemhm
          40 95 -94 86 hintmask 00000000
          hintmask 11010100
          203 74 -58 callsubr
          4 26 2 9 hvcurveto
          107 551 6 32 4 -107 callsubr
          -102 -532 -71 callsubr
          -203 -257 rmoveto
          hintmask 10111000
          -96 callsubr
        </CharString>
        <CharString name="ldot">
          -98 -9 59 284 115 313 10 hstemhm
          41 86 107 118 hintmask 00000000
          hintmask 11111000
          203 74 -58 callsubr
          4 26 2 9 hvcurveto
          107 551 6 32 4 -107 callsubr
          -102 -532 -71 callsubr
          65 287 6 callgsubr
        </CharString>
        <CharString name="less">
          96 17 -21 hstem
          26 464 vstem
          490 -4 rmoveto
          69 vlineto
          -386 185 386 186 rlineto
          69 vlineto
          -464 -230 rlineto
          -50 vlineto
          endchar
        </CharString>
        <CharString name="lessequal">
          45 0 51 hstem
          56 56 vstem
          431 101 rmoveto
          69 vlineto
          -319 180 319 182 rlineto
          69 vlineto
          -375 -213 rlineto
          -75 vlineto
          376 -313 rmoveto
          51 -376 -51 vlineto
          endchar
        </CharString>
        <CharString name="logicalnot">
          95 335 53 hstem
          423 57 vstem
          480 164 rmoveto
          224 -426 -53 369 -171 vlineto
          endchar
        </CharString>
        <CharString name="longs">
          -151 -38 callgsubr
          531 42 255 56 hstemhm
          -126 602 -71 71 hintmask 00000000
          hintmask 10111000
          62 -40 callsubr
          59 367 20 127 27 38 30 26 rlinecurve
          hintmask 10110100
          5 6 22 9 34 hhcurveto
          52 2 -52 callgsubr
          -24 -35 4 -27 hhcurveto
          -133 -114 -109 -152 -19 hvcurveto
          -3 -16 -4 -16 -5 -3 -12 -3 rlinecurve
          -67 -12 callsubr
          80 hlineto
          endchar
        </CharString>
        <CharString name="lozenge">
          73 -67 64 711 64 hstem
          41 458 vstem
          307 -67 rmoveto
          192 420 -192 419 rlineto
          -86 hlineto
          -180 -419 180 -420 rlineto
          42 64 rmoveto
          -145 356 145 355 159 -355 rlineto
          endchar
        </CharString>
        <CharString name="lslash">
          -147 -9 59 712 10 hstemhm
          42 86 hintmask 00000000
          hintmask 11100000
          204 74 -58 callsubr
          4 26 2 9 hvcurveto
          50 259 131 77 -20 43 -99 -58 45 230 6 32 4 -107 callsubr
          -55 -286 -96 -56 20 -43 64 37 -35 -184 -71 callsubr
          endchar
        </CharString>
        <CharString name="m">
          381 -9 59 -38 -21 430 67 -20 10 hstemhm
          393 81 126 30 callsubr
          hintmask 10101100
          762 -34 callsubr
          hintmask 01101010
          -3 callsubr
          46 -23 35 -61 -103 -86 -116 -80 -33 vhcurveto
          -6 2 rlineto
          9 27 16 59 29 vvcurveto
          46 -20 33 -60 -99 -88 -115 -81 -31 vhcurveto
          -6 2 rlineto
          hintmask 01011010
          43 174 -106 callgsubr
          -43 -44 callsubr
          16 -13 21 7 36 63 callsubr
          80 20 92 37 77 vhcurveto
          hintmask 01101010
          91 44 66 76 57 hhcurveto
          23 8 -11 -23 -9 0 -15 -4 -18 hvcurveto
          -46 -206 -17 -74 -3 -18 -14 -43 rlinecurve
          16 -13 20 7 37 63 callsubr
          80 38 108 29 61 vhcurveto
          91 43 67 76 57 hhcurveto
          24 8 -11 -22 -13 -1 -17 -13 -49 hvcurveto
          hintmask 01101100
          -70 callgsubr
          endchar
        </CharString>
        <CharString name="macron">
          -172 642 60 hstem
          74 260 vstem
          323 642 -59 callsubr
          endchar
        </CharString>
        <CharString name="macron.cap">
          -172 804 60 hstem
          101 260 vstem
          350 804 -59 callsubr
          endchar
        </CharString>
        <CharString name="minus">
          45 244 53 hstem
          55 376 vstem
          431 244 45 callgsubr
          endchar
        </CharString>
        <CharString name="mu">
          113 -47 callsubr
          hstemhm
          352 77 hintmask 00000000
          hintmask 10010100
          505 74 -85 callsubr
          hintmask 01001100
          -16 13 rlineto
          hintmask 01010100
          -91 callgsubr
          hintmask 01100100
          39 190 6 32 4 -107 callsubr
          -130 -589 12 -17 89 40 7 185 3 2 rlineto
          -8 12 12 -5 21 hhcurveto
          85 88 80 116 53 hvcurveto
          6 -46 callgsubr
          -28 11 -22 32 -10 callgsubr
        </CharString>
        <CharString name="multiply">
          75 348 hstem
          97 349 vstem
          446 110 rmoveto
          -139 140 139 137 -37 36 -138 -137 -137 137 -36 -35 138 -138 -139 -139 36 -36 139 139 138 -139 rlineto
          endchar
        </CharString>
        <CharString name="n">
          123 -9 59 -38 -21 430 67 -20 10 hstemhm
          342 30 callsubr
          hintmask 10101000
          504 74 -90 callgsubr
        </CharString>
        <CharString name="nacute">
          123 -9 59 -38 -21 430 67 -20 10 hstemhm
          342 30 callsubr
          hintmask 01100100
          467 -69 callgsubr
          hintmask 10101000
          217 -487 -90 callgsubr
        </CharString>
        <CharString name="napostrophe">
          123 -9 59 -38 -21 430 67 -20 10 hstemhm
          177 90 75 30 callsubr
          hintmask 01101010
          164 18 callgsubr
          hintmask 10101100
          360 -506 rmoveto
          -15 -30 -20 -9 -11 hhcurveto
          -13 -3 12 7 15 16 64 17 68 hvcurveto
          hintmask 01101010
          -72 callgsubr
          rlineto
          hintmask 01011010
          -88 callsubr
          hintmask 01101010
          -67 callgsubr
          hintmask 01101100
          -70 callgsubr
          endchar
        </CharString>
        <CharString name="nbspace">
          -226 endchar
        </CharString>
        <CharString name="ncaron">
          123 -9 59 -38 -21 430 67 -20 10 hstemhm
          342 30 callsubr
          hintmask 01100100
          363 -64 callgsubr
          hintmask 10101000
          204 -492 -90 callgsubr
        </CharString>
        <CharString name="ncommaaccent">
          123 45 callsubr
          59 -38 -21 430 67 -20 10 hstemhm
          183 95 64 30 callsubr
          hintmask 11010110
          504 -34 callsubr
          hintmask 10110101
          -72 callgsubr
          rlineto
          hintmask 10101101
          -88 callsubr
          hintmask 10110101
          -67 callgsubr
          hintmask 10110110
          -70 callgsubr
          -361 -257 rmoveto
          -96 callsubr
        </CharString>
        <CharString name="nine">
          95 125 69 309 49 hstem
          62 99 249 91 vstem
          52 -137 rmoveto
          316 39 133 -86 callgsubr
        </CharString>
        <CharString name="nine.dnom">
          -72 151 48 187 35 hstem
          33 75 157 69 vstem
          236 180 -83 callgsubr
        </CharString>
        <CharString name="nine.fitted">
          95 250 69 309 49 hstem
          71 99 249 91 vstem
          62 -12 rmoveto
          316 39 132 -86 callgsubr
        </CharString>
        <CharString name="nine.inf">
          -72 -12 48 187 35 hstem
          3 75 157 69 vstem
          206 17 -83 callgsubr
        </CharString>
        <CharString name="nine.numr">
          -72 430 48 187 35 hstem
          85 75 157 69 vstem
          288 459 -83 callgsubr
        </CharString>
        <CharString name="nine.sup">
          -72 586 48 187 35 hstem
          114 75 157 69 vstem
          317 615 -83 callgsubr
        </CharString>
        <CharString name="nine.tab">
          250 69 309 49 hstem
          76 99 249 91 vstem
          67 -12 rmoveto
          316 39 132 -86 callgsubr
        </CharString>
        <CharString name="nine.tabonum">
          125 69 309 49 hstem
          62 99 249 91 vstem
          52 -137 rmoveto
          316 39 133 -86 callgsubr
        </CharString>
        <CharString name="notequal">
          45 173 53 84 53 110 -20 hstem
          65 376 vstem
          441 173 rmoveto
          53 -172 vlineto
          44 84 rlineto
          128 53 -101 hlineto
          57 110 -55 20 -67 -130 rlineto
          -210 -53 183 hlineto
          -44 -84 rlineto
          -139 -53 112 hlineto
          -56 -110 54 -20 67 130 rlineto
          endchar
        </CharString>
        <CharString name="ntilde">
          123 -9 59 -38 -21 430 67 -20 10 117 77 -35 77 hstemhm
          342 30 callsubr
          hintmask 01101001
          518 -24 callsubr
          hintmask 01100101
          11 callgsubr
          hintmask 01101001
          36 callgsubr
          hintmask 01100101
          49 callgsubr
          hintmask 10101010
          37 callsubr
          -36 -628 rmoveto
          -15 -30 -20 -9 -11 hhcurveto
          -13 -3 12 7 15 16 64 17 68 hvcurveto
          -3 callsubr
          hintmask 01101001
          46 -23 35 -61 -90 -94 -75 -121 -59 vhcurveto
          -6 2 15 71 17 66 11 37 rlinecurve
          hintmask 01011001
          -106 callgsubr
          -43 -44 callsubr
          16 -13 21 7 36 63 callsubr
          231 147 185 98 vhcurveto
          hintmask 01101001
          24 8 -11 -22 -13 -1 -17 -13 -49 hvcurveto
          -52 -190 -7 -36 -29 vvcurveto
          hintmask 01101010
          -28 12 -35 40 -10 callgsubr
        </CharString>
        <CharString name="numbersign">
          130 21 -21 222 59 152 59 hstem
          45 530 vstem
          321 hmoveto
          70 222 rlineto
          113 hlineto
          11 59 rlineto
          -106 hlineto
          48 152 rlineto
          107 hlineto
          11 59 rlineto
          -100 60 callsubr
          -132 60 callsubr
          -111 hlineto
          -11 -59 rlineto
          104 hlineto
          -48 -152 rlineto
          -105 hlineto
          -11 -59 rlineto
          97 hlineto
          -70 -222 rlineto
          59 hlineto
          70 222 rlineto
          131 hlineto
          -70 -222 rlineto
          89 281 rmoveto
          -132 hlineto
          48 152 rlineto
          132 hlineto
          endchar
        </CharString>
        <CharString name="o">
          -3 callgsubr
          191 -9 -99 callsubr
        </CharString>
        <CharString name="oacute">
          -3 callgsubr
          485 -69 callgsubr
          -114 -570 -99 callsubr
        </CharString>
        <CharString name="ocircumflex">
          -3 callgsubr
          458 -82 callgsubr
          -227 -570 -99 callsubr
        </CharString>
        <CharString name="odieresis">
          54 -9 53 391 53 112 110 hstemhm
          33 94 56 108 70 94 -79 108 hintmask 00000000
          hintmask 11010100
          422 600 rmoveto
          34 28 -97 callgsubr
          27 hvcurveto
          -193 hmoveto
          34 28 -97 callgsubr
          27 hvcurveto
          -38 -609 rmoveto
          175 89 181 145 hvcurveto
          hintmask 11111010
          107 -55 64 -104 -176 -87 -183 -145 -106 55 -63 103 vhcurveto
          103 79 rmoveto
          -15 -19 -36 -11 -23 hhcurveto
          -62 -27 52 76 102 43 116 24 19 hvcurveto
          15 19 35 11 23 hhcurveto
          63 27 -52 -76 -102 -43 -116 -24 -19 hvcurveto
          endchar
        </CharString>
        <CharString name="oe">
          310 -9 53 -53 73 368 56 -53 53 hstemhm
          33 94 234 84 188 88 hintmask 00000000
          hintmask 01011110
          669 12 callsubr
          -69 -64 -32 -53 -48 vhcurveto
          54 -23 -48 31 -72 hhcurveto
          -176 -87 -183 -145 hvcurveto
          hintmask 10011110
          -106 55 -63 103 76 60 34 51 44 vhcurveto
          -61 27 56 -24 51 hhcurveto
          0 callsubr
          hvcurveto
          -399 -21 rmoveto
          -15 -19 -36 -11 -23 hhcurveto
          -62 -27 52 76 102 43 116 24 19 hvcurveto
          15 19 35 11 23 hhcurveto
          63 27 -52 -76 -102 -43 -116 -24 -19 hvcurveto
          158 188 rmoveto
          hintmask 10101110
          38 callsubr
          hvcurveto
          hintmask 10011110
          -55 -70 -45 -111 -26 vhcurveto
          endchar
        </CharString>
        <CharString name="ogonek">
          -138 -215 56 hstem
          25 84 vstem
          216 -149 rmoveto
          14 callsubr
          68 59 46 90 57 hvcurveto
          -8 22 rlineto
          -161 -74 -64 -62 -76 8 callgsubr
          endchar
        </CharString>
        <CharString name="ogonek.cap">
          -118 -215 56 159 26 hstem
          25 85 vstem
          218 3 callsubr
          49 85 3 hvcurveto
          5 26 rlineto
          -156 -97 -91 -73 -46 38 -31 45 24 47 9 37 48 hvcurveto
          endchar
        </CharString>
        <CharString name="ograve">
          -3 callgsubr
          361 -54 callsubr
          -135 -570 -99 callsubr
        </CharString>
        <CharString name="ohungarumlaut">
          -3 callgsubr
          595 -23 callgsubr
          -11 -570 -99 callsubr
        </CharString>
        <CharString name="omacron">
          54 -9 53 391 53 154 60 hstem
          33 94 234 94 vstem
          452 642 -59 callsubr
          -12 -651 -99 callsubr
        </CharString>
        <CharString name="one">
          -67 0 39 498 10 hstemhm
          129 87 hintmask 00000000
          hintmask 11100000
          299 hmoveto
          6 39 -70 11 rlineto
          -15 2 -4 7 12 vvcurveto
          6 1 7 1 8 vhcurveto
          83 445 -10 10 -46 -1 -103 -24 -41 -16 rlinecurve
          -38 vlineto
          2 19 31 3 19 21 callgsubr
          -57 -307 65 callgsubr
          endchar
        </CharString>
        <CharString name="one.dnom">
          -144 0 44 callgsubr
          15 138 hintmask 00000000
          hintmask 10110000
          207 hmoveto
          -77 callgsubr
        </CharString>
        <CharString name="one.fitted">
          -7 0 39 560 33 35 10 hstemhm
          47 305 -196 87 41 callsubr
          326 hmoveto
          6 39 -70 11 rlineto
          -15 2 -4 7 12 vvcurveto
          6 1 7 1 8 vhcurveto
          107 575 -10 10 rlineto
          hintmask 11101000
          -50 -1 -116 -28 -45 -16 rrcurveto
          -38 vlineto
          2 25 39 3 25 21 callgsubr
          -80 -433 65 callgsubr
          endchar
        </CharString>
        <CharString name="one.inf">
          -144 -163 44 callgsubr
          -16 138 hintmask 00000000
          hintmask 10110000
          176 -163 rmoveto
          -77 callgsubr
        </CharString>
        <CharString name="one.numr">
          -144 279 44 callgsubr
          67 138 41 callsubr
          259 279 rmoveto
          -77 callgsubr
        </CharString>
        <CharString name="one.tab">
          0 45 554 33 35 10 hstemhm
          62 345 -206 87 41 callsubr
          401 hmoveto
          6 39 rlineto
          hintmask 11101000
          -104 12 rlineto
          -12 1 -3 11 11 vvcurveto
          7 1 6 1 6 vhcurveto
          107 574 -9 10 -54 -1 -121 -28 -47 -16 rlinecurve
          -38 vlineto
          2 28 43 3 28 21 callgsubr
          -80 -433 54 callsubr
        </CharString>
        <CharString name="one.tabonum">
          0 44 429 33 31 10 hstemhm
          73 345 -206 87 41 callsubr
          412 hmoveto
          6 39 rlineto
          hintmask 11101000
          -99 11 rlineto
          -15 2 -5 7 13 vvcurveto
          10 3 12 2 14 vhcurveto
          80 429 -10 10 -55 -1 -118 -24 -47 -16 rlinecurve
          -38 vlineto
          2 28 43 3 28 21 callgsubr
          -57 -307 54 callsubr
        </CharString>
        <CharString name="onehalf">
          370 0 53 226 32 72 38 224 25 22 8 hstemhm
          67 138 305 46 147 80 hintmask 00000000
          hintmask 11110111
          28 callsubr
          hintmask 11111111
          64 344 -10 8 rlineto
          hintmask 11110111
          -18 callgsubr
          604 hmoveto
          -92 callgsubr
        </CharString>
        <CharString name="onequarter">
          337 0 32 73 43 131 32 102 8 224 25 22 8 hstemhm
          67 138 392 69 hintmask 00000000
          hintmask 11111111
          259 279 rmoveto
          -1 callgsubr
          -18 callgsubr
          559 hmoveto
          4 29 -37 7 rlineto
          -7 2 -2 4 5 vvcurveto
          3 2 10 1 5 vhcurveto
          7 40 rlineto
          58 hlineto
          10 40 rlineto
          -21 -18 1 -21 hhcurveto
          50 267 -10 8 rlineto
          -15 -29 -4 -4 -18 hvcurveto
          -256 -267 7 -39 3 -2 rlineto
          191 hlineto
          -8 -43 -3 -17 -15 -9 -53 -7 rlinecurve
          hintmask 11101010
          -51 callgsubr
          -2 -3 -1 -2 -1 -4 rlinecurve
          endchar
        </CharString>
        <CharString name="onesuperior">
          -144 435 44 callgsubr
          96 138 hintmask 00000000
          hintmask 10110000
          288 435 rmoveto
          -77 callgsubr
        </CharString>
        <CharString name="ordfeminine">
          -34 227 53 58 42 -42 48 276 40 hstemhm
          78 76 141 67 hintmask 00000000
          hintmask 11011100
          416 401 rmoveto
          -14 -25 -15 -7 -7 hhcurveto
          -6 -1 8 9 9 5 29 4 23 hvcurveto
          25 133 4 24 8 41 12 36 rlinecurve
          -15 11 -22 -9 -15 -4 -12 -3 rlinecurve
          8 -22 -25 7 -24 hhcurveto
          -114 -93 -108 -155 hvcurveto
          hintmask 10111100
          -54 23 -47 59 68 49 57 73 35 vhcurveto
          6 -2 rlineto
          hintmask 11011100
          -7 -32 -16 -45 -15 vvcurveto
          -20 8 -16 29 22 36 13 28 40 vhcurveto
          -100 261 rmoveto
          hintmask 10111100
          -102 -11 -77 -152 -59 hhcurveto
          -20 -9 24 52 61 31 95 33 32 hvcurveto
          6 6 22 6 17 hhcurveto
          hintmask 11011100
          26 28 -13 -9 13 hvcurveto
          hintmask 10111000
          67 -413 rmoveto
          10 53 rlineto
          -346 hlineto
          -10 -53 rlineto
          endchar
        </CharString>
        <CharString name="ordmasculine">
          -59 227 53 58 38 288 38 hstem
          88 80 163 79 vstem
          210 338 -37 callsubr
        </CharString>
        <CharString name="oslash">
          54 -9 53 391 53 -11 -20 95 -20 hstemhm
          33 94 234 94 hintmask 00000000
          hintmask 11011100
          79 -66 rmoveto
          43 68 rlineto
          -7 20 23 -4 26 hhcurveto
          175 89 181 145 58 -17 45 -31 30 hvcurveto
          65 102 rlineto
          hintmask 10111100
          -51 20 -60 -95 rlineto
          hintmask 11011100
          7 -19 -22 4 -24 hhcurveto
          -176 -87 -183 -145 -56 15 -44 30 -29 hvcurveto
          -49 -77 rlineto
          103 163 rmoveto
          -4 16 -1 19 20 vvcurveto
          102 43 116 24 19 vhcurveto
          15 19 35 11 23 hhcurveto
          21 18 -6 -11 13 hvcurveto
          31 -52 rmoveto
          5 -17 2 -20 -22 vvcurveto
          -102 -43 -116 -24 -19 vhcurveto
          -15 -19 -36 -11 -23 hhcurveto
          -23 -18 7 12 -14 hvcurveto
          endchar
        </CharString>
        <CharString name="otilde">
          54 -9 53 391 53 107 77 -35 77 hstemhm
          33 94 234 94 hintmask 00000000
          hintmask 11101100
          506 -24 callsubr
          hintmask 11011100
          11 callgsubr
          hintmask 11101100
          36 callgsubr
          hintmask 11011100
          49 callgsubr
          hintmask 11101100
          37 callsubr
          -337 -711 -99 callsubr
        </CharString>
        <CharString name="p">
          87 -198 -21 210 56 374 67 -20 10 hstemhm
          404 90 42 callgsubr
          12 6 callsubr
          -93 -66 -87 -109 -49 hvcurveto
          -8 2 rlineto
          hintmask 11011000
          36 174 -106 callgsubr
          -84 -448 -62 callsubr
          157 282 rmoveto
          hintmask 11101000
          -56 callgsubr
          hintmask 11011000
          31 callsubr
        </CharString>
        <CharString name="paragraph">
          176 -119 85 62 10 602 53 hstem
          122 530 vstem
          198 -111 rmoveto
          -5 25 19 -3 38 hhcurveto
          64 103 123 124 23 hvcurveto
          90 488 2 12 3 -93 callgsubr
          -288 hlineto
          -158 -84 -92 -142 -97 53 -81 112 -11 callgsubr
          endchar
        </CharString>
        <CharString name="paragraph.alt1">
          176 -119 85 62 10 240 53 309 53 hstem
          73 107 vstem
          178 -111 rmoveto
          -5 25 19 -3 38 hhcurveto
          65 102 123 124 23 hvcurveto
          90 488 2 12 3 -93 callgsubr
          -348 hlineto
          -137 -74 -96 -133 -100 61 -83 133 -11 callgsubr
          98 433 rmoveto
          -44 -52 20 94 162 81 33 47 hvcurveto
          11 hlineto
          8 4 -6 -5 -5 -1 -4 -1 -5 hvcurveto
          endchar
        </CharString>
        <CharString name="paragraph.alt2">
          176 0 39 601 53 hstem
          92 530 vstem
          500 -31 callsubr
          -288 hlineto
          -158 -84 -92 -142 -97 53 -81 112 -3 hvcurveto
          -33 -177 -7 -39 -4 -10 -77 -13 rlinecurve
          -2 -39 rlineto
          153 hlineto
          119 640 68 callgsubr
        </CharString>
        <CharString name="paragraph.alt3">
          176 0 53 587 53 hstem
          80 572 vstem
          530 -31 callsubr
          -213 hlineto
          -266 -93 -215 -178 -145 66 -155 187 hvcurveto
          41 53 rmoveto
          -47 hlineto
          109 587 rlineto
          47 hlineto
          endchar
        </CharString>
        <CharString name="paragraph.alt4">
          176 -119 85 34 39 601 53 hstem
          41 581 vstem
          500 -31 callsubr
          -288 hlineto
          -158 -84 -92 -142 -97 53 -81 112 -3 hvcurveto
          -23 -120 -16 -86 -16 -79 -31 -19 rlinecurve
          -5 -9 -9 -3 -14 hhcurveto
          -17 -20 4 7 -28 hvcurveto
          -20 -24 -13 -26 -29 vvcurveto
          -9 vlineto
          -5 25 19 -3 38 hhcurveto
          63 102 123 124 23 hvcurveto
          95 512 68 callgsubr
        </CharString>
        <CharString name="parenleft">
          -130 -189 950 hstem
          65 80 vstem
          231 -161 rmoveto
          -52 77 -34 131 129 vvcurveto
          219 99 200 144 138 vhcurveto
          -29 28 rlineto
          -165 -142 -129 -194 -227 vvcurveto
          -170 72 -148 55 -69 vhcurveto
          endchar
        </CharString>
        <CharString name="parenright">
          -130 -189 950 hstem
          209 81 vstem
          -6 -189 rmoveto
          163 143 133 203 226 vvcurveto
          164 -70 142 -60 72 vhcurveto
          -39 -28 rlineto
          56 -83 32 -127 -122 vvcurveto
          -215 -99 -202 -145 -145 vhcurveto
          endchar
        </CharString>
        <CharString name="partialdiff">
          85 -10 52 327 52 228 53 hstem
          20 95 305 104 vstem
          408 372 rmoveto
          28 -31 -49 21 -50 hhcurveto
          -127 -131 -126 -146 -96 60 -63 100 215 129 253 187 147 -71 125 -149 -77 -63 -31 -43 -47 hvcurveto
          16 -31 32 -21 16 -4 rrcurveto
          33 32 41 44 58 hhcurveto
          62 46 -49 -115 -32 -4 -38 -8 -43 hvcurveto
          -18 -67 rmoveto
          -64 -12 -65 -199 -118 hhcurveto
          -54 -26 45 54 67 65 161 113 44 43 -26 -38 10 hvcurveto
          endchar
        </CharString>
        <CharString name="percent">
          387 27 callgsubr
          hintmask 0000000000000000
          hintmask 1011111010000000
          -11 callsubr
          hintmask 1011111110000000
          -49 -29 42 87 94 29 131 83 49 29 -48 -91 -99 -29 -116 -83 hvcurveto
          352 -333 rmoveto
          117 88 132 127 94 -54 77 -89 -120 -85 -137 -123 -94 52 -76 91 hvcurveto
          14 38 rmoveto
          hintmask 0111111010000000
          -49 -29 42 87 94 29 131 83 49 29 -48 -91 -99 -29 -116 -83 hvcurveto
          endchar
        </CharString>
        <CharString name="period">
          -169 -9 122 hstem
          94 125 vstem
          149 -9 -13 callgsubr
          endchar
        </CharString>
        <CharString name="periodcentered">
          -181 193 130 hstem
          70 134 vstem
          204 266 -36 callgsubr
        </CharString>
        <CharString name="perthousand">
          762 27 callgsubr
          27 51 callgsubr
          hintmask 0000000000000000
          hintmask 1011111010100000
          -11 callsubr
          hintmask 1001000101100000
          -49 -29 42 87 94 29 131 83 49 29 -48 -91 -99 -29 -116 -83 hvcurveto
          727 -333 rmoveto
          117 88 132 127 94 -54 77 -89 -120 -85 -137 -123 -94 52 -76 91 hvcurveto
          -375 hmoveto
          117 88 132 127 hvcurveto
          hintmask 1001000110000000
          94 -54 77 -89 -120 -85 -137 -123 -94 52 -76 91 vhcurveto
          hintmask 1001000101100000
          389 38 rmoveto
          hintmask 1001000110000000
          -49 -29 42 87 94 29 131 83 49 29 -48 -91 -99 -29 -116 -83 hvcurveto
          -375 hmoveto
          hintmask 0100010000000000
          -49 -29 42 87 94 29 131 83 49 29 -48 -91 -99 -29 -116 -83 hvcurveto
          endchar
        </CharString>
        <CharString name="pi">
          175 -9 59 -50 39 -27 -21 405 77 5 -20 93 -20 hstemhm
          336 77 hintmask 00000000
          hintmask 10010110
          489 74 rmoveto
          -8 -15 -32 -16 -16 hhcurveto
          -12 -1 11 11 25 41 216 18 84 hvcurveto
          104 hlineto
          17 51 8 52 5 51 -46 4 rcurveline
          hintmask 01001110
          -19 -62 -7 -12 -10 -3 rrcurveto
          hintmask 01010110
          -2 -7 -22 -3 -33 hhcurveto
          -376 hlineto
          -17 -52 -9 -52 -7 -52 45 -5 rcurveline
          30 72 5 5 11 3 6 2 26 0 24 1 -41 -219 -24 -85 -22 -25 -14 -15 -21 -7 -24 -5 rrcurveto
          -39 115 vlineto
          30 72 46 205 22 119 rrcurveto
          137 hlineto
          hintmask 00110110
          -50 -247 -18 -84 -24 vvcurveto
          -25 8 -25 36 31 57 27 29 38 vhcurveto
          endchar
        </CharString>
        <CharString name="plus">
          45 244 53 hstem
          218 50 vstem
          268 73 29 callgsubr
          endchar
        </CharString>
        <CharString name="plusminus">
          60 -1 53 254 53 hstem
          227 50 vstem
          277 135 29 callgsubr
          213 -136 45 callgsubr
          endchar
        </CharString>
        <CharString name="prescription">
          231 -8 71 -63 39 213 71 -19 51 285 53 hstemhm
          479 109 hintmask 00000000
          hintmask 01011100
          617 hmoveto
          5 39 -50 4 -11 10 -14 27 rlinecurve
          hintmask 01101100
          -45 87 rlineto
          52 32 32 33 15 17 23 -8 15 hhcurveto
          14 17 35 25 15 -24 4 -12 -33 -24 -10 -30 -29 hvcurveto
          -17 -19 -20 -26 -23 -36 -48 95 rcurveline
          -6 11 -3 8 -9 3 rrcurveto
          4 vlineto
          -3 -1 rlineto
          97 30 75 79 109 vvcurveto
          94 -64 59 -123 vhcurveto
          -266 hlineto
          -46 callsubr
          54 -10 14 -7 -22 vvcurveto
          -6 -1 -8 -2 -9 vhcurveto
          -86 -27 callgsubr
          -4 -68 callsubr
          243 vlineto
          5 39 -48 11 rlineto
          -15 4 -4 13 9 vvcurveto
          6 2 12 1 5 vhcurveto
          hintmask 10011100
          36 205 rlineto
          84 hlineto
          98 -201 rlineto
          -26 -20 -16 -14 -10 -19 -22 8 -15 hhcurveto
          -13 -16 -35 -25 -15 22 -4 12 32 25 10 30 29 hvcurveto
          hintmask 01011100
          9 9 10 11 10 14 32 -66 rcurveline
          -223 355 rmoveto
          46 261 rlineto
          12 2 3 12 19 hhcurveto
          41 hlineto
          60 58 -20 -99 -106 -71 -60 -113 hvcurveto
          endchar
        </CharString>
        <CharString name="product">
          350 -67 39 661 60 hstem
          170 97 247 97 vstem
          689 -67 rmoveto
          58 callgsubr
          606 vlineto
          12 1 10 19 4 vhcurveto
          62 12 -4 39 rlineto
          -589 hlineto
          -46 callsubr
          74 -13 2 -10 -39 vvcurveto
          -558 67 callsubr
          245 hlineto
          58 callgsubr
          597 vlineto
          11 3 15 15 vhcurveto
          153 hlineto
          74 2 -11 -39 hvcurveto
          -549 67 callsubr
          endchar
        </CharString>
        <CharString name="q">
          74 -198 -21 210 67 374 56 -13 -20 hstemhm
          33 90 42 callgsubr
          271 -219 rmoveto
          21 7 43 6 25 1 rrcurveto
          hintmask 11011000
          1 122 67 340 55 218 rrcurveto
          hintmask 11101000
          -36 callsubr
          -8 -37 -14 -62 -22 -56 -13 -60 rlinecurve
          -8 -41 -16 -75 -3 -17 -14 -43 rlinecurve
          119 609 rmoveto
          -139 -15 -108 -206 -82 hhcurveto
          -32 -14 32 71 82 41 130 46 43 hvcurveto
          9 9 32 7 26 hhcurveto
          38 39 -17 -12 20 hvcurveto
          endchar
        </CharString>
</ttFont>
